<svg width="98" height="29" viewBox="0 0 98 29" fill="none" xmlns="http://www.w3.org/2000/svg">
<path d="M20.2753 4.96837L20.4058 5.86812C20.5036 6.68964 20.5525 7.5307 20.5362 8.37178C20.5362 10.23 20.3568 12.0686 19.9817 13.8681C19.4925 16.3131 18.6119 18.6211 17.4214 20.6944C16.0515 23.0612 14.0619 25.4084 11.1591 27.2861L10.8003 27.5208L10.4415 27.2861C7.53865 25.4084 5.54906 23.0807 4.17918 20.6944C2.98869 18.6211 2.12436 16.3131 1.6188 13.8681C1.24372 12.0686 1.06433 10.23 1.06433 8.37178C1.06433 7.5307 1.09694 6.68964 1.19479 5.86812L1.32526 4.96837C1.34157 4.89013 1.34157 4.81189 1.32526 4.75321C1.30895 4.67497 1.29264 4.6163 1.24372 4.55762C1.2111 4.49894 1.16218 4.44026 1.11325 4.40114C1.06433 4.36202 0.999096 4.34246 0.950172 4.3229C0.901247 4.30334 0.819707 4.3229 0.770782 4.3229C0.721858 4.3229 0.656626 4.36202 0.607701 4.4207C0.558777 4.45982 0.509852 4.5185 0.477236 4.57718C0.44462 4.63586 0.428312 4.7141 0.412004 4.79234L0.281539 5.69209C0.18369 6.57228 0.134766 7.47202 0.134766 8.37178C0.134766 10.3082 0.330463 12.2446 0.721858 14.1224C1.24372 16.7043 2.15697 19.1297 3.4127 21.3204C4.86412 23.824 6.96787 26.2885 10.0012 28.2445L10.572 28.6162C10.6372 28.6553 10.7187 28.6748 10.8003 28.6748C10.8818 28.6748 10.947 28.6553 11.0286 28.6162L11.5994 28.2445C14.6327 26.2885 16.7364 23.824 18.1879 21.3204C19.4436 19.1492 20.3568 16.7042 20.8787 14.1419C21.2701 12.2642 21.4658 10.3278 21.4658 8.39134C21.4658 7.49159 21.4169 6.59184 21.319 5.71165L21.1885 4.8119C21.1722 4.73366 21.1559 4.67498 21.1233 4.59674C21.0907 4.53806 21.0418 4.47938 20.9928 4.44026C20.9439 4.40114 20.8787 4.36202 20.8298 4.34246C20.7645 4.3229 20.7156 4.3229 20.6504 4.34246C20.5851 4.36202 20.5362 4.38158 20.4873 4.4207C20.4384 4.45982 20.3894 4.5185 20.3568 4.57718C20.3242 4.63586 20.2916 4.7141 20.2753 4.77278C20.2753 4.81189 20.2753 4.89013 20.2753 4.96837Z" fill="#3D3D3D"/>
<path d="M3.88555 4.36182L10.8165 1.81905L17.8942 4.4205C18.0084 4.45962 18.1389 4.44006 18.253 4.38138C18.3672 4.30314 18.4487 4.18579 18.4813 4.04887C18.5139 3.91195 18.4976 3.75547 18.4487 3.61855C18.3998 3.48163 18.2856 3.38384 18.1715 3.34472L10.9633 0.704144C10.8817 0.665025 10.7839 0.665025 10.686 0.704144L3.62462 3.28603C3.55939 3.30559 3.51047 3.34471 3.46154 3.38383C3.41262 3.42295 3.38 3.48164 3.34739 3.55988C3.31477 3.61855 3.29846 3.69679 3.29846 3.77503C3.29846 3.85327 3.29846 3.93151 3.31477 3.99019C3.33108 4.06843 3.36369 4.12711 3.39631 4.18578C3.42893 4.24446 3.47785 4.28359 3.54308 4.32271C3.59201 4.36183 3.65724 4.38138 3.72247 4.38138C3.7714 4.38138 3.83663 4.38138 3.88555 4.36182Z" fill="#3D3D3D"/>
<path d="M0.477066 5.12478L10.3924 28.3618C10.425 28.4596 10.4903 28.5379 10.5555 28.577C10.6207 28.6357 10.7186 28.6552 10.8001 28.6552C10.8816 28.6552 10.9632 28.6357 11.0447 28.577C11.11 28.5183 11.1752 28.4401 11.2241 28.3618L17.2744 14.7873L17.2907 14.7678L21.1721 5.10522C21.221 4.9683 21.2373 4.81182 21.1884 4.6749C21.1395 4.53798 21.0579 4.42062 20.9438 4.36194C20.8296 4.30327 20.6991 4.28371 20.585 4.34239C20.4708 4.38151 20.373 4.49887 20.324 4.61623L16.459 14.2788L10.8327 26.9144L1.30878 4.61623C1.27616 4.55755 1.24355 4.49887 1.19462 4.44019C1.1457 4.40107 1.09677 4.36195 1.03154 4.32283C0.96631 4.30327 0.917385 4.28371 0.852153 4.30327C0.78692 4.30327 0.737996 4.32283 0.672764 4.36194C0.623839 4.40106 0.574915 4.44019 0.525991 4.49887C0.493374 4.55755 0.460758 4.61622 0.44445 4.69446C0.428142 4.7727 0.411834 4.83138 0.428142 4.90962C0.428142 4.98786 0.44445 5.0661 0.477066 5.12478Z" fill="#3D3D3D"/>
<path d="M5.22274 15.4712H16.2633C16.3938 15.4712 16.508 15.4125 16.5895 15.3147C16.671 15.2169 16.72 15.0604 16.72 14.9235C16.72 14.767 16.671 14.6301 16.5895 14.5323C16.508 14.4345 16.3775 14.3758 16.2633 14.3758H5.22274C5.09228 14.3758 4.97812 14.4345 4.89658 14.5323C4.81504 14.6301 4.76611 14.7866 4.76611 14.9235C4.76611 15.08 4.81504 15.2169 4.89658 15.3147C4.97812 15.4125 5.09228 15.4712 5.22274 15.4712ZM36.0125 10.6595H28.8369C28.7064 10.6595 28.5923 10.7182 28.5107 10.816C28.4292 10.9138 28.3803 11.0702 28.3803 11.2072V18.1118C28.3803 18.2682 28.4292 18.4052 28.5107 18.503C28.5923 18.6008 28.7227 18.6594 28.8369 18.6594H36.0125V19.833H28.8369C28.6412 19.833 28.4618 19.7939 28.2824 19.6961C28.103 19.6179 27.94 19.481 27.8095 19.3245C27.679 19.168 27.5649 18.9724 27.4996 18.7572C27.4344 18.5421 27.3855 18.3269 27.3855 18.0922V11.1876C27.3855 10.9529 27.4181 10.7377 27.4996 10.5226C27.5649 10.3074 27.679 10.1118 27.8095 9.95533C27.94 9.79885 28.103 9.66194 28.2824 9.5837C28.4618 9.50546 28.6412 9.44678 28.8369 9.44678H36.0125V10.6595ZM49.4993 9.4859V10.6595H42.5846V14.0825H48.1457V15.256H42.5846V18.679H49.4993V19.8526H41.6062V9.4859H49.4993Z" fill="#3D3D3D"/>
<path d="M63.7364 11.2259V14.2772C63.7364 14.5119 63.7038 14.7271 63.6223 14.9422C63.557 15.1574 63.4429 15.353 63.3124 15.5095C63.1819 15.6659 63.0189 15.8029 62.8395 15.8811C62.6601 15.9593 62.4807 16.018 62.285 16.018H60.964L63.6712 19.8713H62.3828L59.6757 16.018H56.4956C56.3325 16.018 56.1858 15.9985 56.0227 15.9593V19.8713H55.0442V9.52417H62.3013C62.497 9.52417 62.6764 9.56329 62.8558 9.66108C63.0352 9.73932 63.1982 9.87624 63.3287 10.0327C63.4592 10.1892 63.5733 10.3848 63.6386 10.6C63.7038 10.776 63.7364 11.0107 63.7364 11.2259ZM56.5445 14.8249H62.3013C62.3665 14.8249 62.4155 14.8053 62.4807 14.7858C62.5296 14.7662 62.5948 14.7271 62.6275 14.6684C62.6764 14.6097 62.709 14.551 62.7253 14.4924C62.7416 14.4337 62.7579 14.3554 62.7579 14.2772V11.2454C62.7579 11.1672 62.7416 11.1085 62.7253 11.0303C62.709 10.9716 62.6764 10.8934 62.6275 10.8542C62.5785 10.7956 62.5296 10.7564 62.4807 10.7369C62.4318 10.7173 62.3665 10.6978 62.3013 10.6978H56.5445C56.4141 10.6978 56.2999 10.7564 56.2184 10.8542C56.1368 10.952 56.0879 11.1085 56.0879 11.2454V14.2772C56.0879 14.3554 56.1042 14.4141 56.1205 14.4924C56.1368 14.551 56.1858 14.6293 56.2184 14.6684C56.2673 14.7271 56.3162 14.7662 56.3651 14.7858C56.4141 14.8053 56.4793 14.8249 56.5445 14.8249Z" fill="#3D3D3D"/>
<path d="M68.9062 9.48486H77.5495V10.6585H73.7171V19.8711H72.7386V10.6585H68.8899V9.48486H68.9062ZM82.7844 19.8516V9.48486H83.7629V19.8516H82.7844ZM96.7442 9.48486H97.9999L94.3795 14.6682L97.9999 19.8516H96.7442L93.5315 15.255H90.7428V19.8516H89.7643V9.48486H90.7428V14.0814H93.5315L96.7442 9.48486Z" fill="#3D3D3D"/>
</svg>
