<svg width="16" height="17" viewBox="0 0 16 17" fill="none" xmlns="http://www.w3.org/2000/svg">
<path d="M2.45337 9.16667L2.10137 9.52134C2.19501 9.61416 2.32152 9.66624 2.45337 9.66624C2.58522 9.66624 2.71173 9.61416 2.80537 9.52134L2.45337 9.16667ZM3.92537 8.41067C4.01961 8.31714 4.07284 8.19 4.07334 8.05723C4.07384 7.92445 4.02157 7.79691 3.92804 7.70267C3.88173 7.65601 3.82668 7.61893 3.76603 7.59354C3.70539 7.56815 3.64033 7.55496 3.57459 7.55471C3.44182 7.55421 3.31428 7.60647 3.22004 7.70001L3.92471 8.41001L3.92537 8.41067ZM1.68537 7.70001C1.5907 7.60925 1.46416 7.55932 1.33302 7.56098C1.20188 7.56264 1.07665 7.61576 0.984305 7.70889C0.891963 7.80202 0.839908 7.9277 0.83936 8.05885C0.838811 8.19 0.889813 8.31611 0.981372 8.41001L1.68537 7.70001ZM12.4107 5.42801C12.4442 5.48572 12.489 5.53614 12.5423 5.57629C12.5956 5.61644 12.6564 5.64552 12.7211 5.6618C12.7858 5.67808 12.8531 5.68124 12.9191 5.6711C12.9851 5.66095 13.0483 5.6377 13.1052 5.60271C13.162 5.56773 13.2113 5.52173 13.25 5.46741C13.2888 5.41309 13.3163 5.35156 13.3309 5.28644C13.3456 5.22132 13.347 5.15394 13.3352 5.08826C13.3233 5.02257 13.2985 4.95993 13.262 4.90401L12.4107 5.42801ZM8.05271 2.00001C4.68804 2.00001 1.95271 4.70734 1.95271 8.05534H2.95271C2.95271 5.26734 5.23271 3.00001 8.05271 3.00001V2.00001ZM1.95271 8.05534V9.16667H2.95271V8.05534H1.95271ZM2.80604 9.52201L3.92537 8.41067L3.22004 7.70001L2.10004 8.81134L2.80471 9.52067L2.80604 9.52201ZM2.80604 8.81201L1.68537 7.70001L0.980705 8.41001L2.10071 9.52067L2.80471 8.81134L2.80604 8.81201ZM13.262 4.90534C12.7147 4.01607 11.9485 3.28203 11.0366 2.77337C10.1247 2.26472 9.09689 1.99844 8.05271 2.00001V3.00001C8.9262 2.99819 9.78623 3.22053 10.5492 3.64575C11.3123 4.07097 11.9534 4.68485 12.4114 5.42867L13.2627 4.90467L13.262 4.90534ZM13.5427 7.83334L13.894 7.47801C13.8005 7.38559 13.6742 7.33377 13.5427 7.33377C13.4112 7.33377 13.285 7.38559 13.1914 7.47801L13.5427 7.83334ZM12.0667 8.58867C12.02 8.63486 11.9828 8.68978 11.9574 8.75032C11.9319 8.81086 11.9186 8.87583 11.9182 8.94151C11.9175 9.07416 11.9694 9.20168 12.0627 9.29601C12.156 9.39034 12.2829 9.44375 12.4155 9.4445C12.5482 9.44525 12.6757 9.39327 12.77 9.30001L12.0667 8.58867ZM14.3154 9.30001C14.3618 9.34739 14.4172 9.38506 14.4783 9.41082C14.5395 9.43658 14.6051 9.44992 14.6715 9.45005C14.7378 9.45019 14.8035 9.43711 14.8648 9.4116C14.926 9.38608 14.9816 9.34863 15.0282 9.30143C15.0748 9.25423 15.1116 9.19823 15.1364 9.13668C15.1611 9.07513 15.1734 9.00926 15.1724 8.94292C15.1715 8.87659 15.1574 8.8111 15.1308 8.75028C15.1043 8.68946 15.066 8.63452 15.018 8.58867L14.3154 9.30001ZM3.54537 11.5707C3.47571 11.4578 3.36405 11.3772 3.23496 11.3466C3.10588 11.316 2.96993 11.338 2.85704 11.4077C2.74415 11.4773 2.66355 11.589 2.63298 11.7181C2.60241 11.8472 2.62438 11.9831 2.69404 12.096L3.54537 11.5707ZM7.92204 15C11.2967 15 14.042 12.2947 14.042 8.94467H13.042C13.042 11.7313 10.7554 14 7.92204 14V15ZM14.042 8.94467V7.83334H13.042V8.94467H14.042ZM13.1914 7.47801L12.0667 8.58867L12.77 9.30001L13.894 8.18867L13.1914 7.47801ZM13.1914 8.18867L14.3154 9.30001L15.018 8.58867L13.894 7.47801L13.1914 8.18867ZM2.69337 12.0953C3.24432 12.9856 4.01404 13.7199 4.92919 14.2283C5.84435 14.7368 6.87446 15.0025 7.92137 15V14C7.04513 14.0025 6.18286 13.7805 5.41672 13.3552C4.65058 12.93 4.00677 12.3156 3.54537 11.5707L2.69404 12.096L2.69337 12.0953Z" fill="#29AAC7"/>
</svg>
