<svg width="41" height="40" viewBox="0 0 41 40" fill="none" xmlns="http://www.w3.org/2000/svg">
<path d="M26.5368 7.37839L21.4052 12.51C21.2769 12.6383 21.1751 12.7906 21.1056 12.9583C21.0362 13.1259 21.0005 13.3056 21.0005 13.487C21.0005 13.6685 21.0362 13.8481 21.1056 14.0158C21.1751 14.1834 21.2769 14.3357 21.4052 14.464L26.5368 19.5956C26.8005 19.8593 27.1447 19.9943 27.4913 19.9998H27.5355C27.8944 19.9948 28.2372 19.8497 28.4908 19.5956L33.6224 14.464C33.7507 14.3357 33.8525 14.1834 33.9219 14.0158C33.9914 13.8481 34.0271 13.6685 34.0271 13.487C34.0271 13.3056 33.9914 13.1259 33.9219 12.9583C33.8525 12.7906 33.7507 12.6383 33.6224 12.51L28.4908 7.37839C28.3625 7.25008 28.2102 7.1483 28.0425 7.07886C27.8749 7.00942 27.6952 6.97368 27.5138 6.97368C27.3323 6.97368 27.1527 7.00942 26.985 7.07886C26.8174 7.1483 26.6651 7.25008 26.5368 7.37839ZM24.1494 19.9998L21.0002 16.8498V19.9998H24.1494ZM21.0002 10.1234L25.141 5.98258C25.7702 5.35344 26.6236 5 27.5134 5C28.4032 5 29.2566 5.35344 29.8858 5.98258L35.0174 11.1142C35.6466 11.7434 36 12.5968 36 13.4866C36 14.3764 35.6466 15.2298 35.0174 15.859L30.8774 19.9998H31.0661C31.9559 19.9998 32.8094 20.3533 33.4386 20.9826C34.0679 21.6118 34.4214 22.4653 34.4214 23.3551V31.6447C34.4214 32.5346 34.0679 33.388 33.4386 34.0173C32.8094 34.6465 31.9559 35 31.0661 35H9.3553C8.46542 35 7.61199 34.6465 6.98274 34.0173C6.3535 33.388 6 32.5346 6 31.6447V9.93394C6 9.04406 6.3535 8.19063 6.98274 7.56139C7.61199 6.93215 8.46542 6.57864 9.3553 6.57864H17.6449C18.5347 6.57864 19.3882 6.93215 20.0174 7.56139C20.6467 8.19063 21.0002 9.04406 21.0002 9.93394V10.1234ZM27.4787 21.9735H21.0002V33.0263H31.0661C31.4325 33.0263 31.7839 32.8807 32.043 32.6216C32.3021 32.3625 32.4477 32.0111 32.4477 31.6447V23.3551C32.4477 22.9887 32.3021 22.6373 32.043 22.3782C31.7839 22.1191 31.4325 21.9735 31.0661 21.9735H27.4787ZM7.97371 9.93394V19.9998H19.0265V9.93394C19.0265 9.56752 18.8809 9.21611 18.6218 8.95701C18.3627 8.69791 18.0113 8.55235 17.6449 8.55235H9.3553C8.98888 8.55235 8.63746 8.69791 8.37836 8.95701C8.11927 9.21611 7.97371 9.56752 7.97371 9.93394ZM7.97371 21.9735V31.6447C7.97371 32.4081 8.59266 33.0263 9.3553 33.0263H19.0265V21.9735H7.97371Z" fill="#46598B"/>
</svg>
