<?xml version="1.0" encoding="UTF-8"?><svg id="Layer_2" xmlns="http://www.w3.org/2000/svg" xmlns:xlink="http://www.w3.org/1999/xlink" viewBox="0 0 825.23 825.22"><defs><style>.cls-1{fill:none;}.cls-2{clip-path:url(#clippath);}.cls-3{fill:#6966ff;}.cls-4{fill:#f766ff;}.cls-5{fill:#fff;}.cls-6{fill:#e2e2e2;}.cls-7{fill:#8221dd;}.cls-8{fill:#9a39f5;}.cls-9{fill:#6c00ff;}.cls-10{fill:#8120dc;}.cls-11{fill:#8f4bf9;}.cls-12{fill:#44c;}.cls-13{fill:#7308ff;}.cls-14{fill:#9c3bf7;}.cls-15{fill:#5d15ff;}.cls-16{fill:#5b00ff;}</style><clipPath id="clippath"><path class="cls-1" d="M0,412.61c0,227.88,184.73,412.61,412.61,412.61s412.61-184.73,412.61-412.61S640.49,0,412.61,0,0,184.73,0,412.61"/></clipPath></defs><g id="Layer_1-2"><g><g class="cls-2"><rect class="cls-3" width="825.23" height="825.22"/></g><path class="cls-12" d="M724.83,667.73c0,24.24-136.24,43.89-304.31,43.89s-304.31-19.65-304.31-43.89,136.25-43.89,304.31-43.89,304.31,19.65,304.31,43.89"/><path d="M663.51,605.25c-3.85-8.37-13.91-12.3-21.79-15.79-1.03-.45-2.07-.9-3.11-1.33-7.91-3.29-16.2-6-24.25-8.28-10.71-3.04-22.41-4.52-32.54-9.01-2.78-1.23-4.42-1.59-7.31-1.98-3.69-.5-6.22-1.89-6.81-5.89-.29-2-.02-4.04,.04-6.07,.33-9.61-4.43-18.97-10.89-25.84-3.53-3.76-5.05-7.97-2.99-13.01,.61-2.06,1.79-3.85,2.67-5.78,4.12-9.03,4.6-19.5-2.09-27.5-4.28-5.12-11.03-9.09-8.98-16.81,1.29-4.84,5.18-8.18,7.13-12.69,3.09-7.11,1.09-14.83,.94-22.24-.16-7.61,2.73-13.36,4.34-20.6,1.55-6.95,1.3-14.43-.22-21.35-2.59-11.78-8.54-21.59-17.21-29.92-6.66-6.39-6.57-6.58-2.94-14.82,2.21-5.01,3.23-10.18,2.45-15.69-1.23-8.63-6.61-14.22-13.4-18.89-5.41-3.72-5.79-5.01-1.65-10.15,4.88-6.05,8.12-12.77,9.87-20.27-.47-5.73-.9-11.41-3.83-16.64-2.42-4.32-6.13-7.56-10.21-10.27-2.49-1.65-10.99-4.81-10.12-8.82,.17-.75,.68-1.37,1.18-1.95,2.79-3.26,5.82-6.17,7.41-10.2,1.46-3.7,2.33-7.53,3.16-11.42,1.26-5.96-.87-10.77-4.79-15.15-3.32-3.71-7.63-7.08-12.22-9.08-4.31-1.88-9.15-2.7-11.61-7.24-3.75-6.91,1.43-15.66,.33-23.05-.99-6.64-2.94-13.02-7.27-18.3-5.14-6.27-13.29-8.61-21.13-7.1-3.65,.7-7.14,1.91-10.51,3.53-6.93,3.34-12.4,.37-13.99-7.28-.83-3.98-1.79-7.96-3.16-11.78-8.8-24.57-31.18-16.63-48.49-9.31-11.84,5-21.89,3.18-32.62-3.1-6.22-3.64-13.9-5.3-21.05-5.3-13.29,0-17.22,7.38-20.8,19.28-2.52,8.36-9.52,7.66-17.14,8.11-10.99,.64-20.03,6.5-27.98,13.69-4.92,4.45-10.91,5.77-17.03,3.08-6.75-2.97-13.19-5.04-20.73-4.91-14.74,.24-24.66,9.43-28.86,23.17-2.21,7.21,.24,16.11,1.09,23.34,1.11,9.39,2.04,18.79,2.8,28.22,.95,11.8,1.1,23.09-6.62,32.95-4.28,5.46-7.11,12.56-6.39,19.61,.24,2.38,1.14,4.78,2.93,6.37,5.39,4.79,3.47,12.11,5.66,18.32,2.74,7.8,8.66,14.56,15.91,18.46,2.53,1.36,5.26,2.41,7.54,4.16,5.93,4.55,4.86,12.84,6.81,19.17,.3,.97,.62,1.97,.44,2.96-.42,2.3-2.33,1.68-3.85,1.14-3.48-1.25-6.97-2.15-10.85-1.61-5.75,.8-10.72,3.44-14.76,7.57-3.97,4.06-5.23,9.49-8.73,13.78-1.58,1.94-3.68,3.39-5.7,4.88-7.03,5.18-13.43,11.16-19.43,17.49-27.29,28.72-24.27,76.35,11.25,97.05,14.15,8.24,29.59,11.68,45.89,11.25,5.99-.16,7.1,.49,8.52,6.23,.31,1.26,.5,2.55,.77,3.82,1.98,9.42,4.78,18.69,8.79,27.45,4.35,9.51,9.64,14.31,9.55,25.14-.08,9.81-1.93,19.51-3.61,29.14-3.22,18.42-7.43,39.15,2.18,56.44,3.11,2.41,5.44,4.99,8.98,7.2,2.31,1.44,4.61,2.88,7,4.17,24.22,13.11,54.31,13.01,79.81,3.98,3.51-1.25,5.7-1.07,8.1,1.93,3.41,4.27,8.05,7.16,13.04,9.3,31.64,13.58,63.74,14.35,96.11,2.95,9.04-3.18,16.4-8.89,20.03-18.14,1.48-3.77,3.87-3.21,6.68-2.68,34.37,6.51,68.66,5.91,102.89-1.13,5.39-1.28,10.94-2.13,16.16-3.92,16.35-5.59,33.72-8.96,47.29-20.86,4.25-6.42,7.36-14.7,3.93-22.16"/><path class="cls-9" d="M475.74,548.38c-.87-3.94-1.74-7.89-2.61-11.84,.82,20.33,3.02,40.54,3.6,60.85-4.65-1.46-5.23-6.02-6.52-9.55-3.25-8.89-6.76-17.65-10.99-26.11-4.17-8.33-10-15.5-18.73-19-15.07-6.05-28.76-2.44-40.67,8.12-10.94,9.7-17.32,22.55-23.37,35.5-1.2,2.56-3.74,4.47-3.75,7.6-1.23,6.5-4.57,12.28-6.23,18.63-.57,2.19-2.23,2.73-4.27,1.54,1.99-15.97,3.96-31.95,5.98-47.92,1.25-9.88,2.6-19.74,2.6-29.87-2.17,10.34-4.23,20.7-6.54,31-1.82,8.13-1.9,16.57-4.5,24.55-1.17,1.88-3.17,2.44-4.97,2-31.79-7.61-60.73-20.64-82.19-46.29-15.39-18.4-23.81-39.75-23.5-64.17,.04-3.18-.74-6.45-.76-9.72,2.96-4.25,5.85-8.56,8.92-12.73,4.31-5.85,5.61-11.92,2.2-18.69-3.13-6.21-2.95-12.49,.12-18.7,3.35-.49,3.7,2,3.68,4.19-.05,5.59,1.76,10.49,4.54,15.25,2.01,3.43,2.97,7.4,2.09,11.29-1.65,7.3,1.78,12.15,7.04,16.28,8.88,6.99,18.86,11.76,29.8,14.51,12.99,3.28,25.92,6.13,39.55,3.83,11.89-2.01,21.83-6.79,29.14-16.58,1.37-1.83,2.41-4.52,5.64-3.11,3.24,3.29,5.99,7.07,9.81,9.79,1.78,1.27,2.45,3.14,2.72,5.25,.55,4.23,1.14,8.45,1.84,12.65,1.38,8.25,7.1,13.01,15.68,12.29,9.03-.75,18.02-2.13,27.02-3.28,13.59-1.73,27.2-3.37,40.77-5.29,9.58-1.36,14.46-7.68,12.87-17.12-.95-5.64,.41-9.1,5.77-11.45,3.69-1.62,6.97-4.2,10.43-6.35,2.7,.53,2.49,2.82,2.92,4.75,1.33,6.03,1.1,12.15,1.09,18.25,0,5.92,.08,11.82,.94,17.72,.81,5.54,2.82,10.14,6.83,14.17,5.23,5.24,5.15,11.78,.39,17.18-1.19,.66-2.36,.52-3.7,.23-3.39-.73-5.96,.47-7.47,3.77-2.23,4.86-6.17,8.6-7.98,13.95-1.64,4.83-7.29,7.47-9.37,12.67-.84,2.1-4.1,1.96-6.03,.89-2.42-1.34-5.62-2.65-4.42-6.61,7.17-9.28,10.16-19.48,6.73-31.06-.2-.69-.57-1.33-1.92-2.01,0,2,.04,4,0,5.99-.05,2.02-.19,4.04-.29,6.07-.52,2.12-1.76,3.9-2.85,5.72-1.9,3.2-4.2,4.43-7.05,.94"/><path class="cls-13" d="M498.04,391.25c2.67-1.02,5.84-.47,9.69-3.25-7.05-.97-10.81-4.14-11.98-10.1-.62-3.14-.04-4.26,3.26-3.41,4.85,1.25,8.89,.67,10.35-5.1,.57-2.22,5.54-2.03,3.61-5.21-2.01-3.31-4.51,.31-6.83,.55-2.68,.28-5.33-4.09-3.82-6.46,1.57-2.46-.72-4.71,.09-7.02,1.15,.69,2.3,1.37,3.44,2.06,3.9,4.06,9.15,6.2,13.56,9.57,11.67,8.92,20.36,20,25.57,33.77,2.04,5.82,.13,11.34-1.28,16.9-8.84,18.71-21.24,34.59-39.44,44.75-27.25,15.21-56.02,20.22-86.24,9.38-10.89-3.91-19.5-10.7-24.33-21.52-4.79-10.72-2.49-20.77,6.21-28.2,13.05-7.79,27.64-10.24,42.37-12.2,1.08,.98,1.37,2.11,.73,3.47-.47,1.01-.81,2.08-.77,3.2,.08,2.52,.8,4.78,3.25,5.97,1.31,.64,2.57,.17,3.45-.95,1.65-2.13,1.4-4.36,.53-6.79-.73-2.04-4.62-2.68-2.61-5.88,17.52-2.5,35.16-2.87,53.88-2.63-1.95-1-2.9-1.49-3.84-1.97-1.58-3.23-2.77-6.41,1.14-8.93"/><path class="cls-9" d="M481.13,562.72c1.05,.33,2.59,.32,3.09,1.03,4.24,6.17,5.86,1.9,7.57-1.82,1.2-2.61,2.62-4.74,5.69-5.55,1.89-.49,3.03-2.31,3.2-4.21,.75-8.4,7.35-12.08,13.07-16.45,1.37-1.04,3.03-1.6,4.32,.34,.87,2.79-1.05,4.16-2.96,5.29-9.22,5.42-11.67,14.81-12.46,24.1-.33,3.91-.63,10.31,5.3,12.87,.81,.35,1.15,1.41,1.34,2.33,.77,4.36,3.71,7.06,7.09,9.53,11.36,8.29,24.62,11.92,37.96,15.09,23.15,5.51,46.61,8.35,70.48,7.26,6.28-.28,12.61-.35,18.89,.08,6.02,.41,8.02,2.96,6.99,8.18-3.76,4.55-9.34,5.76-14.43,7.87-16.55,5.36-33.23,10-50.47,12.79-17.63,2.85-35.24,5.13-53.07,3.23-12.77-1.36-25.11-4.6-36.63-10.55-6.98-3.6-12.38-8.41-13.62-16.66-.53-15.73-1.95-31.39-4.06-46.98-.43-3.2-.25-5.89,2.7-7.79"/><path class="cls-13" d="M203.58,380.06c.33,4.62,.57,9.24-.33,13.82-1.37,7-3.38,8.66-10.24,8.74,2.41,4.73,6.01,5.51,9.84,1.98,4.32-3.98,4.89-9.41,5.14-14.78,.26-5.35,.09-10.71,.07-16.07-.01-4.21,1.14-8.02,3.71-11.37,7.81-3.67,8.99-3.23,14.25,4.1,5.39,7.5,6.21,16.12,4.23,25.03-1.36,6.12-1.08,6.72,4.67,9.33,10.64,4.82,14.9,16.24,9.74,26.73-2.09,4.25-2.57,8.53-1.28,12.96,1.78,6.09,.21,11.46-3.45,16.23-10.21,13.31-18.32,18.3-38.25,13.92-5.99-1.32-11.65-3.6-17.11-6.53-7.88-4.22-13.57-10.33-17.41-18.29-1.76-6.27-3.66-12.54-1.45-19.11,2.8-9.95,6.28-19.63,13.26-27.49,6.99-7.88,14.49-15.23,24.59-19.19"/><path class="cls-9" d="M333.01,184.01c-11.93,8.53-25.13,9.68-39.04,6.7-5.21,2.1-10.26-.82-13.28-3.36-4.61-3.88-9.84-3.98-14.7-4.99-8.11-1.68-16.56-2.32-24.68,1.17-6.59,2.83-8.89,8.6-10.7,14.74-.45,1.53,.17,3.35-1.2,4.67-1.62,8.54,1.33,16.81,1.69,25.25,.29,6.75-.04,13.3-1.44,19.76-2.61,12.08,.77,19,12.36,23.52,2.75,1.07,5.62,1.81,8.44,2.7-.32,7.43-.76,7.73-8.23,7.06-9.23-.83-18.44-1.84-27.52-3.73-7.88-1.64-9.64-5.11-4.83-11.62,13.25-17.95,12.01-38.19,9.94-58.56-.93-9.17-4.48-17.99-3.91-27.42,.61-10.07,5.76-16.84,14.71-19.06,2.5,3.31,6.45,2.44,9.76,3.4,2.71,.78,5.78,.15,8.18,2.1-3.48,1.7-7.31,.41-12.47,1.58,10.9,3.04,20.33,1.82,29.8,.04,.13,2.83-2.81,3.14-3.42,5.59,10.47-2.71,13.64-13.43,21.54-18.54,4.04,1.21,2.64,6.41,5.98,8.12,1.5,1.92-.1,3.49-.63,5.16-2.77,8.84,2.54,14.86,11.54,13.18,3.25-.61,6.31-2.19,9.38-1.98-1.5-4.51,.26-8.5,2.79-12.34,.36-.13,.75-.37,1.07-.28,6.21,1.75,12.39,3.31,18.51-.36,.27-.16,.94,.48,1.41,.77-.35,5.59-.71,11.18-1.06,16.76"/><path class="cls-13" d="M293.04,649.74c-.05-5.15,.18-10.33-.23-15.46-.82-10.22-5.12-12.6-14.41-16.48-5.95-2.49-9.85-10-14.45-15.43-.59-.7,.09-2.49,.19-3.77,1.19-2.15,3.28-1.87,5.28-2.08,3.31-.36,6.36-1.57,6.49-5.44,.13-3.77-1.52-6.81-5.58-7.75-1.44-.33-2.88-.55-4.03-1.56-.32-7.76,1.97-15.27,2.23-22.99,.08-2.23,1.02-3.77,3.41-1.56,6.54,9.09,15.41,16.07,24.46,21.93,15.43,9.99,20.95,23.99,21.58,41.12,.26,7.08,.02,14.05-2.63,20.82-3.4,8.68-15.47,12.81-22.29,8.65"/><path class="cls-13" d="M653.98,610.75c-4.07-4.38-8.65-7.78-14.49-9.75-13.33-4.5-26.98-7.59-40.77-10.2-2.25,.11-2.31,3.03-5.25,3.21-6.08,.38-9.32-2.25-11.41-7.35-2.44-.44-4.65-1.83-7.23-1.72-2.65,1.1-1.92,3.7-2.59,5.7-.69,2.08-1.91,4.02-4.39,2.92-2.17-.97-1.48-3.06-.79-4.86,.65-1.69,2.82-2.56,2.53-4.74-.79-2.24-2.94-2.59-4.76-3.36-11.4-4.86-21.07-11.98-28.64-21.86-.2-.22-.4-.41-.61-.62-.7-2.58-3.25-4.43-3.26-7.28l-1.27-4.16c5.52,6.23,10.54,12.51,17.26,17.13,3.73-1.15,4.75-4.32,4.9-7.55,.27-5.83-2.4-10.71-6.11-15.02-5.5-6.38-11.49-12.37-15.65-19.81-1.02-2.69-3.81-4.41-4.73-8.68,3.68,3.11,6.43,5.44,9.18,7.77,1.11-1.02,.94-2.22,.68-3.56-3.63-18.3-6.65-36.7-9.04-55.22-.43-3.3,.21-7.41-2.75-10.24-5.62,4.75-11.25,9.49-16.87,14.24,1.09,11.44,1.04,22.92,1.41,34.39,.27,8.45,.91,16.95,8.62,23.09,4.08,3.24,3.57,8.26,.1,12.85-17.68,12.11-22.07,28.47-12.27,45.76h0c3.78,10.07,12.91,14.13,21.59,17.92,18.65,8.13,38.61,11.64,58.67,14.16,8.78,1.1,17.63,2.1,26.54,1.92,9.99-.2,19.97-.44,29.96-.47,3.75,0,6.9,1.43,8.14,5.45,3.35-2.62,4.34-6.01,3.29-10.06"/><path class="cls-9" d="M399.91,417.95c-10.79,17.48-5.42,35.49,13.88,44.77,17.31,8.33,35.61,9.54,54.33,5.92,31.64-6.12,55.88-22.79,72.25-50.7,.92-1.57,2.22-2.93,3.34-4.39-3.48,14.73-13.1,25.58-23.35,35.77-9.37,9.31-20.09,16.96-32.36,22.2-18.35,8.17-37.55,13.07-57.64,13.05-14.12-.02-27.76-3.22-38.53-13.32-7.87-7.38-12.75-16.37-12-27.64,1.57-12.56,9.16-20.41,20.08-25.65"/><path class="cls-9" d="M293.04,649.74c1.26-.31,2.5-.74,3.78-.91,13.07-1.74,16.82-5.33,18.17-18.13,1.02-9.72-.4-19.32-2.82-28.67-2.24-8.67-9.04-14.22-15.43-19.94-7.6-6.8-15.05-13.77-22.52-20.72-1.18-1.09-2.72-2.12-2.28-4.16,16.89,16.66,36.81,28.53,58.85,37,4.37,3.37,10.46,4.31,12.86,10.5,4.54,11.67,4.16,23.58,2.27,35.51-1.02,6.5-6.19,10.06-11.76,12.84-12.05,2.69-24.17,3.85-36.35,.97-2.14-.51-5.88,.1-4.77-4.29"/><path class="cls-9" d="M167.18,445.86c12.7,14.45,28.09,23.49,47.85,23.35,10.56-.07,25.15-10.24,25.25-20.54,.11-10.69,1.94-20.79,3.24-31.18,1.08-8.61-4.47-13.45-13.26-14.94-6.75-1.15-6.99-1.78-4.17-8.29,4.3-9.93,2.59-19.21-3.43-27.9-2.67-3.85-6.58-4.49-10.87-3.99,6.67-6.93,15.45-6.04,21.02,2.26,4.14,6.16,4.68,13.18,4.25,20.33-.15,2.59-.51,5.17-.84,7.75-.49,3.74,.58,6.44,4.36,7.95,3.68,1.47,6.67,3.98,8.86,7.35,3.81,5.62,4.12,11.66,2.26,18.01-1.88,6.42-2.39,12.75,1.54,18.7,2.2,3.33,1.97,6.83,.07,10.02-4.72,7.95-9.53,15.74-16.87,21.84-6.41,5.33-13.96,5.41-20.98,4.67-11.4-1.2-22.27-5.11-31.81-11.92-8.92-5.42-13.82-13.66-16.47-23.48"/><path class="cls-9" d="M215.11,288.69c.28,.24,.71,.43,.82,.73,5.44,14.08,17.56,15.82,30.2,15.94,30.33,.29,59.84-4.74,88.53-14.58,.83-.28,1.7-.45,2.68-.35-8.13,6.53-17.27,11.03-27.19,14.06-10.65,3.25-21.58,5.68-31.82,10.16-16.01,7.01-25.21,18.5-25.78,36.78-.31,10.03,1.09,20,.11,29.99-2.15-13.13-3.15-26.44-6.32-39.43-2.16-8.83-4.85-17.48-7.64-26.11-1.21-3.75-3.34-5.78-7.24-6.67-4.91-1.12-9.4-3.32-12.85-7.26-3.39-3.87-5.08-8.12-3.5-13.27"/><path class="cls-16" d="M482.49,617.48c7.43,12.86,20.21,17.2,33.35,21.09,25.93,7.67,51.76,4.09,77.62-.37,12.43-2.14,24.71-4.91,36.81-8.46,1.93-.57,3.99-.72,5.99-1.06-19.05,8.66-39.18,13.5-59.77,16.52-28.67,4.2-57.22,2.87-85.67-2.28-4.9-.89-7.62-2.75-7.42-8.28,.2-5.71-1.41-11.39-.91-17.16"/><path class="cls-16" d="M334.16,653.06c7.96-7.72,10.98-19.1,10.45-29.93-.27-5.42-1.39-10.81-3.33-15.88-.92-2.41-1.88-4.6-3.66-6.48-1.13-1.2-2.41-2.24-3.65-3.33-.71-.63-2.39-3.01-3.19-3.22,7.89,2.11,15.75,4.32,23.67,6.27,3.49,.85,4.3,2.87,4.04,6.11-.9,11.45-3.37,22.76-3.2,34.32,.05,3.2-1.77,5.1-4.35,6.58-5.22,3-10.82,4.85-16.79,5.57"/><path class="cls-15" d="M248.33,473.7c2.85,1.92,2.12,4.99,2.16,7.62,.71,47.41,26.49,77.62,67.04,97.57,10.98,5.4,22.61,9.22,34.54,12.07,2.55,.61,5.08,.96,7.69,.93,.19,2.95-.8,4.85-4.14,4.1-42.91-9.7-78.93-29.24-99.13-70.65-7.11-14.57-9.05-30.49-9.93-46.51-.11-1.96,.53-3.64,1.78-5.12"/><path class="cls-5" d="M511.46,344.74c-2.87-18.7-5.76-37.4-9.02-56.03-4.5-25.75-8.34-51.64-15.75-76.8-7.5-24.86-20.84-45.03-45.63-57.13,.49,2.89,.82,4.86,1.15,6.82-.4,5.86,3.91,8.42,7.87,11.22,8.24,5.05,14.32,12.2,19.53,20.17,5.84,8.93,9.13,18.99,12.74,28.91,9.26,42.3,14.51,85.31,22.43,127.85,7.66,2.85,7.87,2.82,6.66-5.02"/><path class="cls-11" d="M510.77,360.64c-2.7-.61-5.04-1.66-5.52-4.16-.43-2.23-2.34-3.28-2.83-5.24-.59-.35-1.76-.66-1.17-1.45,.98-1.32,2.34-.19,3.54-.04,2.08-1.29,2.14-3.18,1.81-5.35-.69-4.58-1.24-9.19-2.06-13.76-3.17-17.52-5.6-35.17-8.79-52.68-3.15-17.28-4.96-34.83-9.42-51.86-5.82-22.21-16.69-39.74-33.69-55.01-5.26-4.72-10.51-9.57-14.57-15.39-.89-1.28-3.13-5.97-4.52-6.46-2.77-.97-4.28-3.43-6.23-5.34-14.99-14.65-38.81-15.88-52.92-3.56-2.84,2.48-4.9,5.72-8.08,7.82-3.46,4.59-4.78,9.92-5.4,15.5-.2,.4-.47,.57-.79,.46-.16-.05-.42-.14-.45-.25-.88-3.69-1.31-7.39,.02-11.08,.72-1.34,1.6-2.63,1.5-4.26-.63-1.21-1.56-1.71-3-1.73-7.72-.12-15.13,2.22-22.75,2.9-1.56,.14-2.44,1.5-2.5,3.17,5.47,7.25,7.31,15.06,3.65,23.72-1.64,3.88-1.74,7.82-.32,11.79-1.76-.95-2.47-2.7-3.28-4.36-1.51-1.31-3.07-.96-4.64-.14-25.21,13.19-50.41-3.76-76.14-3.5-12.71,.13-22.34,9.79-24.75,21.93-1.7,8.54-.26,16.99,.77,25.51,.89,7.37-.35,15.63-2.07,22.84-2.73,11.45,6.81,22.44,17.82,24.59,1.2,.23,2.45,.35,3.65,.07,1.83-.43,2.97-1.74,3.44-3.5,.94-3.52,1.74-7.09,3.02-10.52,4.01-10.82,11.14-12.16,18.49-3.38,3.17,3.79,6.32,7.62,8.97,11.79,3.56,5.6,5.17,6.44,9.8,6.73,3.22,.2,5.59,.7,8.26-1.13,3.25-2.23,5.14-7.02,7.08-10.27,2.9-4.86,4.96-11.12,11.87-11.25,7.11-.13,9.95,5.64,12.49,11.09,1.69,3.62,3.81,4.33,7.5,2.75,7.66-3.29,15.48-6.2,23.24-9.27,1.04-.23,2.18,.05,2.89-.47-.56,.31-1.15,.98-1.63,1.77-5.57,2.97-11.14,5.95-16.71,8.93-12.91,7.48-27.16,11.23-41.48,14.65-12.76,3.05-25.83,4.47-38.9,4.72-16.38,.31-32.79-.21-48.75-4.72-1.33,1.58-1.93,3.44-2.11,5.46,1.45,10.04,7.42,15.87,17.12,17.93,4.15,.88,8.36,1.53,12.66,1.63,15.99,.38,31.84-1.09,47.56-3.73,8.28-1.39,16.55-2.94,24.57-5.4-9.8,3.33-19.8,6.01-29.68,9.09-10.38,3.23-20.12,7.62-27.57,15.95-5.47,6.13-9.45,13.2-9.48,21.42-.04,11.97,1.66,23.9,2.36,35.86,0,5.36,.02,10.71,.02,16.07,0,2.95-.09,5.83,1.94,8.42,3.29,4.19,4.66,9.16,5.13,14.41l-.2,3.26c.76,8.5,2.56,16.65,6.9,24.18,1.38,2.4,1.14,5.48,.07,8.14-1.51,3.76-.3,6.85,1.85,9.86,2.18,3.04,4.82,5.6,7.76,7.89,14.7,11.47,31.98,16.16,49.99,18.29,22.35,2.64,42.17-1.69,54.9-22.7-9.68-16.64-8.95-32.31,4.33-46.83-.04-2.02,.09-4.06-.15-6.06-1.57-12.81-3.34-25.61-4.81-38.44-1.02-8.9,1.21-17.33,9.27-22.07,10.45-6.14,51.1-11.76,58.52-12.38,6.49-.54,13.31,.04,19.23,2.94,5.81,2.85,8.3,7.43,9.18,13.73,.56,4,.98,8.02,1.46,12.03,6.36-.62,10.73,1.95,13.13,7.97,.67,1.69,1.33,3.41,2.08,5.06,1.18,2.59,1.27,5.75,3.9,7.6,3.13,.96,6.23,.32,9.29-.32,1.73-.36,2.99-1.48,3.27-3.35,.29-1.94-.81-3.05-2.39-3.94-1.46-.82-3.15-1.1-4.55-2.02-1.11-.73-2.17-1.57-1.91-3.08,.22-1.28,1.36-1.71,2.44-1.94,4.92-1.03,7.83-4.47,10.6-8.3,3.49-4.82,2.68-7.88-3.16-9.21m-190.3,39.08c-1.23,1.67-2.5,3.44-2.72,5.47-.65-.14-1.38-.04-2.2,.29-5.83,2.38-11.36,1.77-16.76-1.44-.93-.55-2.02-1.07-3.03-.85-.37-.85-1.2-1.42-1.81-2.13-5.4-6.29-6.4-14.3-2.71-21.69,4.86-9.73,18.33-16.09,29.15-13.76,8.42,1.82,11.49,6.83,9,15.09-2.03,6.75-4.66,13.24-8.92,19m7.64,11.94c.8-1.12,1-2.57,1.09-4.22,.4-6.81,3.91-11.75,7.96-11.7,4.24,.05,7.72,5.78,7.31,12.51-.06,.99-.07,1.89,.16,2.71-5.46,1.84-10.97,1.77-16.52,.7m116.8-165.18c-2.23,.01-2.37-2.13-3.39-3.44-3.05-3.9-5.98-7.86-9.55-11.37-13.23-13.01-29.76-16.56-47.45-17.09-5.66-.17-11.04,1.97-16.78,1.71,1.32-2.21,3.86-2.46,6-3.44,3.07-1.4,2.02-4.39,.77-6.75-4.81-9.12-9.73-18.04-8.32-28.73,.4-3.03,1.14-6.02,2.06-8.93,.45-1.42,.95-2.83,1.48-4.22,.42-1.11,1.68-3,1.68-4.17,5.69-13.48,20-19.99,33.99-15.91,13.56,3.95,22.59,13.26,28.73,25.66,.75,1.51,1.25,3.19,2.48,4.36-.09,.1-.18,.2-.27,.31,.31,3.48,.77,7.09,.38,10.54-1.12,10.03-3.89,20.19-12.21,27.75-3.21,2.92-3.06,5.51,.52,7.85,5.08,3.32,9.68,6.98,13.15,12.04,2.92,4.27,7.03,7.9,6.72,13.82"/><path class="cls-9" d="M288.35,163.86c2.06,.77,3.35-.51,4.84-1.62,7.73-5.71,14.39-4.09,19.05,4.48,.42,.77,1.01,1.54,2.07,1.59,9.58,5.88,11.14,5.8,19.77-1.06l-.67-3.35c-6.68-12.27-17.45-16.35-30.78-15.64-4.09,.22-7.64,2.53-11.72,2.5-2.3,1.4-4.59,2.8-6.89,4.2,.04,3.65-.35,7.51,4.34,8.89"/><path class="cls-16" d="M379.83,443.6c3.99,21.63,15.56,33.34,37.23,37.17,22.21,3.93,43.51-.78,64.55-7.39,2.12-.67,4.26-1.25,6.39-1.87-17.78,10.08-37.1,14.89-57.34,15.39-12.58,.31-24.66-2.92-35.2-10.26-8.54-5.94-14.24-13.92-16.16-24.34-.54-2.96-.81-5.88,.53-8.71"/><path class="cls-16" d="M183.65,469.34c9.54,3.47,18.44,8.79,28.74,10.06,12.91,1.59,23.73-1.98,31.63-12.85,2.51-3.46,4.81-7,6.68-10.86,2.11-4.35,2.33-8.48-.49-12.6-2.81-4.1-3.54-8.59-1.68-13.21,2.9-7.21,2.41-14.5,.91-21.85,5.44,4.15,6.54,9.74,4.8,15.92-2.09,7.44-2.23,14.58,1.49,21.59,1.92,3.62,1.36,7.11-1.04,10.45-4.11,5.72-8.16,11.49-12.14,17.3-5.4,7.9-13.04,10.55-22.22,9.65-13.42-1.31-26.48-3.6-36.7-13.58"/><path class="cls-9" d="M498.04,391.25c-.09,3.01,.1,6.06-1.14,8.93-9.56-.47-10.04-.56-9.76-9.68,.24-7.98-4.53-12.97-9.07-18.32,4.37-6.54,5.38-6.65,11.05-.28,4.9,5.51,7.43,12.22,8.93,19.35"/><path class="cls-5" d="M346.35,268.58c-1.73,3.33-5.3,3.88-8.25,5.12-21.01,8.83-42.79,14.19-65.7,15.27-15.62,.74-31.06,.2-46.44-2.51-3.1-.54-6.24-1.06-8.75-3.23,10.92,.48,21.65,2.81,32.61,3.15,33.48,1.02,65.74-4.29,96.52-17.8"/><path class="cls-5" d="M535.77,559.55c-1.26-2.86-4.15-5.08-3.44-8.72,10.53,19.88,28.82,28.73,49.26,34.19,15.41,4.12,31.03,7.48,46.51,11.33,6.31,1.57,12.42,3.8,18.24,6.75,3.38,1.71,6.39,3.81,7.64,7.66-16.25-13.07-36.49-14.32-55.66-18.75-4.11,3.06-11.81,1.36-16.6-3.68-2.14-1.14-4.41-1.78-6.82-1.98-3.16,1.82-5.35,1.11-6.43-2.47-12.47-5.99-24.37-12.75-32.7-24.32"/><path class="cls-9" d="M266.3,581.77c3.04-1.48,6.4-3.36,9.12-.11,2.86,3.42,5.11,7.51,3.57,12.24-1.33,4.09-5,5.28-8.84,5.5-1.98,.12-4.01-.52-6.01-.81,.72-5.61,1.44-11.22,2.16-16.82"/><path class="cls-5" d="M535.91,520.51c-4.62-20.23-8.08-40.67-10.55-61.27-.31-2.57-.38-5.16-.56-7.74,3.74-3.11,2.95,.92,3.16,2.24,2.36,14.76,4.54,29.54,6.81,44.31,1.04,6.75,2.22,13.47,3.16,20.24,.13,.96,1.68,4.28-2.02,2.22"/><path class="cls-4" d="M325.26,146.17c4.3-12.52,8.38-18.54,14.3-21.07,.91,1.27,.03,2.48-.14,3.7-.99,7.2,3.73,12.12,11.04,11.46,3.11-.28,6.22-.57,9.33-.86-11.41,2.74-22.78,5.73-34.52,6.77"/><path class="cls-9" d="M446.85,404.77c6.52,3.41,8.53,9.63,4.84,14.97-3.2,4.62-7.65,4.44-10.41-.43-3.93-6.96-3.81-8.55,1-13.56,1.52-.33,3.05-.65,4.57-.98"/><path class="cls-5" d="M433.56,149.24c-2.77,.5-3.91-1.83-5.38-3.31-17.03-17.18-44.39-15.58-57.73-.03-1.04,1.21-2.06,2.77-4.12,2.26,9.45-16.46,28.82-22.59,46.81-14.82,8.18,3.54,14.97,8.85,20.42,15.89"/><path class="cls-5" d="M544.99,396.65c-.37,.37-.7,2.03-1.19,.81-7.37-18.26-21.53-30.5-36.75-41.82-.77-.57-1.34-1.27-1.18-2.33,12.2,5.72,23.32,12.87,31.29,24.06,4.12,5.78,7.18,12.06,7.83,19.28"/><path class="cls-5" d="M203.58,380.06c-5.16,4.18-10.33,8.34-15.47,12.55-10.94,8.97-18.18,20.22-20.96,34.21-.13,.65-.45,1.27-.69,1.9-.25-.66-.49-1.31-.74-1.97,3.11-21.81,15.9-36.53,34.47-47,1.16-.66,2.39-1.2,3.38,.31"/><path class="cls-5" d="M308.45,276.19c-1.37,.28-3.08,.49-1.99-1.65,2.42-4.72,4.47-9.73,8.3-13.57,3.44-3.46,6.08-3.21,9.13,.67,.34,.43,.62,.91,.93,1.37,5.37,7.95,5.33,8.06-4,9.94-4.72-1.2-9.02-.8-12.37,3.24"/><path class="cls-5" d="M259.44,265.19c.61-.86,1.06-2.16,1.88-2.49,1.22-.48,1.22,.88,1.41,1.74,3.22,14.56,4.04,15.22,19.05,15.38-9.23,1.92-18.48,3.14-27.86,1.12,1.93-3.03,1.58-6.7,2.77-9.96,.74-2.03,.72-4.39,2.76-5.79"/><path class="cls-13" d="M478.76,637.93c-.05-2.46-.21-4.88-.36-7.09-.59-8.68-.05-17.41-1.07-26.08-.89-7.56-2.82-15-5.7-22.06-2.95-7.21-5.85-14.5-9.33-21.5-14.16-28.54-42.26-30.2-61.81-14.64-4.88,3.88-9.51,8.61-13.29,13.54-4.1,5.34-7,12.34-9.97,18.36-9.59,19.45-17.87,40.08-17.44,62.22,.1,5.4,1.81,10.11,5.41,14.22,1.42,1.63,3.55,3.5,4.85,.75,.65-1.36,.89-2.95,1.39-4.38,.55-1.58,1.19-3.12,1.99-4.59,2.59-4.76,6.54-8.29,12.19-8.3,4.65-.01,8.7,1.22,11.68,4.93,1.57,1.95,2.81,2.14,4.1-.24,6.96-12.84,21.73-10.12,28.49,.09,1.65,1.21,.9,5.88,5.24,3.26,13.07-7.89,21.13-5.18,26.94,8.83,3.64,8.79,5.76,9.11,11.82,1.71,.69-.85,1.16-1.87,1.73-2.82,2.75-4.54,3.26-10.52,3.15-16.2m-36.58-37.71c-1.02,.42-1.6,1.82-2.38,2.67-3.26,3.56-7.16,5.49-11.91,3.95-4.83-1.56-9.12-4.11-11.47-9-.57-1.19-.94-2.77-2.08-3.11,.4-.79,.59-1.71,.71-2.69,1.96-14.93,14.76-18.92,24.97-17.52,6.62,.91,9.25,4.77,7.67,11.32-.91,3.78-2.63,7.28-4.24,10.81-.52,1.14-1.4,2.3-1.28,3.56m17.69,5.09c-1.09,6.09-5.25,8.13-10.46,5.06-.77-.45-1.51-.8-2.26-1,1.68-1.66,2.79-3.39,.48-5.6,4.02-4.31,8.56-4.38,13.4-2.09-.82,.94-.92,2.26-1.16,3.64"/><path class="cls-5" d="M403.26,649.77c.31,11.49,7.39,16.92,18.62,14.19,6.44-1.57,7.2-6.59,7.13-12.05,2.5,4.86,3.21,10.21,4.16,15.48,.39,2.13-.2,3.52-2.63,3.94-10.27,1.77-20.34,.1-30.39-1.75-2.22-.41-2.19-2.11-1.74-3.92,1.33-5.38,2.07-10.94,4.85-15.88"/><path class="cls-5" d="M285.29,626.19c4.57,7.16,3.57,15.15,3.37,23-.02,.66-.5,1.87-.82,1.89-4.78,.24-8.83-2.07-12.97-3.96-2.81-1.28-1.15-3.38-.66-5.21,4.12-3.63,8.25-7.22,8.52-13.34,.06-1.44,1.12-2.21,2.55-2.38"/><path class="cls-5" d="M263.91,610.95c4.01,.41,5.61,3.45,6.51,6.65,2.2,7.81,1,15.75,.21,23.64-.24,2.41-1.59,2.17-2.96,.86-2.32-2.22-3.9-4.88-4.56-8.06,1.66-7.65,0-15.41,.8-23.09"/><path class="cls-5" d="M380.9,645.22c-.16,1.64-.44,3.29-.46,4.93-.12,10.19,5.05,13.9,14.93,10.77-.11,7.29-.64,7.7-7.58,5.76-1.59-.44-3.19-.87-4.77-1.37-10.54-3.38-11.42-5.64-5.97-15.52,.97-1.77,1.99-3.53,3.85-4.57"/><path class="cls-5" d="M435.79,663.1c2.2,.34,4.39,.76,6.59,1.02,7.87,.91,11.52-1.35,14.51-8.88q5.76,10.19-5.16,12.6c-2.71,.6-5.38,1.33-8.11,1.83-7.56,1.38-7.74,1.21-7.83-6.57"/><path class="cls-4" d="M458.71,159.75c2.36-1.67,4.2-1.84,5.63,1.29,1.41,3.1,3.99,5.23,7,6.78,5.97,3.08,9.1,1.43,10.17-5.32,2.21,6.58-.8,12.46-2.42,18.87-6.05-8.18-12.99-15.11-20.38-21.62"/><path class="cls-16" d="M247.17,376.73c.39,5.34,.92,10.67,1.08,16.02,.06,1.91,1.07,5.2-2.41,5.06-2.93-.12-5.14-2.07-4.97-5.53,.24-4.79,.52-9.58,.78-14.37,1.54-1.81,3.21-2.98,5.52-1.17"/><path class="cls-4" d="M505.78,278.71c2.31,2.15,3.72,6.28,7.91,4.69,5.31-2.01,5.23-7.08,5.72-11.68,2.09,3.36,2.74,6.88,1.15,10.64-3.13,5.85-7.14,11.07-11.33,16.18-2.01-6.46-2.69-13.15-3.45-19.83"/><path class="cls-5" d="M548.31,563.8c5.13-8.5,4.05-15.62-3.52-23.84-5.19-5.63-11.32-10.61-13.34-18.53,6.19,7.36,12.51,14.63,18.52,22.14,3.03,3.78,5.58,8.16,4.68,13.24-.59,3.31-.74,7.85-6.34,6.99"/><path class="cls-4" d="M533.76,458.91c-1.45-6.61-4.82-13.1,1.26-19.55,3.42-3.63,4.77-3.02,6.14,1.12,.21,7.22-3.73,12.77-7.4,18.43"/><path class="cls-5" d="M333.4,163.9c-.86-.68-1.94-1.2-2.56-2.06-8.99-12.27-21.29-14-35.07-11.18-1.62,.33-3.23,.86-4.87,.11,14.77-6.52,29.86-4.42,38.57,5.33,2.02,2.26,3.6,4.71,3.93,7.81"/><path class="cls-5" d="M361.21,148.53c-9.67-.18-19.11,1.08-28.25,4.34-1.72-1.55-4.11-3.46,.29-4.23,9.81-1.72,19.67-3.09,29.48-4.6,.62,2.39-.58,3.39-1.53,4.49"/><path class="cls-4" d="M494.84,222.95c7.82,3.84,11.75,1.81,13.37-6.88,2.17,2.86,3.05,5.86,.97,9.18-2.63,2.72-4.63,5.95-7.17,8.72-1.06,1.15-2.05,2.97-4.2,2.61l-2.98-13.62Z"/><path class="cls-9" d="M284.96,274.36c5.74-.14,11.39-1.86,17.2-1.05-.89,6.34-6.39,5.05-10.36,6.11-4.17,1.12-5.21-2.49-6.84-5.06"/><path class="cls-9" d="M248.56,166.3c-4.77-.07-9.55-.31-14.31-.15-4.35,.14-6.01-1.12-3.64-5.34,6.7-.52,12.72,1.19,17.95,5.49"/><path class="cls-5" d="M403.26,649.77c2.05-5.64,5.11-10.43,11.76-10.79,5.86-.31,11.26,4.99,13.99,12.92,1.74,8.94,.66,12.07-4.92,14.27-6.64,2.62-18.09,.11-20.88-4.99-1.98-3.61-1.04-7.61,.05-11.42"/><path class="cls-5" d="M435.79,663.1c-.77-4.82-2.69-9.57,2.67-13.53,7.49-5.54,14.21-3.69,18.43,5.67,.77,6.35-1.28,9.79-7.24,10.79-4.85,.81-10.17,2.4-13.86-2.93"/><path class="cls-5" d="M380.9,645.22c3.29-3.25,7.12-3.26,10.62-.88,3.76,2.56,6.7,5.93,5.14,11.18-.53,1.77-.86,3.6-1.29,5.4-1.42,4.18-5.07,3.95-8.08,3.29-3.71-.82-7.42-2.37-8.52-6.84-1.08-4.38-.27-8.39,2.13-12.15"/><path class="cls-5" d="M285.29,626.19c-.37,12.12-1.74,14.07-11.07,15.72,.61-4.16,1.15-8.33,1.84-12.48,.36-2.16-1.36-5.23,1.75-6.25,3.01-.99,5.8-.03,7.48,3.01"/><path class="cls-5" d="M263.91,610.95c1,5.86,3.38,11.58,1.67,17.7-.54,1.94-1.12,3.84-2.48,5.39-2.04-7.78-1.84-15.48,.8-23.09"/><path class="cls-16" d="M475.74,548.38c4.94,.2,7.29-3.43,9.9-6.67-.56,6.28-2.7,11.81-8.01,16.66-1.5-3.5-1.85-6.71-1.89-9.99"/><path class="cls-4" d="M544.94,494.71c3.14,5.72,2.09,11.41-3.42,16.91-.7-4.67-1.35-9.04-2-13.4,1.96-.93,2.83-3.55,5.42-3.51"/><path class="cls-5" d="M308.45,276.19c1.22-3.24,1.99-7.58,4.98-8.8,3.98-1.62,3.96,4.81,7.38,5.56-3.95,1.75-8.18,2.42-12.37,3.24"/><path class="cls-4" d="M515.63,337.86c2.71,1.03,5.33,.9,8.38-1.67-.74,5.69-3.46,8.86-6.87,11.62-1.22-3.21-1.46-6.57-1.52-9.95"/><path class="cls-9" d="M247.17,376.73c-1.84,.39-3.68,.78-5.52,1.17-.27-1.44-.62-2.87-.78-4.32-.18-1.68-1.31-3.86,1.52-4.42,2.48-.49,3.78,.94,4.22,3.22,.28,1.43,.37,2.89,.55,4.34"/><path class="cls-4" d="M325.26,146.17c-1.92-.35-3.89-.71-2.81-3.46,2.44-6.2,4.67-12.53,8.95-17.78,4.5-5.52,9.64-6.36,15.67-2.43,6.23,4.06,10.41,9.81,12.72,16.9-2.98,.92-6.11,1.08-9.15,1.57-8.83,1.41-11.31-.2-14.83-8.98-4.35,4.3-4.67,11.42-10.54,14.18"/><path class="cls-4" d="M505.78,278.71c-1.07-5.22-2.12-10.44-3.2-15.66-.66-3.19,.51-4.15,3.48-2.86,5.66,2.44,10.99,5.27,13.35,11.53,1.28,4.69,1.2,8.95-2.95,12.45-4.05,3.41-6.46,3.08-9.01-1.46-.73-1.29-.83-2.79-1.66-4.01"/><path class="cls-4" d="M458.71,159.75c-2.44-1.09-4.35-2.2-.48-4.09,3.69-1.8,7.52-3.2,11.58-3.7,6.24-.77,10.13,2.85,11.7,10.55,.81,3.52,.85,7.2-2.69,8.99-3.65,1.84-6.58-.98-9.39-3.02-3.73-2.71-5.64-7.67-10.72-8.72"/><path class="cls-4" d="M515.63,337.86c-.98-5.05-1.99-10.09-2.94-15.14-.45-2.39,.42-3.11,2.67-2,5.39,2.66,10.79,5.53,11.52,12.28,.77,7.07-3.29,12.43-7.99,16.88-2.31,2.19-1.5-1.01-1.75-2.07,1.85-3.68,1.85-7.07-1.52-9.95"/><path class="cls-4" d="M494.84,222.95c-1.25-4.23-2.44-8.48-3.77-12.68-.67-2.12-.37-3.45,2.12-2.68,5.6,1.74,11.46,3.09,15.02,8.48,.84,4.24-1.5,10.01-5.04,11.18-3.94,1.3-6.67-.7-8.33-4.3"/><path class="cls-4" d="M405.49,125.94c-2.51,.09-3.41-.37-1.02-2.45,8-6.93,18.58-4.87,23.19,4.6,1.68,3.45,2.59,7.12,3.18,12.06-5.36-5.39-10.8-8.77-16.49-11.77-2.33-3.09-5.38-3.53-8.86-2.44"/><path class="cls-4" d="M544.94,494.71c-.85,2.65-1.73,5.26-5.42,3.51-.47-2.94-.94-5.87-1.52-9.52,3.58,1.51,5.75,3.2,6.94,6.01"/><path class="cls-4" d="M497.81,236.57c3.11-4.09,7.31-7.28,9.81-11.91,.89-1.65,1.25-.24,1.55,.59-1.72,5.09-5.53,8.71-8.91,12.62-2.46,2.85-2.24,.28-2.46-1.3"/><path class="cls-4" d="M509.23,298.54c.54-2.44,9.45-15.17,11.33-16.18-1.86,6.74-5.58,12.17-11.33,16.18"/><path class="cls-4" d="M533.76,458.91c1.46-6.55,6.15-11.8,7.4-18.43,1.73,7.83-1.75,13.56-7.4,18.43"/><path class="cls-10" d="M479.86,382.37c2.81,4.09,4.53,8.36,2.02,14.25-2.16-5.18-1.58-9.8-2.02-14.25"/><path class="cls-4" d="M405.49,125.94c6.99-4.35,7.56-4.19,8.86,2.44-2.95-.81-5.91-1.62-8.86-2.44"/><path class="cls-5" d="M269.37,261.17c-1.61-2.15-3.4-4.91-6.56-4.13-3.24,.8-4.1,3.88-4.63,6.87-2.36,5.44-3.66,11.15-4.26,17.03,3.68-4.13,2.96-9.81,4.95-14.53,1.44,1.16,1.42,2.81,1.74,4.59,.74,4.14,2.08,8.59,7.2,8.99,4.62,.37,9.34,1.15,13.98-.17-2.82-7.09-7.94-12.66-12.41-18.65"/><path class="cls-9" d="M319.68,406.85c-9.05,5.09-17.53,3.65-25.63-2.22-11.76-6.82-10.77-27.72,3.86-37.13,6.33-4.07,13.59-5.9,21.26-5.06,12.16,1.33,16.68,8.68,12.88,20.29-2.86,8.72-7.65,16.38-12.36,24.12"/><path class="cls-9" d="M435.6,192.82c3.34-17.84-7.6-33.67-22.59-38.33-25.56-7.93-48.76,9.34-44.3,39.44,.24,1.65,5.28,9.51,5.57,11.15-.09-.05-.26-.19-.5-.39-5.13-4.28-8.45-10.39-9.22-17.02-.97-8.45-.38-16.88,2.6-25.31,7.1-20.07,28.25-28.1,47-18.04,11.46,6.15,18.31,15.59,22.51,27.17,.95,2.62,1.4,5.39,1.36,8.17-.07,4.62-.7,10.8-2.44,13.16"/><path class="cls-9" d="M346.44,411.32c-2.26,1.56-4.33,3.35-7.07,4.21-5.42,1.71-9.79,.7-12.98-4.21-1.3-6.73,.71-12.44,5.53-17.16,3.15-3.09,8.81-2.89,11.28,.66,3.43,4.93,6.46,10.16,3.25,16.5"/><path class="cls-9" d="M431.28,299.16c.23-4.67,3.19-6.96,7.14-7.23,3.55-.24,5.8,2.18,5.86,5.96,.06,3.78-3.66,8.41-6.8,8.31-4.53-.13-5.65-3.45-6.19-7.04"/><path class="cls-9" d="M434.53,322.7c.55-11.14,7.62-16.62,17.03-17.25,8.46-.57,13.85,5.2,13.99,14.23,.14,9.01-8.74,20.06-16.24,19.84-10.8-.33-13.48-8.23-14.79-16.82"/><path class="cls-9" d="M458.75,297.8c2.68-2.26,5.46-1.81,7.62,.21,1.95,1.82,1.78,4.3-.27,6.27-2.04,1.97-6.49,2.29-8.04,.52-2.24-2.55-1-4.86,.69-7"/><path class="cls-14" d="M224.01,450.71c1.88-3.9,1.56-7.6,.67-11.36-.4-1.71,.04-3.48,2.05-3.94,2.36-.54,3.22,1.17,3.78,3.06,1.57,5.33-.95,10.44-6.5,12.24"/><path class="cls-8" d="M230.58,419.69c.21-1.8-.04-4.1,2.44-4.24,2.38-.13,2.88,1.91,2.85,3.83-.03,2.05-.35,4.45-2.88,4.52-2.54,.07-2.16-2.4-2.4-4.12"/><path class="cls-9" d="M568.47,583.88c2.14,.82,4.29,1.65,6.43,2.47,.71,2.25,2,4.43,.48,6.87-1.98,3.17-4.41,5.53-8.51,4.91-2.58-.39-3.96-2.18-3.93-4.62,.05-4.15,.46-8.29,5.54-9.63"/><path class="cls-9" d="M581.72,588.33c5.53,1.23,11.07,2.45,16.6,3.68,.85,2.6-.42,3.93-2.82,4.16-3.99,.38-8.31,2.98-11.75-1.3-1.51-1.88-2.75-3.93-2.03-6.54"/><path class="cls-9" d="M444.51,600.76c-3.15,5.99-7.65,10.73-14.82,9.55-7.33-1.2-13.61-4.88-16.37-12.58-.31-.87-.75-1.69-1.13-2.54-.74-20.41,18.18-26.86,32.56-22.86,4.86,1.35,6.44,5.17,6.39,9.83-.07,6.95-3.86,12.6-6.64,18.6"/><path class="cls-9" d="M445.63,610.79c.36-2.6,.73-5.2,1.09-7.8,4.22-9.41,8.09-9.96,15.61-2.21,1.08,4.65,1.36,9.05-3.14,12.33-4.74,3.45-9.99,2.61-13.56-2.32"/><path d="M288.35,163.86c2.74-3.44,6.1-5.89,10.56-6.62,8.46-1.38,13.3,2.09,15.4,11.07-.23,1.09-.34,2.22-.73,3.25-1.35,3.54-1.4,6.42,2.97,7.87,1.11,.37,2.21,1.42,1.98,3.65-5.12-2.36-9.97-.8-14.87,.68-5.52,1.67-11.12,2.55-15.27-2.82-4.32-5.59-3.6-11.38-.04-17.09"/><path class="cls-9" d="M527.59,549.91c-.15,4.67-3.7,7.42-8.61,7.27-3.09-.1-4.88-1.41-4.82-4.73,.1-5.5,3.73-10.82,7.36-10.24,4.5,.72,5.31,4.55,6.07,7.71"/><path class="cls-5" d="M385.35,208.25c-5.06,1.89-7.77-.61-10.12-4.84-7.73-13.94-3.92-31.42,9.09-40.61,13.31-9.41,30.79-7.25,41.71,5.14,10.22,11.6,9.92,29.65-.69,41.18-1.39,1.51-2.98,3.69-5.05,4.3-1.97,.58-4.15-.64-5.86-1.46-.52-.25-1.04-.5-1.55-.77-.74-.38-.21-.64,.26-1.12,.86-.86,1.79-1.65,2.76-2.39,1.9-1.45,4.05-2.65,5.84-4.24,1.63-1.45,2.92-3.36,3.95-5.26,1.14-2.12,2.02-4.36,2.87-6.61-.23,1.52-.74,3.01-1.64,4.26-.9,1.25-2.2,2.23-3.69,2.59-.58,.14-1.31,.16-1.83-.17-.67-.42-.69-1.29-.76-2-.32-3.34-2.2-6.96-4.47-9.41-1.88-2.03-4.26-3.32-7-3.73-2.2-.33-4.44-.15-6.62,.23-.64,.12,1.43,2.4,1.55,2.54,.86,.98,1.37,2.24,1.31,3.56-.11,2.41-2.07,4.33-4.3,4.99-2.24,.66-4.34-.36-5.54-2.3-.35-.57-.91-1.58-1.66-1.68-.91-.13-1.33,1.07-1.59,1.73-.48,1.23-.77,2.53-.85,3.85-.09,1.33,.21,2.64-.07,3.95-.2,.94-.69,2.08-1.76,2.24-1.47,.21-3.14-.59-4.47-1.11-3.11-1.23-5.82-2.93-7.35-5.18,.8,1.72,1.91,4.08,3.18,6.36-.45,3.37,5.23,2.27,4.34,5.96"/><path class="cls-6" d="M392.03,192.89c-.3,.67-.7,1.31-.88,2.01-1.42,5.68-1.81,5.77-7,2.7-3.8-2.24-6.5-5.67-10.32-9.83,.5,6.78,1.92,11.76,4.94,16.27,1.42,2.62,4.21,3.1,6.59,4.22,2.16-.06,4.33-.15,6.5-.17,4.83-.04,2.87-2.07,1.19-4.02-1.35-3.63-1.28-7.39-1.01-11.17"/><path class="cls-6" d="M429.93,184.93c-1.87,3.09-2.7,6.58-5.09,9.24-1.78,1.98-3.18,2.3-4.63-.2,.42,4.34,.46,8.42-4.5,13.84,9.21-.65,16.81-11.95,14.22-22.88"/><path class="cls-5" d="M399.84,213.14c-6.62-.83-13.24-.68-19.86,0-7.02,.52-13.22,4.19-20.08,5.3-.78,1.07-2.72,2.43,.43,2.71,1.01,.09,2.08-.68,3.14-1,23.36-7.19,44.82-3.58,64.44,11.13,7.13,5.35,11.89,12.57,16.75,19.77,1.3,1.93,1.34,1.9,3.3,1.86-8.93-21.86-24.43-35.75-48.11-39.77"/><path class="cls-7" d="M301.67,161.3c3.57,.59,7.98,.86,7.88,4.88-.1,4.03-4.31,5.95-8.06,6.23-3.74,.28-6.65-2.28-6.82-5.93-.21-4.64,4.16-4.27,7-5.19"/><g><path class="cls-5" d="M399.49,374.85l7.66-1.19c1.77-.27,3.4-.19,4.88,.26,1.48,.45,2.69,1.23,3.63,2.33s1.54,2.47,1.8,4.1c.25,1.64,.1,3.12-.47,4.46-.57,1.33-1.48,2.44-2.76,3.32-1.27,.88-2.79,1.45-4.57,1.73l-7.66,1.19-2.51-16.2Zm9.42,11.39c1.39-.21,2.44-.78,3.16-1.7,.72-.92,.97-2.07,.75-3.46-.21-1.39-.8-2.41-1.76-3.07-.96-.66-2.14-.88-3.53-.66l-2.89,.45,1.38,8.89,2.89-.45Z"/><path class="cls-5" d="M418.61,371.88l4.58-.71,2.51,16.2-4.58,.71-2.51-16.2Z"/><path class="cls-5" d="M441.87,368.28l2.51,16.2-3.77,.58-8.49-7.52,1.34,8.63-4.49,.7-2.51-16.2,3.77-.59,8.49,7.52-1.34-8.63,4.49-.7Z"/><path class="cls-5" d="M451.06,382.66c-1.48-.51-2.7-1.35-3.68-2.51s-1.59-2.54-1.84-4.15c-.25-1.6-.08-3.11,.5-4.51s1.5-2.57,2.75-3.51,2.74-1.54,4.45-1.8c1.71-.26,3.3-.14,4.78,.37s2.71,1.35,3.68,2.51c.98,1.16,1.59,2.54,1.84,4.15,.25,1.61,.08,3.11-.5,4.51-.58,1.4-1.5,2.57-2.75,3.51-1.25,.94-2.74,1.54-4.45,1.8-1.71,.27-3.31,.14-4.79-.37Zm6.33-4.35c.61-.49,1.04-1.11,1.32-1.88,.28-.76,.34-1.6,.2-2.51-.14-.91-.46-1.68-.95-2.33-.5-.64-1.1-1.11-1.83-1.39-.72-.28-1.49-.36-2.31-.24-.82,.13-1.53,.44-2.13,.92-.6,.49-1.04,1.11-1.32,1.88s-.34,1.6-.2,2.51c.14,.91,.46,1.69,.95,2.33,.49,.64,1.1,1.1,1.83,1.39s1.49,.36,2.31,.23c.82-.13,1.53-.43,2.13-.92Z"/></g></g></g></svg>