<svg width="30" height="34" viewBox="0 0 30 34" fill="none" xmlns="http://www.w3.org/2000/svg">
<path d="M29.6808 33.7275L22.1206 26.5273L23.0278 29.4074H4.48021C3.52541 29.4074 2.60971 29.0281 1.93457 28.3529C1.25942 27.6778 0.880127 26.7621 0.880127 25.8073V4.20677C0.880127 3.25197 1.25942 2.33628 1.93457 1.66113C2.60971 0.985983 3.52541 0.606689 4.48021 0.606689H26.0807C27.0355 0.606689 27.9512 0.985983 28.6264 1.66113C29.3015 2.33628 29.6808 3.25197 29.6808 4.20677V33.7275ZM15.2805 8.95889C11.4212 8.95889 8.71391 10.6149 8.71391 10.6149C10.1971 9.29009 12.7892 8.52687 12.7892 8.52687L12.5444 8.28207C10.1107 8.32527 7.90749 10.0101 7.90749 10.0101C5.43063 15.1798 5.58904 19.6439 5.58904 19.6439C7.60508 22.2504 10.6004 22.0632 10.6004 22.0632L11.6228 20.7672C9.82274 20.3784 8.68511 18.7799 8.68511 18.7799C8.68511 18.7799 11.3924 20.6232 15.2805 20.6232C19.1686 20.6232 21.8758 18.7799 21.8758 18.7799C21.8758 18.7799 20.7382 20.3784 18.9382 20.7672L19.9606 22.0632C19.9606 22.0632 22.9558 22.2504 24.9719 19.6439C24.9719 19.6439 25.1303 15.1798 22.6534 10.0101C22.6534 10.0101 20.4502 8.32527 18.0165 8.28207L17.7717 8.52687C17.7717 8.52687 20.3638 9.29009 21.847 10.6149C21.847 10.6149 19.1398 8.95889 15.2805 8.95889ZM12.2996 14.4166C13.2356 14.4166 13.9988 15.2374 13.9844 16.2455C13.9844 17.2391 13.2356 18.0743 12.2996 18.0743C11.378 18.0743 10.6292 17.2391 10.6292 16.2455C10.6292 15.2374 11.3636 14.4166 12.2996 14.4166ZM18.3045 14.4166C19.2406 14.4166 19.9894 15.2374 19.9894 16.2455C19.9894 17.2391 19.2406 18.0743 18.3045 18.0743C17.3829 18.0743 16.6341 17.2391 16.6341 16.2455C16.6341 15.2374 17.3685 14.4166 18.3045 14.4166Z" fill="white"/>
</svg>
