<svg width="34" height="25" viewBox="0 0 34 25" fill="none" xmlns="http://www.w3.org/2000/svg">
<path d="M24.875 7.09578V6.3125C24.875 2.78562 19.5552 0.125 12.5 0.125C5.44484 0.125 0.125 2.78562 0.125 6.3125V11.9375C0.125 14.8752 3.81641 17.2095 9.125 17.9084V18.6875C9.125 22.2144 14.4448 24.875 21.5 24.875C28.5552 24.875 33.875 22.2144 33.875 18.6875V13.0625C33.875 10.1516 30.3003 7.81437 24.875 7.09578ZM31.625 13.0625C31.625 14.9216 27.2952 17 21.5 17C20.9755 17 20.4552 16.9817 19.9419 16.948C22.9752 15.8427 24.875 14.0469 24.875 11.9375V9.36969C29.0755 9.99547 31.625 11.6942 31.625 13.0625ZM9.125 15.6289V12.2834C10.2441 12.4293 11.3715 12.5016 12.5 12.5C13.6285 12.5016 14.7559 12.4293 15.875 12.2834V15.6289C14.7576 15.794 13.6295 15.8762 12.5 15.875C11.3705 15.8762 10.2424 15.794 9.125 15.6289ZM22.625 9.95891V11.9375C22.625 13.1173 20.8798 14.3844 18.125 15.1536V11.8672C19.9405 11.427 21.4775 10.7717 22.625 9.95891ZM12.5 2.375C18.2952 2.375 22.625 4.45344 22.625 6.3125C22.625 8.17156 18.2952 10.25 12.5 10.25C6.70484 10.25 2.375 8.17156 2.375 6.3125C2.375 4.45344 6.70484 2.375 12.5 2.375ZM2.375 11.9375V9.95891C3.5225 10.7717 5.05953 11.427 6.875 11.8672V15.1536C4.12016 14.3844 2.375 13.1173 2.375 11.9375ZM11.375 18.6875V18.1011C11.7448 18.1152 12.1189 18.125 12.5 18.125C13.0456 18.125 13.5786 18.1067 14.1017 18.0758C14.6829 18.2838 15.2748 18.4603 15.875 18.6045V21.9036C13.1202 21.1344 11.375 19.8673 11.375 18.6875ZM18.125 22.3789V19.025C19.2437 19.1754 20.3712 19.2506 21.5 19.25C22.6285 19.2516 23.7559 19.1793 24.875 19.0334V22.3789C22.637 22.707 20.363 22.707 18.125 22.3789ZM27.125 21.9036V18.6172C28.9405 18.177 30.4775 17.5217 31.625 16.7089V18.6875C31.625 19.8673 29.8798 21.1344 27.125 21.9036Z" fill="#1DEDE1"/>
</svg>
