<svg width="32" height="32" viewBox="0 0 32 32" fill="none" xmlns="http://www.w3.org/2000/svg">
<g clip-path="url(#clip0_1052_3715)">
<path fill-rule="evenodd" clip-rule="evenodd" d="M15.9998 2.66699C23.3638 2.66699 29.3332 8.63633 29.3332 16.0003C29.3332 23.3643 23.3638 29.3337 15.9998 29.3337C8.63584 29.3337 2.6665 23.3643 2.6665 16.0003C2.6665 8.63633 8.63584 2.66699 15.9998 2.66699ZM17.9758 22.587C16.6607 22.6944 15.339 22.6944 14.0238 22.587C14.1478 23.1163 14.2865 23.607 14.4372 24.0563C14.7718 25.063 15.1438 25.7803 15.4905 26.219C15.6598 26.435 15.7972 26.5497 15.8905 26.6057L15.9585 26.643L15.9985 26.6537L16.0412 26.643L16.1092 26.607C16.2639 26.5022 16.3992 26.3714 16.5092 26.2203C16.8558 25.7803 17.2278 25.063 17.5625 24.0563C17.7132 23.607 17.8518 23.1163 17.9758 22.587ZM6.40917 20.6737C7.61999 23.1525 9.74134 25.068 12.3305 26.0203C12.1733 25.6532 12.0318 25.2795 11.9065 24.9003C11.6156 24.0131 11.384 23.1076 11.2132 22.1897C9.56277 21.8555 7.95244 21.3473 6.40917 20.6737ZM25.5905 20.6737C24.0652 21.3403 22.4572 21.851 20.7852 22.1897C20.6151 23.1082 20.3835 24.0142 20.0918 24.9017C19.9638 25.2883 19.8225 25.6643 19.6678 26.019C22.2579 25.0671 24.3803 23.1516 25.5918 20.6723L25.5905 20.6737ZM18.6345 14.495C16.8856 14.7255 15.114 14.7255 13.3652 14.495C13.2891 16.2861 13.3519 18.0803 13.5532 19.8617C15.179 20.0471 16.8207 20.0471 18.4465 19.8617C18.5944 18.5799 18.6678 17.2906 18.6665 16.0003C18.6665 15.4883 18.6558 14.987 18.6345 14.4937V14.495ZM6.0905 12.043C5.43862 13.6733 5.20043 15.4396 5.39717 17.1843C7.09522 18.1589 8.92013 18.8934 10.8198 19.367C10.6559 17.5704 10.6229 15.7643 10.7212 13.963C9.10281 13.5209 7.54689 12.8758 6.0905 12.043ZM25.9092 12.043C24.4528 12.8757 22.8969 13.5209 21.2785 13.963C21.3768 15.7643 21.3438 17.5704 21.1798 19.367C23.0791 18.8933 24.9035 18.1588 26.6012 17.1843C26.7977 15.44 26.5595 13.6742 25.9078 12.0443L25.9092 12.043ZM16.0212 5.34966L16.0065 5.34699L15.9798 5.35099L15.9292 5.37099C15.7586 5.47924 15.6094 5.61801 15.4892 5.78033C15.1425 6.22033 14.7718 6.93766 14.4358 7.94299C14.0758 9.02033 13.7852 10.343 13.5918 11.835C15.1895 12.057 16.8102 12.057 18.4078 11.835C18.2145 10.3417 17.9225 9.02033 17.5638 7.94299C17.2278 6.93766 16.8572 6.21899 16.5105 5.78033C16.4001 5.62965 16.2648 5.49889 16.1105 5.39366L16.0212 5.34966ZM12.3305 5.98166C10.3498 6.70959 8.62875 8.00714 7.38384 9.71099C8.50784 10.3563 9.71184 10.879 10.9772 11.2617C11.1905 9.70966 11.5065 8.29766 11.9065 7.09899C12.0358 6.71099 12.1772 6.33633 12.3305 5.98166ZM19.6692 5.98166C19.8225 6.33633 19.9625 6.71099 20.0932 7.09899C20.4932 8.29899 20.8092 9.70966 21.0225 11.2617C22.2753 10.8829 23.4808 10.3626 24.6158 9.71099C23.371 8.00708 21.6499 6.70952 19.6692 5.98166Z" fill="#46598B"/>
</g>
<defs>
<clipPath id="clip0_1052_3715">
<rect width="32" height="32" fill="white"/>
</clipPath>
</defs>
</svg>
