<svg width="70" height="22" viewBox="0 0 70 22" fill="none" xmlns="http://www.w3.org/2000/svg">
<g clip-path="url(#clip0_627_8318)">
<path d="M58.2002 7.81104C59.4015 7.82294 60.501 8.05962 61.0984 9.18642C61.3347 9.62997 61.2822 9.88457 60.6421 9.84732C60.0513 9.81306 59.4065 10.0393 59.0208 9.35609C58.9092 9.15813 58.5235 9.09859 58.2035 9.12539C57.7128 9.16706 57.1517 9.13283 57.0909 9.73864C57.0351 10.3088 57.5718 10.3921 58.0214 10.48C58.7632 10.6228 59.523 10.7062 60.2286 10.9667C61.571 11.4653 61.8844 12.9598 60.8571 13.8931C59.674 14.9693 56.8415 15.0542 55.6271 14.0464C55.3005 13.7755 55.0232 13.4703 54.933 13.064C54.9083 12.9538 54.8296 12.8318 54.9674 12.7276C55.2906 12.4805 56.7052 12.6189 56.9679 12.93C57.4339 13.4838 58.0575 13.5358 58.7254 13.3543C59.0618 13.2635 59.3982 13.1161 59.3785 12.7038C59.3605 12.3301 59.0356 12.2007 58.732 12.1203C58.2118 11.9833 57.6719 11.9044 57.1401 11.8003C55.5746 11.4951 54.9444 10.8624 55.0412 9.6925C55.1249 8.67289 56.1177 7.93012 57.5143 7.84229C57.7325 7.82889 57.9508 7.82145 58.2002 7.81104Z" fill="black"/>
<path d="M34.1048 11.209C34.131 9.82463 34.6414 8.64577 36.1298 8.09948C37.5395 7.58297 38.9541 7.6172 40.1718 8.61748C40.2719 8.69935 40.3654 8.79015 40.4474 8.88691C40.7888 9.29029 41.1958 9.87676 40.9167 10.2207C40.6164 10.5912 39.8567 10.3277 39.2971 10.3501C39.0722 10.359 39.0805 10.1774 39.0213 10.0465C38.7752 9.50909 38.3485 9.25755 37.6856 9.26499C37.0012 9.27243 36.6222 9.62524 36.3825 10.1164C36.0117 10.8756 36.0445 11.666 36.3825 12.4236C36.609 12.9297 37.0325 13.2691 37.6806 13.2914C38.3305 13.3138 38.7555 13.0339 39.0197 12.5025C39.1625 12.2137 40.6706 12.0113 40.9152 12.2316C41.0562 12.3596 40.9742 12.5114 40.943 12.6498C40.7724 13.3897 40.3391 13.9731 39.6088 14.3423C37.0734 15.6254 34.2377 14.1994 34.1064 11.5811C34.0998 11.4575 34.1064 11.334 34.1064 11.2105L34.1048 11.209Z" fill="black"/>
<path d="M43.5837 10.1384C43.5837 11.4259 43.564 12.7135 43.5935 13.9996C43.6034 14.4655 43.4902 14.6396 42.9223 14.6292C41.5241 14.6039 41.5241 14.6352 41.5241 13.3402C41.5241 11.0136 41.5422 8.68706 41.511 6.36051C41.5045 5.80827 41.6161 5.50759 42.302 5.61626C42.4874 5.64603 42.686 5.63709 42.8747 5.61477C43.4475 5.54779 43.6198 5.75766 43.6034 6.27865C43.5623 7.56472 43.5903 8.85229 43.5903 10.1399H43.5853L43.5837 10.1384Z" fill="black"/>
<path d="M46.4632 11.2843C46.4632 12.1743 46.4319 13.066 46.4746 13.9561C46.4977 14.4563 46.3663 14.6409 45.769 14.626C44.4512 14.5962 44.4512 14.626 44.4512 13.4128C44.4512 11.7799 44.4709 10.147 44.4414 8.51411C44.4331 8.02736 44.5284 7.82046 45.1404 7.83684C46.4615 7.87255 46.4632 7.83832 46.4648 9.05741C46.4648 9.80018 46.4648 10.5414 46.4648 11.2843H46.4632Z" fill="black"/>
<path d="M44.4074 5.93102C44.4172 5.48447 44.7881 5.18825 45.4167 5.14509C46.0403 5.10192 46.5769 5.53061 46.5785 6.04712C46.5802 6.53387 45.9976 7.0876 45.4626 7.01764C44.9014 6.94469 44.4156 6.71547 44.4058 5.93102H44.4074Z" fill="black"/>
<path d="M11.4863 20.9912C10.9611 20.8974 10.6625 20.6354 10.6936 20.1755C10.7248 19.7186 11.0678 19.4253 11.5454 19.4581C12.0015 19.4893 12.3528 19.7721 12.3134 20.2529C12.274 20.7173 11.9163 20.9153 11.4863 20.9912Z" fill="black"/>
<path d="M15.3312 3.22868C14.8126 3.16468 14.509 2.90269 14.5287 2.45019C14.5484 2.00214 14.8701 1.69849 15.3657 1.72975C15.835 1.75803 16.1813 2.04829 16.1599 2.50824C16.1386 2.95926 15.8104 3.19891 15.3312 3.22868Z" fill="black"/>
<path d="M12.269 1.79582C12.2148 2.26172 11.9062 2.55793 11.4319 2.54156C10.9725 2.52519 10.6197 2.24832 10.6459 1.77051C10.6722 1.31354 10.9873 1.03221 11.478 1.03667C11.9818 1.04263 12.2262 1.36266 12.269 1.79582Z" fill="black"/>
<path d="M16.2025 19.4272C16.1992 19.9765 15.8513 20.2548 15.3934 20.2563C14.9306 20.2593 14.5794 19.975 14.586 19.4897C14.591 19.0432 14.9044 18.7767 15.3491 18.7633C15.8332 18.7484 16.1598 19.0104 16.2025 19.4257V19.4272Z" fill="black"/>
<path d="M6.76141 19.4823C6.86972 19.0462 7.14706 18.7515 7.65086 18.7842C8.14317 18.8155 8.43857 19.0998 8.41066 19.5701C8.38277 20.0406 8.04307 20.2981 7.5606 20.2683C7.08141 20.24 6.81064 19.9244 6.75977 19.4823H6.76141Z" fill="black"/>
<path d="M8.36989 2.5653C8.29932 3.02377 7.96783 3.27682 7.49193 3.23662C7.01767 3.19643 6.7075 2.89873 6.75838 2.42687C6.80761 1.96544 7.167 1.69899 7.63306 1.75109C8.06958 1.80021 8.43061 2.05921 8.36989 2.5653Z" fill="black"/>
<path d="M1.35258 10.2965C1.89413 10.3158 2.14521 10.6463 2.12387 11.0615C2.10254 11.4813 1.78746 11.8133 1.27545 11.7716C0.794626 11.7343 0.481185 11.4471 0.500877 10.9841C0.522211 10.5183 0.835652 10.2905 1.35094 10.2965H1.35258Z" fill="black"/>
<path d="M21.5934 11.7107C21.1355 11.7032 20.8352 11.4263 20.8188 10.9887C20.8041 10.5407 21.1322 10.2341 21.6262 10.2281C22.1202 10.2221 22.4467 10.5333 22.4615 10.9679C22.4779 11.4085 22.1826 11.6883 21.5918 11.7107H21.5934Z" fill="black"/>
<path d="M18.6134 18.2231C18.1736 18.2126 17.8684 17.973 17.8716 17.4996C17.8749 17.0308 18.1933 16.7777 18.6971 16.7614C19.2009 16.745 19.4585 17.0575 19.4716 17.4535C19.4864 17.8822 19.2567 18.2156 18.6134 18.2231Z" fill="black"/>
<path d="M5.12054 17.4786C5.08608 18.0471 4.76936 18.2615 4.26228 18.2496C3.76667 18.2377 3.50247 17.9534 3.50739 17.5321C3.51067 17.0841 3.78801 16.767 4.31478 16.7849C4.82187 16.8013 5.07623 17.1019 5.12054 17.4786Z" fill="black"/>
<path d="M4.33755 5.26049C3.71887 5.2069 3.45302 4.91366 3.47763 4.46413C3.49897 4.05032 3.77467 3.77197 4.27027 3.77793C4.79047 3.78239 5.09243 4.04437 5.08751 4.51176C5.08259 4.98064 4.72812 5.18606 4.33755 5.26049Z" fill="black"/>
<path d="M18.4752 3.74965C19.148 3.74221 19.4171 4.02651 19.4401 4.47605C19.4615 4.90325 19.1727 5.20691 18.7164 5.22329C18.1929 5.24263 17.8598 4.97619 17.8484 4.45074C17.8385 3.97145 18.1782 3.82557 18.4736 3.74965H18.4752Z" fill="black"/>
<path d="M2.90997 7.51718C2.823 7.98905 2.51776 8.24953 2.01396 8.22422C1.5479 8.2019 1.24595 7.92503 1.26236 7.49783C1.27877 7.0483 1.58401 6.75358 2.09929 6.76548C2.61295 6.77739 2.85746 7.08849 2.90997 7.51718Z" fill="black"/>
<path d="M20.9287 6.73196C21.3897 6.77661 21.6867 7.05645 21.6589 7.49556C21.631 7.93914 21.2896 8.20559 20.7792 8.17284C20.3099 8.14157 20.0179 7.85281 20.0376 7.44644C20.0572 7.01775 20.3444 6.72898 20.9287 6.73196Z" fill="black"/>
<path d="M21.6933 14.5431C21.6046 14.9747 21.329 15.253 20.8202 15.2367C20.341 15.2219 20.067 14.9196 20.0587 14.5178C20.0506 14.0667 20.3755 13.7705 20.8744 13.775C21.3699 13.7794 21.6555 14.0667 21.6949 14.5446L21.6933 14.5431Z" fill="black"/>
<path d="M2.13384 15.2651C1.57752 15.2933 1.28869 14.9688 1.27392 14.5595C1.25915 14.1338 1.58244 13.8331 2.10757 13.8301C2.60317 13.8256 2.892 14.1234 2.91826 14.5074C2.94615 14.9361 2.65076 15.2323 2.13384 15.2666V15.2651Z" fill="black"/>
<path d="M18.8247 7.05752C18.3504 7.0471 18.1255 6.8015 18.1207 6.40406C18.1157 6.03492 18.3537 5.78633 18.7574 5.76103C19.212 5.73424 19.4959 6.01854 19.5156 6.3862C19.5352 6.75387 19.2841 7.02775 18.823 7.05752H18.8247Z" fill="black"/>
<path d="M20.9108 9.30201C20.8074 9.6667 20.6318 9.97484 20.1641 9.94508C19.7243 9.91822 19.4815 9.67261 19.5028 9.26033C19.5225 8.88225 19.7538 8.68427 20.1756 8.67832C20.6466 8.67237 20.8337 8.93583 20.9108 9.30201Z" fill="black"/>
<path d="M20.9647 12.4811C20.8778 12.8652 20.6431 13.1078 20.1918 13.0766C19.8029 13.0483 19.5173 12.8548 19.5256 12.4707C19.5337 12.0703 19.7963 11.8232 20.241 11.8277C20.6825 11.8322 20.9155 12.0837 20.9647 12.4811Z" fill="black"/>
<path d="M9.58416 3.73955C9.16898 3.66959 8.88507 3.4865 8.90969 3.06079C8.93103 2.67229 9.24118 2.46092 9.59565 2.4639C9.98453 2.46687 10.3456 2.69312 10.3292 3.10098C10.3128 3.48353 10.0273 3.70978 9.5858 3.73955H9.58416Z" fill="black"/>
<path d="M3.44313 9.54448C3.38405 9.93144 3.13954 10.1712 2.70137 10.1637C2.26813 10.1563 1.98916 9.93144 1.99572 9.51771C2.00228 9.12917 2.29603 8.94906 2.68168 8.92971C3.1264 8.90738 3.3742 9.1381 3.44313 9.54448Z" fill="black"/>
<path d="M17.2512 17.6261C17.2119 18.0533 16.9197 18.3004 16.5226 18.2989C16.114 18.2989 15.8382 18.0369 15.8563 17.6186C15.8727 17.2376 16.109 17.0322 16.516 17.0188C16.9771 17.0024 17.1856 17.2584 17.2495 17.6261H17.2512Z" fill="black"/>
<path d="M6.61371 18.4416C6.25268 18.3926 5.94417 18.2124 5.94581 17.7987C5.94581 17.4474 6.12468 17.1899 6.56612 17.1571C7.03054 17.1229 7.29639 17.3208 7.32429 17.7302C7.35218 18.1306 7.10931 18.3717 6.61371 18.4416Z" fill="black"/>
<path d="M2.75089 12.043C3.1989 12.0966 3.46476 12.3035 3.45163 12.7173C3.43849 13.0879 3.21367 13.3008 2.79028 13.3171C2.32094 13.335 2.05016 13.0686 2.04688 12.7068C2.04524 12.3541 2.30945 12.0773 2.75089 12.0415V12.043Z" fill="black"/>
<path d="M4.81699 15.5317C4.81699 15.9916 4.57084 16.2446 4.13595 16.2372C3.70928 16.2298 3.42866 15.9604 3.44343 15.5659C3.45656 15.222 3.67154 14.9601 4.09985 14.9496C4.56263 14.9378 4.78253 15.1745 4.81535 15.5302L4.81699 15.5317Z" fill="black"/>
<path d="M19.6813 15.3991C19.5812 15.7786 19.3794 16.0361 18.9116 16.0064C18.4439 15.9766 18.2454 15.7236 18.2684 15.3231C18.2913 14.9406 18.5523 14.7515 18.9593 14.759C19.4122 14.7679 19.6173 15.0314 19.6797 15.3976L19.6813 15.3991Z" fill="black"/>
<path d="M17.0148 4.24882C16.9639 4.60457 16.7621 4.8472 16.2895 4.84423C15.8529 4.84125 15.6462 4.61499 15.6232 4.25477C15.597 3.84097 15.8874 3.58643 16.2994 3.57155C16.7211 3.55517 16.987 3.80822 17.0148 4.24882Z" fill="black"/>
<path d="M7.09301 4.43556C7.06512 4.77494 6.82881 4.9878 6.37096 4.97589C5.94593 4.96398 5.73751 4.73177 5.7211 4.37006C5.7014 3.9503 6.01157 3.70916 6.4087 3.7047C6.8124 3.69874 7.10123 3.94286 7.09301 4.43556Z" fill="black"/>
<path d="M13.1927 3.68307C12.6709 3.68307 12.3968 3.46425 12.3984 3.06384C12.4001 2.72148 12.5937 2.44313 13.0335 2.42974C13.4947 2.41634 13.7539 2.65301 13.7638 3.05194C13.772 3.41066 13.5439 3.64139 13.1927 3.68307Z" fill="black"/>
<path d="M4.67256 6.62874C4.64958 6.94282 4.53471 7.21075 4.06701 7.23159C3.59274 7.25243 3.31212 7.02618 3.29079 6.64214C3.26945 6.25512 3.52382 5.99315 4.00137 5.99464C4.43788 5.99464 4.64465 6.21047 4.6742 6.62874H4.67256Z" fill="black"/>
<path d="M13.3686 19.5533C12.9994 19.4923 12.6761 19.351 12.6416 18.9773C12.6072 18.5829 12.8336 18.306 13.2932 18.2837C13.6936 18.2643 13.966 18.4355 14.0136 18.83C14.0661 19.2661 13.7789 19.4477 13.3686 19.5548V19.5533Z" fill="black"/>
<path d="M10.5606 18.9104C10.5278 19.3034 10.3292 19.5654 9.86485 19.5698C9.4447 19.5743 9.21168 19.3495 9.18871 18.9803C9.16408 18.565 9.40861 18.3373 9.86806 18.3224C10.3046 18.3075 10.4885 18.5561 10.5606 18.9104Z" fill="black"/>
<path d="M8.62727 17.3086C8.78481 17.3056 8.9522 17.4634 8.97846 17.7507C9.008 18.0796 8.77989 18.2925 8.4763 18.3178C8.15629 18.3446 7.91014 18.1184 7.90357 17.8192C7.89537 17.5215 8.08572 17.316 8.62727 17.3086Z" fill="black"/>
<path d="M14.4845 4.68636C14.1678 4.6804 13.9905 4.54495 13.9691 4.24576C13.9446 3.91084 14.1694 3.71585 14.4746 3.68756C14.8061 3.6578 15.0523 3.89745 15.0506 4.18324C15.0506 4.45564 14.8701 4.69826 14.4845 4.68636Z" fill="black"/>
<path d="M6.35313 16.2461C6.32523 16.5855 6.10041 16.7179 5.7525 16.712C5.40788 16.706 5.26675 16.4873 5.25855 16.2268C5.25035 15.9424 5.44563 15.7712 5.77219 15.7653C6.12831 15.7593 6.33508 15.9111 6.35313 16.2461Z" fill="black"/>
<path d="M17.7256 5.76117C17.6386 6.07972 17.4515 6.27471 17.1069 6.24494C16.777 6.21517 16.567 6.04399 16.5965 5.71056C16.6228 5.40393 16.8656 5.29676 17.1479 5.28931C17.5007 5.28038 17.6468 5.5111 17.7272 5.76117H17.7256Z" fill="black"/>
<path d="M19.5453 13.7411C19.4649 13.9852 19.3566 14.2173 19.0333 14.2278C18.6904 14.2382 18.4721 14.0819 18.4507 13.7515C18.431 13.4508 18.6034 13.296 18.9234 13.2766C19.2844 13.2543 19.4567 13.4493 19.5453 13.7411Z" fill="black"/>
<path d="M4.56401 13.8744C4.52791 14.1095 4.42944 14.3269 4.08974 14.3417C3.74184 14.3566 3.50717 14.2078 3.4924 13.8863C3.47764 13.5647 3.6959 13.392 4.0438 13.3906C4.36872 13.3891 4.51478 13.5796 4.56237 13.8744H4.56401Z" fill="black"/>
<path d="M11.9243 3.65594C11.9079 3.91643 11.78 4.11887 11.4435 4.13525C11.0825 4.15311 10.8675 3.9849 10.8692 3.65297C10.8708 3.3627 11.0677 3.18557 11.3861 3.18408C11.6963 3.18408 11.8981 3.33443 11.9243 3.65594Z" fill="black"/>
<path d="M18.9152 7.65432C19.2287 7.67069 19.4355 7.8002 19.4355 8.10385C19.4355 8.42835 19.2484 8.61144 18.8808 8.6025C18.5395 8.59506 18.4033 8.39114 18.4 8.11428C18.395 7.8136 18.6002 7.67665 18.9169 7.65283L18.9152 7.65432Z" fill="black"/>
<path d="M17.3281 15.6642C17.6529 15.6866 17.7727 15.8979 17.753 16.2091C17.7318 16.5171 17.5003 16.6482 17.2116 16.6318C16.8619 16.6139 16.6979 16.4026 16.7307 16.078C16.7618 15.7774 16.9588 15.6568 17.3281 15.6628V15.6642Z" fill="black"/>
<path d="M11.3582 17.877C11.8506 17.8473 12.0458 18.0096 12.0672 18.2879C12.0885 18.5588 11.9408 18.7776 11.6093 18.8014C11.2565 18.8282 11.0316 18.6704 11.0185 18.3385C11.0071 18.0422 11.2089 17.9009 11.3566 17.877H11.3582Z" fill="black"/>
<path d="M3.93093 11.0707C3.88006 11.3282 3.75369 11.5306 3.41728 11.5395C3.094 11.5484 2.88394 11.3952 2.86917 11.1093C2.85276 10.7953 3.0382 10.5883 3.40907 10.5913C3.73729 10.5928 3.88334 10.7878 3.93093 11.0707Z" fill="black"/>
<path d="M3.95525 8.72279C3.60899 8.69451 3.39566 8.50398 3.42684 8.20479C3.45309 7.9577 3.65658 7.75824 3.97495 7.77163C4.3327 7.78503 4.49352 7.9845 4.48203 8.30006C4.47055 8.60371 4.27198 8.72279 3.95361 8.72279H3.95525Z" fill="black"/>
<path d="M5.69163 5.36182C5.95912 5.38415 6.19871 5.47941 6.22169 5.78009C6.24302 6.0778 6.12979 6.31 5.75071 6.33531C5.37654 6.36061 5.20916 6.1671 5.19767 5.85451C5.18783 5.57021 5.35685 5.40647 5.69163 5.36182Z" fill="black"/>
<path d="M15.1472 17.7343C15.1341 18.0186 14.993 18.2181 14.6631 18.227C14.3038 18.236 14.097 18.0499 14.1068 17.7239C14.1167 17.4336 14.3086 17.2759 14.6369 17.2804C14.9602 17.2848 15.1455 17.4247 15.1455 17.7328L15.1472 17.7343Z" fill="black"/>
<path d="M8.84739 4.2101C8.82606 4.50334 8.6997 4.69238 8.36493 4.7147C8.03835 4.73703 7.83979 4.60455 7.81353 4.30834C7.78564 3.99278 7.92349 3.77694 8.30913 3.77396C8.6357 3.77098 8.78996 3.95407 8.84739 4.2101Z" fill="black"/>
<path d="M20.082 10.8993C20.0442 11.2327 19.8818 11.4054 19.5568 11.4009C19.2467 11.3964 19.0366 11.2594 19.0366 10.9573C19.0366 10.6299 19.2319 10.4542 19.5913 10.4617C19.9294 10.4676 20.0393 10.6834 20.082 10.8993Z" fill="black"/>
<path d="M6.05739 7.49815C6.01637 7.78245 5.84406 7.95065 5.51913 7.92832C5.23851 7.90897 5.07112 7.74375 5.08753 7.48623C5.10394 7.19598 5.32549 7.02777 5.62252 7.04861C5.87032 7.06648 6.06395 7.22574 6.05903 7.49815H6.05739Z" fill="black"/>
<path d="M5.07417 12.3136C4.99212 12.5235 4.90022 12.7319 4.59499 12.7364C4.25037 12.7423 4.09611 12.5592 4.10431 12.2704C4.11252 11.9965 4.31765 11.876 4.59663 11.879C4.89037 11.882 5.02494 12.0606 5.07417 12.3121V12.3136Z" fill="black"/>
<path d="M18.3819 10.1325C18.1013 10.1073 17.8748 9.9822 17.883 9.69044C17.8895 9.45081 18.0733 9.28559 18.3425 9.26624C18.6724 9.24242 18.8365 9.42554 18.8431 9.70532C18.8479 9.95842 18.6904 10.1073 18.3819 10.1325Z" fill="black"/>
<path d="M15.4442 15.8306C15.6837 15.8856 15.902 15.966 15.9135 16.2369C15.925 16.5302 15.7559 16.6954 15.4359 16.7088C15.1471 16.7206 14.9716 16.5494 14.9469 16.3173C14.9174 16.03 15.1471 15.8931 15.4442 15.8306Z" fill="black"/>
<path d="M8.07759 16.365C8.02671 16.6031 7.91676 16.7966 7.60496 16.7787C7.2866 16.7594 7.08146 16.5763 7.10773 16.304C7.12906 16.0717 7.33747 15.9273 7.63286 15.9333C7.95287 15.9393 8.0464 16.1224 8.07923 16.365H8.07759Z" fill="black"/>
<path d="M10.1505 16.8491C10.3966 16.8893 10.633 16.9667 10.6477 17.2376C10.6658 17.5383 10.4508 17.6946 10.1439 17.6931C9.87149 17.6931 9.6943 17.5487 9.6844 17.2778C9.67459 16.9906 9.8945 16.9116 10.1505 16.8491Z" fill="black"/>
<path d="M8.03159 5.68657C7.98564 5.96045 7.80677 6.14354 7.50973 6.15693C7.24225 6.16884 7.06173 6.01999 7.04368 5.75504C7.02562 5.49604 7.15199 5.32932 7.43589 5.28764C7.77066 5.24001 7.91343 5.44691 8.03159 5.68657Z" fill="black"/>
<path d="M12.756 5.13007C12.4705 5.10626 12.2982 4.97974 12.3096 4.70882C12.3195 4.44387 12.5033 4.29353 12.7757 4.29949C13.0777 4.30693 13.3025 4.45429 13.2663 4.76539C13.2368 5.02736 13.035 5.13305 12.756 5.13007Z" fill="black"/>
<path d="M17.8859 14.4645C17.8384 14.7443 17.6693 14.9333 17.3723 14.9408C17.1196 14.9482 16.908 14.8277 16.8948 14.5509C16.8833 14.2948 17.0097 14.1237 17.2919 14.0894C17.6054 14.0507 17.7891 14.2055 17.8844 14.4645H17.8859Z" fill="black"/>
<path d="M17.3446 6.98C17.5332 6.98893 17.7319 7.08718 17.7565 7.36106C17.7778 7.6156 17.6678 7.80761 17.3692 7.84037C17.0311 7.87906 16.8424 7.66174 16.808 7.41465C16.7751 7.17797 16.9573 7.00084 17.3462 6.97852L17.3446 6.98Z" fill="black"/>
<path d="M13.4228 17.2272C13.3933 17.4862 13.2554 17.6395 12.9666 17.6574C12.691 17.6738 12.4825 17.5904 12.4513 17.3165C12.4234 17.0635 12.5596 16.8744 12.8337 16.8372C13.1487 16.794 13.3211 16.9831 13.4212 17.2272H13.4228Z" fill="black"/>
<path d="M18.8806 12.2045C18.8313 12.4561 18.6935 12.6228 18.3998 12.6153C18.0666 12.6064 17.9107 12.4234 17.9419 12.1346C17.9698 11.8741 18.1716 11.7416 18.4457 11.7654C18.7198 11.7878 18.8625 11.9604 18.8806 12.2045Z" fill="black"/>
<path d="M4.52316 9.38721C4.84481 9.3976 4.99742 9.54352 4.99578 9.80992C4.99414 10.0749 4.83496 10.2327 4.54122 10.2342C4.2409 10.2356 4.09813 10.057 4.08828 9.80551C4.07844 9.53454 4.25566 9.40508 4.52152 9.38721H4.52316Z" fill="black"/>
<path d="M6.14756 14.5492C6.10326 14.8826 5.92931 15.0091 5.64869 15.0091C5.35658 15.0091 5.20068 14.8677 5.20068 14.6012C5.20068 14.3482 5.33361 14.1681 5.62243 14.1576C5.95393 14.1458 6.0491 14.3899 6.14756 14.5492Z" fill="black"/>
<path d="M15.8495 5.65391C15.7789 5.91589 15.628 6.06176 15.3424 6.06473C15.0421 6.0692 14.8976 5.92035 14.896 5.66135C14.896 5.41575 15.0093 5.2267 15.3128 5.22224C15.6378 5.21777 15.7707 5.42319 15.8495 5.65242V5.65391Z" fill="black"/>
<path d="M10.0319 4.33154C10.3486 4.3494 10.5127 4.48338 10.5045 4.75428C10.4963 5.01924 10.3207 5.17553 10.0417 5.1666C9.73812 5.15618 9.51823 4.99245 9.5412 4.69623C9.5609 4.43128 9.79064 4.34345 10.0319 4.33303V4.33154Z" fill="black"/>
<path d="M54.2304 9.52808C53.871 8.62008 53.1375 7.99193 52.0249 7.84456C50.9253 7.69869 50.0375 7.99342 49.3761 8.89992C49.3761 8.77637 49.3549 8.64985 49.3794 8.53077C49.4927 7.97406 49.2548 7.75377 48.6377 7.85051C48.4785 7.87582 48.3062 7.87582 48.1471 7.85051C47.466 7.74186 47.3462 8.03658 47.3528 8.59328C47.384 11.0448 47.3692 13.498 47.3708 15.951C47.3708 17.1641 47.3725 17.1329 48.682 17.1701C49.2728 17.1865 49.4189 17.0213 49.3942 16.5092C49.3483 15.567 49.3811 14.6203 49.3811 13.6751C50.3739 15.2246 53.2507 15.0743 54.127 13.2106C54.6998 11.9945 54.7096 10.7457 54.2271 9.52658L54.2304 9.52808ZM50.9336 13.288C49.9998 13.2925 49.3581 12.4976 49.3352 11.3024C49.3335 11.1804 49.3597 11.0568 49.3713 10.9347C49.4714 9.84511 50.0162 9.26312 50.9253 9.27651C51.8394 9.28842 52.4335 9.96717 52.4745 11.0434C52.4778 11.1178 52.4745 11.1922 52.4745 11.2667C52.4778 12.4664 51.8525 13.2851 50.9319 13.2895L50.9336 13.288Z" fill="black"/>
<path d="M31.3183 7.97578C28.9569 7.25831 26.9056 8.46103 26.474 10.8322C26.2377 12.1302 26.9926 13.7155 28.1364 14.3154C29.4032 14.9807 31.5546 14.8571 32.6361 14.0489C32.9775 13.7944 33.2269 13.4713 33.3746 13.0903C33.4271 12.9563 33.4993 12.7152 33.2942 12.7331C32.6459 12.7896 31.9764 12.2716 31.3315 12.9489C30.5339 13.787 29.0242 13.4401 28.6041 12.4101C28.4284 11.9769 28.4317 11.6986 29.0898 11.7358C29.7413 11.773 30.3994 11.7432 31.0541 11.7432V11.7358C31.7369 11.7358 32.4178 11.7313 33.1005 11.7387C33.3253 11.7417 33.537 11.7879 33.5535 11.4797C33.629 9.9689 33.03 8.49527 31.3183 7.97578ZM31.1887 10.6105C30.808 10.5926 30.424 10.606 30.0416 10.606V10.603C29.7692 10.603 29.4935 10.6208 29.2227 10.5971C28.9947 10.5777 28.6828 10.731 28.5565 10.4899C28.4334 10.2562 28.6074 10.0032 28.7665 9.80818C29.1489 9.34073 29.6609 9.07728 30.319 9.18594C30.913 9.28418 31.3594 9.55508 31.5596 10.1237C31.6875 10.4854 31.6285 10.6313 31.1887 10.609V10.6105Z" fill="black"/>
<path d="M65.5142 7.81024C62.7408 7.67776 61.2902 9.74534 61.7479 12.0555C62.2288 14.4877 65.245 15.5833 67.5458 14.2257C67.9938 13.9608 68.3089 13.5961 68.5419 13.1674C68.6158 13.0334 68.6732 12.8756 68.5583 12.7536C68.3581 12.5392 66.8746 12.6628 66.6301 12.8995C65.739 13.7583 64.2129 13.4651 63.7796 12.3651C63.6122 11.9409 63.6254 11.7072 64.2276 11.7339C64.8824 11.7622 65.5388 11.7399 66.1936 11.7399V11.7444C66.9042 11.7444 67.6147 11.7399 68.3237 11.7473C68.5633 11.7503 68.7388 11.7414 68.752 11.4497C68.8357 9.6962 67.8871 7.92337 65.5142 7.81024ZM66.2297 10.6131C65.9081 10.5819 65.5798 10.6086 65.2549 10.6086C64.93 10.6086 64.6018 10.5834 64.2801 10.6146C63.6237 10.6801 63.5893 10.4077 63.8403 9.98197C64.1456 9.46397 64.6461 9.17372 65.2795 9.16776C65.8785 9.16181 66.3987 9.39845 66.676 9.90755C66.8878 10.2946 66.9944 10.6875 66.2297 10.6146V10.6131Z" fill="black"/>
</g>
<defs>
<clipPath id="clip0_627_8318">
<rect width="68.75" height="20.7865" fill="white" transform="translate(0.5 0.994141)"/>
</clipPath>
</defs>
</svg>
