<svg width="70" height="22" viewBox="0 0 70 22" fill="none" xmlns="http://www.w3.org/2000/svg">
<g id="Investors3.0b125568bc5b72747ea2e6656cc712b6 1" clip-path="url(#clip0_1052_4126)">
<path id="Vector" d="M58.2002 7.81055C59.4015 7.82245 60.501 8.05913 61.0984 9.18593C61.3347 9.62948 61.2822 9.88408 60.6421 9.84683C60.0513 9.81257 59.4065 10.0388 59.0208 9.3556C58.9092 9.15765 58.5235 9.09811 58.2035 9.1249C57.7128 9.16658 57.1517 9.13235 57.0909 9.73816C57.0351 10.3083 57.5718 10.3916 58.0214 10.4795C58.7632 10.6223 59.523 10.7057 60.2286 10.9662C61.571 11.4649 61.8844 12.9593 60.8571 13.8926C59.674 14.9688 56.8415 15.0537 55.6271 14.046C55.3005 13.775 55.0232 13.4698 54.933 13.0635C54.9083 12.9533 54.8296 12.8313 54.9674 12.7271C55.2906 12.48 56.7052 12.6184 56.9679 12.9296C57.4339 13.4833 58.0575 13.5354 58.7254 13.3538C59.0618 13.263 59.3982 13.1156 59.3785 12.7033C59.3605 12.3297 59.0356 12.2002 58.732 12.1198C58.2118 11.9829 57.6719 11.9039 57.1401 11.7998C55.5746 11.4946 54.9444 10.862 55.0412 9.69201C55.1249 8.6724 56.1177 7.92963 57.5143 7.8418C57.7325 7.82841 57.9508 7.82097 58.2002 7.81055Z" fill="white"/>
<path id="Vector_2" d="M34.1048 11.209C34.131 9.82463 34.6414 8.64577 36.1298 8.09948C37.5395 7.58297 38.9541 7.6172 40.1718 8.61748C40.2719 8.69935 40.3654 8.79015 40.4474 8.88691C40.7888 9.29029 41.1958 9.87676 40.9167 10.2207C40.6164 10.5912 39.8567 10.3277 39.2971 10.3501C39.0722 10.359 39.0805 10.1774 39.0213 10.0465C38.7752 9.50909 38.3485 9.25755 37.6856 9.26499C37.0012 9.27243 36.6222 9.62524 36.3825 10.1164C36.0117 10.8756 36.0445 11.666 36.3825 12.4236C36.609 12.9297 37.0325 13.2691 37.6806 13.2914C38.3305 13.3138 38.7555 13.0339 39.0197 12.5025C39.1625 12.2137 40.6706 12.0113 40.9152 12.2316C41.0562 12.3596 40.9742 12.5114 40.943 12.6498C40.7724 13.3897 40.3391 13.9731 39.6088 14.3423C37.0734 15.6254 34.2377 14.1994 34.1064 11.5811C34.0998 11.4575 34.1064 11.334 34.1064 11.2105L34.1048 11.209Z" fill="white"/>
<path id="Vector_3" d="M43.5837 10.1389C43.5837 11.4264 43.564 12.714 43.5935 14.0001C43.6034 14.4659 43.4902 14.6401 42.9223 14.6297C41.5241 14.6044 41.5241 14.6356 41.5241 13.3406C41.5241 11.0141 41.5422 8.68755 41.511 6.361C41.5045 5.80876 41.6161 5.50808 42.302 5.61674C42.4874 5.64652 42.686 5.63758 42.8747 5.61526C43.4475 5.54827 43.6198 5.75815 43.6034 6.27914C43.5623 7.56521 43.5903 8.85277 43.5903 10.1404H43.5853L43.5837 10.1389Z" fill="white"/>
<path id="Vector_4" d="M46.4632 11.2843C46.4632 12.1743 46.4319 13.066 46.4746 13.9561C46.4977 14.4563 46.3663 14.6409 45.769 14.626C44.4512 14.5962 44.4512 14.626 44.4512 13.4128C44.4512 11.7799 44.4709 10.147 44.4414 8.51411C44.4331 8.02736 44.5284 7.82046 45.1404 7.83684C46.4615 7.87255 46.4632 7.83832 46.4648 9.05741C46.4648 9.80018 46.4648 10.5414 46.4648 11.2843H46.4632Z" fill="white"/>
<path id="Vector_5" d="M44.4074 5.93053C44.4172 5.48398 44.7881 5.18776 45.4167 5.1446C46.0403 5.10143 46.5769 5.53012 46.5785 6.04664C46.5802 6.53338 45.9976 7.08711 45.4626 7.01715C44.9014 6.94421 44.4156 6.71498 44.4058 5.93053H44.4074Z" fill="white"/>
<path id="Vector_6" d="M11.4863 20.9907C10.9611 20.8969 10.6625 20.6349 10.6936 20.175C10.7248 19.7181 11.0678 19.4248 11.5454 19.4576C12.0015 19.4888 12.3528 19.7716 12.3134 20.2524C12.274 20.7168 11.9163 20.9148 11.4863 20.9907Z" fill="white"/>
<path id="Vector_7" d="M15.3312 3.22868C14.8126 3.16468 14.509 2.90269 14.5287 2.45019C14.5484 2.00214 14.8701 1.69849 15.3657 1.72975C15.835 1.75803 16.1813 2.04829 16.1599 2.50824C16.1386 2.95926 15.8104 3.19891 15.3312 3.22868Z" fill="white"/>
<path id="Vector_8" d="M12.269 1.7963C12.2148 2.2622 11.9062 2.55842 11.4319 2.54205C10.9725 2.52568 10.6197 2.24881 10.6459 1.771C10.6722 1.31402 10.9873 1.0327 11.478 1.03716C11.9818 1.04312 12.2262 1.36315 12.269 1.7963Z" fill="white"/>
<path id="Vector_9" d="M16.2025 19.4272C16.1992 19.9765 15.8513 20.2548 15.3934 20.2563C14.9306 20.2593 14.5794 19.975 14.586 19.4897C14.591 19.0432 14.9044 18.7767 15.3491 18.7633C15.8332 18.7484 16.1598 19.0104 16.2025 19.4257V19.4272Z" fill="white"/>
<path id="Vector_10" d="M6.76141 19.4818C6.86972 19.0457 7.14706 18.751 7.65086 18.7837C8.14317 18.815 8.43857 19.0993 8.41066 19.5696C8.38277 20.0401 8.04307 20.2976 7.5606 20.2678C7.08141 20.2395 6.81064 19.9239 6.75977 19.4818H6.76141Z" fill="white"/>
<path id="Vector_11" d="M8.36989 2.56579C8.29932 3.02426 7.96783 3.2773 7.49193 3.23711C7.01767 3.19692 6.7075 2.89922 6.75838 2.42736C6.80761 1.96592 7.167 1.69948 7.63306 1.75158C8.06958 1.8007 8.43061 2.0597 8.36989 2.56579Z" fill="white"/>
<path id="Vector_12" d="M1.35258 10.296C1.89413 10.3153 2.14521 10.6458 2.12387 11.061C2.10254 11.4808 1.78746 11.8128 1.27545 11.7711C0.794626 11.7339 0.481185 11.4466 0.500877 10.9836C0.522211 10.5178 0.835652 10.29 1.35094 10.296H1.35258Z" fill="white"/>
<path id="Vector_13" d="M21.5934 11.7112C21.1355 11.7037 20.8352 11.4268 20.8188 10.9892C20.8041 10.5412 21.1322 10.2346 21.6262 10.2286C22.1202 10.2226 22.4467 10.5337 22.4615 10.9684C22.4779 11.409 22.1826 11.6888 21.5918 11.7112H21.5934Z" fill="white"/>
<path id="Vector_14" d="M18.6134 18.2231C18.1736 18.2126 17.8684 17.973 17.8716 17.4996C17.8749 17.0308 18.1933 16.7777 18.6971 16.7614C19.2009 16.745 19.4585 17.0575 19.4716 17.4535C19.4864 17.8822 19.2567 18.2156 18.6134 18.2231Z" fill="white"/>
<path id="Vector_15" d="M5.12054 17.4786C5.08608 18.0471 4.76936 18.2615 4.26228 18.2496C3.76667 18.2377 3.50247 17.9534 3.50739 17.5321C3.51067 17.0841 3.78801 16.767 4.31478 16.7849C4.82187 16.8013 5.07623 17.1019 5.12054 17.4786Z" fill="white"/>
<path id="Vector_16" d="M4.33755 5.26097C3.71887 5.20739 3.45302 4.91415 3.47763 4.46462C3.49897 4.05081 3.77467 3.77246 4.27027 3.77841C4.79047 3.78288 5.09243 4.04486 5.08751 4.51225C5.08259 4.98113 4.72812 5.18655 4.33755 5.26097Z" fill="white"/>
<path id="Vector_17" d="M18.4752 3.74917C19.148 3.74172 19.4171 4.02603 19.4401 4.47556C19.4615 4.90276 19.1727 5.20642 18.7164 5.2228C18.1929 5.24215 17.8598 4.9757 17.8484 4.45025C17.8385 3.97096 18.1782 3.82508 18.4736 3.74917H18.4752Z" fill="white"/>
<path id="Vector_18" d="M2.90997 7.51669C2.823 7.98856 2.51776 8.24905 2.01396 8.22374C1.5479 8.20141 1.24595 7.92454 1.26236 7.49735C1.27877 7.04781 1.58401 6.75309 2.09929 6.765C2.61295 6.7769 2.85746 7.088 2.90997 7.51669Z" fill="white"/>
<path id="Vector_19" d="M20.9287 6.73147C21.3897 6.77613 21.6867 7.05596 21.6589 7.49507C21.631 7.93865 21.2896 8.2051 20.7792 8.17235C20.3099 8.14109 20.0179 7.85232 20.0376 7.44595C20.0572 7.01727 20.3444 6.72849 20.9287 6.73147Z" fill="white"/>
<path id="Vector_20" d="M21.6933 14.5426C21.6046 14.9743 21.329 15.2526 20.8202 15.2363C20.341 15.2214 20.067 14.9191 20.0587 14.5173C20.0506 14.0662 20.3755 13.7701 20.8744 13.7745C21.3699 13.779 21.6555 14.0662 21.6949 14.5441L21.6933 14.5426Z" fill="white"/>
<path id="Vector_21" d="M2.13384 15.2651C1.57752 15.2933 1.28869 14.9688 1.27392 14.5595C1.25915 14.1338 1.58244 13.8331 2.10757 13.8301C2.60317 13.8256 2.892 14.1234 2.91826 14.5074C2.94615 14.9361 2.65076 15.2323 2.13384 15.2666V15.2651Z" fill="white"/>
<path id="Vector_22" d="M18.8247 7.05703C18.3504 7.04662 18.1255 6.80101 18.1207 6.40357C18.1157 6.03443 18.3537 5.78584 18.7574 5.76054C19.212 5.73375 19.4959 6.01805 19.5156 6.38571C19.5352 6.75338 19.2841 7.02726 18.823 7.05703H18.8247Z" fill="white"/>
<path id="Vector_23" d="M20.9108 9.30152C20.8074 9.66622 20.6318 9.97435 20.1641 9.94459C19.7243 9.91773 19.4815 9.67212 19.5028 9.25984C19.5225 8.88176 19.7538 8.68379 20.1756 8.67783C20.6466 8.67188 20.8337 8.93534 20.9108 9.30152Z" fill="white"/>
<path id="Vector_24" d="M20.9647 12.4816C20.8778 12.8657 20.6431 13.1083 20.1918 13.077C19.8029 13.0488 19.5173 12.8553 19.5256 12.4712C19.5337 12.0708 19.7963 11.8237 20.241 11.8282C20.6825 11.8327 20.9155 12.0842 20.9647 12.4816Z" fill="white"/>
<path id="Vector_25" d="M9.58416 3.73955C9.16898 3.66959 8.88507 3.4865 8.90969 3.06079C8.93103 2.67229 9.24118 2.46092 9.59565 2.4639C9.98453 2.46687 10.3456 2.69312 10.3292 3.10098C10.3128 3.48353 10.0273 3.70978 9.5858 3.73955H9.58416Z" fill="white"/>
<path id="Vector_26" d="M3.44313 9.54399C3.38405 9.93095 3.13954 10.1707 2.70137 10.1632C2.26813 10.1558 1.98916 9.93095 1.99572 9.51722C2.00228 9.12869 2.29603 8.94857 2.68168 8.92922C3.1264 8.90689 3.3742 9.13762 3.44313 9.54399Z" fill="white"/>
<path id="Vector_27" d="M17.2512 17.6256C17.2119 18.0528 16.9197 18.2999 16.5226 18.2984C16.114 18.2984 15.8382 18.0364 15.8563 17.6181C15.8727 17.2371 16.109 17.0317 16.516 17.0183C16.9771 17.0019 17.1856 17.2579 17.2495 17.6256H17.2512Z" fill="white"/>
<path id="Vector_28" d="M6.61371 18.4416C6.25268 18.3926 5.94417 18.2124 5.94581 17.7987C5.94581 17.4474 6.12468 17.1899 6.56612 17.1571C7.03054 17.1229 7.29639 17.3208 7.32429 17.7302C7.35218 18.1306 7.10931 18.3717 6.61371 18.4416Z" fill="white"/>
<path id="Vector_29" d="M2.75089 12.0425C3.1989 12.0961 3.46476 12.303 3.45163 12.7168C3.43849 13.0874 3.21367 13.3003 2.79028 13.3166C2.32094 13.3345 2.05016 13.0681 2.04688 12.7064C2.04524 12.3536 2.30945 12.0768 2.75089 12.041V12.0425Z" fill="white"/>
<path id="Vector_30" d="M4.81699 15.5317C4.81699 15.9916 4.57084 16.2446 4.13595 16.2372C3.70928 16.2298 3.42866 15.9604 3.44343 15.5659C3.45656 15.222 3.67154 14.9601 4.09985 14.9496C4.56263 14.9378 4.78253 15.1745 4.81535 15.5302L4.81699 15.5317Z" fill="white"/>
<path id="Vector_31" d="M19.6813 15.3991C19.5812 15.7786 19.3794 16.0361 18.9116 16.0064C18.4439 15.9766 18.2454 15.7236 18.2684 15.3231C18.2913 14.9406 18.5523 14.7515 18.9593 14.759C19.4122 14.7679 19.6173 15.0314 19.6797 15.3976L19.6813 15.3991Z" fill="white"/>
<path id="Vector_32" d="M17.0148 4.2493C16.9639 4.60506 16.7621 4.84769 16.2895 4.84471C15.8529 4.84174 15.6462 4.61548 15.6232 4.25526C15.597 3.84146 15.8874 3.58692 16.2994 3.57204C16.7211 3.55566 16.987 3.80871 17.0148 4.2493Z" fill="white"/>
<path id="Vector_33" d="M7.09301 4.43605C7.06512 4.77542 6.82881 4.98829 6.37096 4.97638C5.94593 4.96446 5.73751 4.73226 5.7211 4.37055C5.7014 3.95079 6.01157 3.70965 6.4087 3.70518C6.8124 3.69923 7.10123 3.94335 7.09301 4.43605Z" fill="white"/>
<path id="Vector_34" d="M13.1927 3.68258C12.6709 3.68258 12.3968 3.46376 12.3984 3.06336C12.4001 2.72099 12.5937 2.44265 13.0335 2.42925C13.4947 2.41585 13.7539 2.65252 13.7638 3.05145C13.772 3.41018 13.5439 3.6409 13.1927 3.68258Z" fill="white"/>
<path id="Vector_35" d="M4.67256 6.62825C4.64958 6.94233 4.53471 7.21026 4.06701 7.2311C3.59274 7.25194 3.31212 7.02569 3.29079 6.64165C3.26945 6.25464 3.52382 5.99266 4.00137 5.99415C4.43788 5.99415 4.64465 6.20998 4.6742 6.62825H4.67256Z" fill="white"/>
<path id="Vector_36" d="M13.3686 19.5533C12.9994 19.4923 12.6761 19.351 12.6416 18.9773C12.6072 18.5829 12.8336 18.306 13.2932 18.2837C13.6936 18.2643 13.966 18.4355 14.0136 18.83C14.0661 19.2661 13.7789 19.4477 13.3686 19.5548V19.5533Z" fill="white"/>
<path id="Vector_37" d="M10.5606 18.9109C10.5278 19.3039 10.3292 19.5659 9.86485 19.5703C9.4447 19.5747 9.21168 19.35 9.18871 18.9808C9.16408 18.5655 9.40861 18.3378 9.86806 18.3229C10.3046 18.308 10.4885 18.5566 10.5606 18.9109Z" fill="white"/>
<path id="Vector_38" d="M8.62727 17.3086C8.78481 17.3056 8.9522 17.4634 8.97846 17.7507C9.008 18.0796 8.77989 18.2925 8.4763 18.3178C8.15629 18.3446 7.91014 18.1184 7.90357 17.8192C7.89537 17.5215 8.08572 17.316 8.62727 17.3086Z" fill="white"/>
<path id="Vector_39" d="M14.4845 4.68684C14.1678 4.68089 13.9905 4.54544 13.9691 4.24625C13.9446 3.91133 14.1694 3.71634 14.4746 3.68805C14.8061 3.65829 15.0523 3.89794 15.0506 4.18373C15.0506 4.45613 14.8701 4.69875 14.4845 4.68684Z" fill="white"/>
<path id="Vector_40" d="M6.35313 16.2456C6.32523 16.585 6.10041 16.7174 5.7525 16.7115C5.40788 16.7055 5.26675 16.4868 5.25855 16.2263C5.25035 15.9419 5.44563 15.7707 5.77219 15.7648C6.12831 15.7588 6.33508 15.9107 6.35313 16.2456Z" fill="white"/>
<path id="Vector_41" d="M17.7256 5.76117C17.6386 6.07972 17.4515 6.27471 17.1069 6.24494C16.777 6.21517 16.567 6.04399 16.5965 5.71056C16.6228 5.40393 16.8656 5.29676 17.1479 5.28931C17.5007 5.28038 17.6468 5.5111 17.7272 5.76117H17.7256Z" fill="white"/>
<path id="Vector_42" d="M19.5453 13.7406C19.4649 13.9847 19.3566 14.2169 19.0333 14.2273C18.6904 14.2377 18.4721 14.0814 18.4507 13.751C18.431 13.4503 18.6034 13.2955 18.9234 13.2761C19.2844 13.2539 19.4567 13.4488 19.5453 13.7406Z" fill="white"/>
<path id="Vector_43" d="M4.56401 13.8744C4.52791 14.1095 4.42944 14.3269 4.08974 14.3417C3.74184 14.3566 3.50717 14.2078 3.4924 13.8863C3.47764 13.5647 3.6959 13.392 4.0438 13.3906C4.36872 13.3891 4.51478 13.5796 4.56237 13.8744H4.56401Z" fill="white"/>
<path id="Vector_44" d="M11.9243 3.65643C11.9079 3.91692 11.78 4.11936 11.4435 4.13574C11.0825 4.1536 10.8675 3.98539 10.8692 3.65346C10.8708 3.36319 11.0677 3.18606 11.3861 3.18457C11.6963 3.18457 11.8981 3.33491 11.9243 3.65643Z" fill="white"/>
<path id="Vector_45" d="M18.9152 7.65383C19.2287 7.6702 19.4355 7.79971 19.4355 8.10336C19.4355 8.42786 19.2484 8.61095 18.8808 8.60201C18.5395 8.59457 18.4033 8.39065 18.4 8.11379C18.395 7.81311 18.6002 7.67617 18.9169 7.65234L18.9152 7.65383Z" fill="white"/>
<path id="Vector_46" d="M17.3281 15.6647C17.6529 15.6871 17.7727 15.8984 17.753 16.2096C17.7318 16.5176 17.5003 16.6487 17.2116 16.6323C16.8619 16.6144 16.6979 16.403 16.7307 16.0785C16.7618 15.7779 16.9588 15.6573 17.3281 15.6633V15.6647Z" fill="white"/>
<path id="Vector_47" d="M11.3582 17.8775C11.8506 17.8478 12.0458 18.0101 12.0672 18.2883C12.0885 18.5593 11.9408 18.7781 11.6093 18.8019C11.2565 18.8287 11.0316 18.6709 11.0185 18.339C11.0071 18.0427 11.2089 17.9014 11.3566 17.8775H11.3582Z" fill="white"/>
<path id="Vector_48" d="M3.93093 11.0702C3.88006 11.3277 3.75369 11.5302 3.41728 11.5391C3.094 11.5479 2.88394 11.3947 2.86917 11.1089C2.85276 10.7948 3.0382 10.5879 3.40907 10.5909C3.73729 10.5923 3.88334 10.7873 3.93093 11.0702Z" fill="white"/>
<path id="Vector_49" d="M3.95525 8.72328C3.60899 8.695 3.39566 8.50447 3.42684 8.20528C3.45309 7.95819 3.65658 7.75873 3.97495 7.77212C4.3327 7.78552 4.49352 7.98498 4.48203 8.30055C4.47055 8.6042 4.27198 8.72328 3.95361 8.72328H3.95525Z" fill="white"/>
<path id="Vector_50" d="M5.69163 5.3623C5.95912 5.38464 6.19871 5.4799 6.22169 5.78058C6.24302 6.07828 6.12979 6.31049 5.75071 6.3358C5.37654 6.3611 5.20916 6.16759 5.19767 5.855C5.18783 5.5707 5.35685 5.40696 5.69163 5.3623Z" fill="white"/>
<path id="Vector_51" d="M15.1472 17.7343C15.1341 18.0186 14.993 18.2181 14.6631 18.227C14.3038 18.236 14.097 18.0499 14.1068 17.7239C14.1167 17.4336 14.3086 17.2759 14.6369 17.2804C14.9602 17.2848 15.1455 17.4247 15.1455 17.7328L15.1472 17.7343Z" fill="white"/>
<path id="Vector_52" d="M8.84739 4.20961C8.82606 4.50285 8.6997 4.69189 8.36493 4.71421C8.03835 4.73655 7.83979 4.60406 7.81353 4.30785C7.78564 3.99229 7.92349 3.77645 8.30913 3.77347C8.6357 3.7705 8.78996 3.95358 8.84739 4.20961Z" fill="white"/>
<path id="Vector_53" d="M20.082 10.8988C20.0442 11.2322 19.8818 11.4049 19.5568 11.4004C19.2467 11.3959 19.0366 11.259 19.0366 10.9568C19.0366 10.6294 19.2319 10.4537 19.5913 10.4612C19.9294 10.4671 20.0393 10.6829 20.082 10.8988Z" fill="white"/>
<path id="Vector_54" d="M6.05739 7.49815C6.01637 7.78245 5.84406 7.95065 5.51913 7.92832C5.23851 7.90897 5.07112 7.74375 5.08753 7.48623C5.10394 7.19598 5.32549 7.02777 5.62252 7.04861C5.87032 7.06648 6.06395 7.22574 6.05903 7.49815H6.05739Z" fill="white"/>
<path id="Vector_55" d="M5.07417 12.3136C4.99212 12.5235 4.90022 12.7319 4.59499 12.7364C4.25037 12.7423 4.09611 12.5592 4.10431 12.2704C4.11252 11.9965 4.31765 11.876 4.59663 11.879C4.89037 11.882 5.02494 12.0606 5.07417 12.3121V12.3136Z" fill="white"/>
<path id="Vector_56" d="M18.3819 10.133C18.1013 10.1077 17.8748 9.98269 17.883 9.69093C17.8895 9.4513 18.0733 9.28607 18.3425 9.26673C18.6724 9.24291 18.8365 9.42602 18.8431 9.70581C18.8479 9.95891 18.6904 10.1077 18.3819 10.133Z" fill="white"/>
<path id="Vector_57" d="M15.4442 15.8311C15.6837 15.8861 15.902 15.9665 15.9135 16.2374C15.925 16.5306 15.7559 16.6959 15.4359 16.7092C15.1471 16.7211 14.9716 16.5499 14.9469 16.3178C14.9174 16.0305 15.1471 15.8936 15.4442 15.8311Z" fill="white"/>
<path id="Vector_58" d="M8.07759 16.3645C8.02671 16.6026 7.91676 16.7961 7.60496 16.7782C7.2866 16.7589 7.08146 16.5758 7.10773 16.3035C7.12906 16.0712 7.33747 15.9268 7.63286 15.9328C7.95287 15.9388 8.0464 16.1219 8.07923 16.3645H8.07759Z" fill="white"/>
<path id="Vector_59" d="M10.1505 16.8486C10.3966 16.8888 10.633 16.9662 10.6477 17.2371C10.6658 17.5378 10.4508 17.6941 10.1439 17.6926C9.87149 17.6926 9.6943 17.5482 9.6844 17.2773C9.67459 16.9901 9.8945 16.9112 10.1505 16.8486Z" fill="white"/>
<path id="Vector_60" d="M8.03159 5.68705C7.98564 5.96094 7.80677 6.14402 7.50973 6.15742C7.24225 6.16933 7.06173 6.02048 7.04368 5.75552C7.02562 5.49652 7.15199 5.32981 7.43589 5.28813C7.77066 5.2405 7.91343 5.4474 8.03159 5.68705Z" fill="white"/>
<path id="Vector_61" d="M12.756 5.12959C12.4705 5.10577 12.2982 4.97925 12.3096 4.70833C12.3195 4.44338 12.5033 4.29305 12.7757 4.299C13.0777 4.30644 13.3025 4.4538 13.2663 4.7649C13.2368 5.02688 13.035 5.13256 12.756 5.12959Z" fill="white"/>
<path id="Vector_62" d="M17.8859 14.464C17.8384 14.7439 17.6693 14.9329 17.3723 14.9403C17.1196 14.9477 16.908 14.8272 16.8948 14.5504C16.8833 14.2943 17.0097 14.1232 17.2919 14.0889C17.6054 14.0502 17.7891 14.205 17.8844 14.464H17.8859Z" fill="white"/>
<path id="Vector_63" d="M17.3446 6.98C17.5332 6.98893 17.7319 7.08718 17.7565 7.36106C17.7778 7.6156 17.6678 7.80761 17.3692 7.84037C17.0311 7.87906 16.8424 7.66174 16.808 7.41465C16.7751 7.17797 16.9573 7.00084 17.3462 6.97852L17.3446 6.98Z" fill="white"/>
<path id="Vector_64" d="M13.4228 17.2272C13.3933 17.4862 13.2554 17.6395 12.9666 17.6574C12.691 17.6738 12.4825 17.5904 12.4513 17.3165C12.4234 17.0635 12.5596 16.8744 12.8337 16.8372C13.1487 16.794 13.3211 16.9831 13.4212 17.2272H13.4228Z" fill="white"/>
<path id="Vector_65" d="M18.8806 12.2045C18.8313 12.4561 18.6935 12.6228 18.3998 12.6153C18.0666 12.6064 17.9107 12.4234 17.9419 12.1346C17.9698 11.8741 18.1716 11.7416 18.4457 11.7654C18.7198 11.7878 18.8625 11.9604 18.8806 12.2045Z" fill="white"/>
<path id="Vector_66" d="M4.52316 9.38672C4.84481 9.39711 4.99742 9.54303 4.99578 9.80943C4.99414 10.0744 4.83496 10.2322 4.54122 10.2337C4.2409 10.2351 4.09813 10.0565 4.08828 9.80503C4.07844 9.53405 4.25566 9.4046 4.52152 9.38672H4.52316Z" fill="white"/>
<path id="Vector_67" d="M6.14756 14.5492C6.10326 14.8826 5.92931 15.0091 5.64869 15.0091C5.35658 15.0091 5.20068 14.8677 5.20068 14.6012C5.20068 14.3482 5.33361 14.1681 5.62243 14.1576C5.95393 14.1458 6.0491 14.3899 6.14756 14.5492Z" fill="white"/>
<path id="Vector_68" d="M15.8495 5.6544C15.7789 5.91637 15.628 6.06225 15.3424 6.06522C15.0421 6.06969 14.8976 5.92084 14.896 5.66184C14.896 5.41623 15.0093 5.22719 15.3128 5.22273C15.6378 5.21826 15.7707 5.42367 15.8495 5.65291V5.6544Z" fill="white"/>
<path id="Vector_69" d="M10.0319 4.33203C10.3486 4.34989 10.5127 4.48386 10.5045 4.75477C10.4963 5.01972 10.3207 5.17602 10.0417 5.16708C9.73812 5.15667 9.51823 4.99293 9.5412 4.69672C9.5609 4.43177 9.79064 4.34394 10.0319 4.33352V4.33203Z" fill="white"/>
<path id="Vector_70" d="M54.2304 9.52857C53.871 8.62057 53.1375 7.99242 52.0249 7.84505C50.9253 7.69918 50.0375 7.99391 49.3761 8.90041C49.3761 8.77686 49.3549 8.65034 49.3794 8.53125C49.4927 7.97455 49.2548 7.75425 48.6377 7.851C48.4785 7.87631 48.3062 7.87631 48.1471 7.851C47.466 7.74235 47.3462 8.03707 47.3528 8.59377C47.384 11.0453 47.3692 13.4985 47.3708 15.9515C47.3708 17.1646 47.3725 17.1334 48.682 17.1706C49.2728 17.187 49.4189 17.0218 49.3942 16.5097C49.3483 15.5675 49.3811 14.6208 49.3811 13.6756C50.3739 15.2251 53.2507 15.0747 54.127 13.2111C54.6998 11.995 54.7096 10.7462 54.2271 9.52707L54.2304 9.52857ZM50.9336 13.2885C49.9998 13.293 49.3581 12.4981 49.3352 11.3029C49.3335 11.1808 49.3597 11.0573 49.3713 10.9352C49.4714 9.8456 50.0162 9.2636 50.9253 9.277C51.8394 9.28891 52.4335 9.96766 52.4745 11.0439C52.4778 11.1183 52.4745 11.1927 52.4745 11.2672C52.4778 12.4669 51.8525 13.2856 50.9319 13.29L50.9336 13.2885Z" fill="white"/>
<path id="Vector_71" d="M31.3183 7.97578C28.9569 7.25831 26.9056 8.46103 26.474 10.8322C26.2377 12.1302 26.9926 13.7155 28.1364 14.3154C29.4032 14.9807 31.5546 14.8571 32.6361 14.0489C32.9775 13.7944 33.2269 13.4713 33.3746 13.0903C33.4271 12.9563 33.4993 12.7152 33.2942 12.7331C32.6459 12.7896 31.9764 12.2716 31.3315 12.9489C30.5339 13.787 29.0242 13.4401 28.6041 12.4101C28.4284 11.9769 28.4317 11.6986 29.0898 11.7358C29.7413 11.773 30.3994 11.7432 31.0541 11.7432V11.7358C31.7369 11.7358 32.4178 11.7313 33.1005 11.7387C33.3253 11.7417 33.537 11.7879 33.5535 11.4797C33.629 9.9689 33.03 8.49527 31.3183 7.97578ZM31.1887 10.6105C30.808 10.5926 30.424 10.606 30.0416 10.606V10.603C29.7692 10.603 29.4935 10.6208 29.2227 10.5971C28.9947 10.5777 28.6828 10.731 28.5565 10.4899C28.4334 10.2562 28.6074 10.0032 28.7665 9.80818C29.1489 9.34073 29.6609 9.07728 30.319 9.18594C30.913 9.28418 31.3594 9.55508 31.5596 10.1237C31.6875 10.4854 31.6285 10.6313 31.1887 10.609V10.6105Z" fill="white"/>
<path id="Vector_72" d="M65.5142 7.81072C62.7408 7.67825 61.2902 9.74583 61.7479 12.056C62.2288 14.4882 65.245 15.5838 67.5458 14.2262C67.9938 13.9612 68.3089 13.5966 68.5419 13.1679C68.6158 13.0339 68.6732 12.8761 68.5583 12.754C68.3581 12.5397 66.8746 12.6633 66.6301 12.9C65.739 13.7588 64.2129 13.4656 63.7796 12.3656C63.6122 11.9414 63.6254 11.7077 64.2276 11.7344C64.8824 11.7627 65.5388 11.7404 66.1936 11.7404V11.7449C66.9042 11.7449 67.6147 11.7404 68.3237 11.7478C68.5633 11.7508 68.7388 11.7419 68.752 11.4502C68.8357 9.69669 67.8871 7.92385 65.5142 7.81072ZM66.2297 10.6136C65.9081 10.5824 65.5798 10.6091 65.2549 10.6091C64.93 10.6091 64.6018 10.5839 64.2801 10.6151C63.6237 10.6806 63.5893 10.4082 63.8403 9.98246C64.1456 9.46446 64.6461 9.1742 65.2795 9.16825C65.8785 9.1623 66.3987 9.39894 66.676 9.90804C66.8878 10.2951 66.9944 10.688 66.2297 10.6151V10.6136Z" fill="white"/>
</g>
<defs>
<clipPath id="clip0_1052_4126">
<rect width="68.75" height="20.7865" fill="white" transform="translate(0.5 0.994141)"/>
</clipPath>
</defs>
</svg>
