<svg width="20" height="20" viewBox="0 0 20 20" fill="none" xmlns="http://www.w3.org/2000/svg">
<path d="M18.25 5.74997H14.9613C14.9978 5.71903 15.0353 5.68903 15.0709 5.65622C15.3557 5.40326 15.5851 5.09427 15.745 4.74858C15.9049 4.40289 15.9917 4.02793 16 3.64715C16.0123 3.2306 15.9394 2.81592 15.7856 2.42858C15.6319 2.04124 15.4006 1.68941 15.106 1.39468C14.8113 1.09996 14.4596 0.868569 14.0723 0.71471C13.685 0.560852 13.2703 0.487775 12.8538 0.499966C12.4728 0.508171 12.0977 0.594921 11.7518 0.754785C11.406 0.914649 11.0968 1.14419 10.8438 1.42903C10.4936 1.83487 10.2089 2.29288 10 2.78653C9.7911 2.29288 9.50642 1.83487 9.15625 1.42903C8.90318 1.14419 8.59405 0.914649 8.24818 0.754785C7.90232 0.594921 7.52718 0.508171 7.14625 0.499966C6.72969 0.487775 6.31503 0.560852 5.92774 0.71471C5.54044 0.868569 5.18868 1.09996 4.89405 1.39468C4.59941 1.68941 4.36812 2.04124 4.21438 2.42858C4.06064 2.81592 3.98768 3.2306 4 3.64715C4.00833 4.02793 4.09514 4.40289 4.255 4.74858C4.41486 5.09427 4.64434 5.40326 4.92906 5.65622C4.96469 5.68715 5.00219 5.71715 5.03875 5.74997H1.75C1.35218 5.74997 0.970644 5.908 0.68934 6.18931C0.408035 6.47061 0.25 6.85214 0.25 7.24997V10.25C0.25 10.6478 0.408035 11.0293 0.68934 11.3106C0.970644 11.5919 1.35218 11.75 1.75 11.75V17.75C1.75 18.1478 1.90804 18.5293 2.18934 18.8106C2.47064 19.0919 2.85218 19.25 3.25 19.25H16.75C17.1478 19.25 17.5294 19.0919 17.8107 18.8106C18.092 18.5293 18.25 18.1478 18.25 17.75V11.75C18.6478 11.75 19.0294 11.5919 19.3107 11.3106C19.592 11.0293 19.75 10.6478 19.75 10.25V7.24997C19.75 6.85214 19.592 6.47061 19.3107 6.18931C19.0294 5.908 18.6478 5.74997 18.25 5.74997ZM11.9688 2.42278C12.0875 2.29164 12.2321 2.18647 12.3934 2.11387C12.5547 2.04127 12.7293 2.00281 12.9062 2.0009H12.9522C13.1595 2.0022 13.3645 2.04487 13.5552 2.12641C13.7458 2.20795 13.9183 2.32672 14.0624 2.47576C14.2066 2.6248 14.3195 2.80112 14.3947 2.99438C14.4698 3.18763 14.5056 3.39394 14.5 3.60122C14.4981 3.77812 14.4596 3.95272 14.387 4.11405C14.3144 4.27538 14.2093 4.41997 14.0781 4.53872C13.1884 5.32622 11.7119 5.60372 10.7969 5.70122C10.9094 4.7084 11.2188 3.26559 11.9688 2.42278ZM5.96031 2.45653C6.25088 2.16599 6.64441 2.00191 7.05531 1.99997H7.10125C7.27815 2.00187 7.45275 2.04034 7.61409 2.11293C7.77542 2.18553 7.92 2.2907 8.03875 2.42184C8.82531 3.31059 9.10281 4.78434 9.20031 5.69559C8.28906 5.60184 6.81531 5.32059 5.92656 4.53403C5.79543 4.41528 5.69026 4.2707 5.61766 4.10936C5.54506 3.94803 5.5066 3.77343 5.50469 3.59653C5.49887 3.38581 5.53593 3.17611 5.61361 2.98014C5.69128 2.78418 5.80796 2.60604 5.95656 2.45653H5.96031ZM1.75 7.24997H9.25V10.25H1.75V7.24997ZM3.25 11.75H9.25V17.75H3.25V11.75ZM16.75 17.75H10.75V11.75H16.75V17.75ZM18.25 10.25H10.75V7.24997H18.25V10.25Z" fill="#1DEDE1"/>
</svg>
