<svg width="27" height="27" viewBox="0 0 27 27" fill="none" xmlns="http://www.w3.org/2000/svg">
<path d="M13.1298 2.55835C11.6929 2.55835 10.2702 2.84136 8.94268 3.39122C7.61521 3.94108 6.40903 4.74702 5.39303 5.76302C3.34111 7.81494 2.18835 10.5979 2.18835 13.4998C2.18835 18.3359 5.32855 22.4389 9.67229 23.8941C10.2194 23.9817 10.3944 23.6425 10.3944 23.3471V21.498C7.36365 22.1545 6.71811 20.0318 6.71811 20.0318C6.2148 18.7626 5.50361 18.4234 5.50361 18.4234C4.50794 17.7451 5.5802 17.7669 5.5802 17.7669C6.67434 17.8435 7.25424 18.8939 7.25424 18.8939C8.20614 20.557 9.81453 20.0646 10.4382 19.802C10.5367 19.0909 10.8211 18.6094 11.1275 18.3359C8.69851 18.0624 6.14915 17.1214 6.14915 12.9527C6.14915 11.7382 6.56493 10.7644 7.27612 9.98758C7.16671 9.71405 6.78376 8.57614 7.38554 7.09904C7.38554 7.09904 8.30462 6.80363 10.3944 8.21507C11.2588 7.97436 12.1998 7.854 13.1298 7.854C14.0598 7.854 15.0008 7.97436 15.8651 8.21507C17.955 6.80363 18.874 7.09904 18.874 7.09904C19.4758 8.57614 19.0929 9.71405 18.9835 9.98758C19.6946 10.7644 20.1104 11.7382 20.1104 12.9527C20.1104 17.1323 17.5501 18.0514 15.1102 18.325C15.5041 18.6641 15.8651 19.3316 15.8651 20.3491V23.3471C15.8651 23.6425 16.0402 23.9926 16.5982 23.8941C20.942 22.428 24.0712 18.3359 24.0712 13.4998C24.0712 12.0629 23.7882 10.6402 23.2384 9.31268C22.6885 7.9852 21.8826 6.77903 20.8665 5.76302C19.8505 4.74702 18.6444 3.94108 17.3169 3.39122C15.9894 2.84136 14.5666 2.55835 13.1298 2.55835V2.55835Z" fill="black"/>
</svg>
