<svg width="41" height="40" viewBox="0 0 41 40" fill="none" xmlns="http://www.w3.org/2000/svg">
<path fill-rule="evenodd" clip-rule="evenodd" d="M19.8508 11.7926L21.5945 10.0488C22.9982 8.64281 25.4634 7.66844 27.9112 7.31749C28.9964 7.14842 30.1 7.13374 31.1893 7.2739C32.1549 7.41776 32.7456 7.70114 33.0202 7.97797C33.2971 8.25262 33.5804 8.84335 33.7243 9.80899C33.8638 10.7398 33.8529 11.8798 33.6807 13.0874C33.3319 15.5353 32.3554 18.0006 30.9496 19.4044L21.2589 29.0979L18.761 26.5999C18.6598 26.4986 18.5397 26.4182 18.4074 26.3633C18.2752 26.3084 18.1334 26.2801 17.9902 26.28C17.847 26.2799 17.7052 26.308 17.5728 26.3627C17.4405 26.4174 17.3202 26.4976 17.2189 26.5988C17.0143 26.8032 16.8992 27.0805 16.899 27.3697C16.8989 27.5129 16.927 27.6547 16.9817 27.7871C17.0364 27.9194 17.1166 28.0397 17.2178 28.141L20.4873 31.4107C20.5885 31.5122 20.7088 31.5927 20.8412 31.6477C20.9736 31.7026 21.1155 31.7309 21.2589 31.7309C21.4022 31.7309 21.5442 31.7026 21.6766 31.6477C21.809 31.5927 21.9292 31.5122 22.0305 31.4107L23.2227 30.2162L25.7729 34.469C25.858 34.6113 25.9744 34.7325 26.1133 34.8231C26.2522 34.9137 26.41 34.9713 26.5746 34.9917C26.7392 35.0121 26.9063 34.9947 27.0631 34.9407C27.2199 34.8868 27.3624 34.7977 27.4796 34.6804L31.8389 30.3208C31.9586 30.2009 32.0487 30.0547 32.102 29.8939C32.1554 29.7331 32.1705 29.5621 32.1462 29.3944L31.1327 22.3057L32.4928 20.9477C34.3564 19.0818 35.4527 16.0977 35.8385 13.3947C36.0347 12.028 36.0565 10.67 35.8799 9.4842C35.7056 8.33328 35.3219 7.19543 34.5634 6.43468C33.8027 5.67611 32.665 5.29029 31.5119 5.11809C30.2138 4.94718 28.8979 4.96186 27.6038 5.16168C24.8989 5.54315 21.9128 6.63958 20.0514 8.5033L18.6934 9.86349L11.6052 8.84989C11.4376 8.82558 11.2665 8.84071 11.1057 8.89406C10.9449 8.94741 10.7988 9.03752 10.6789 9.15724L6.31959 13.5168C6.20226 13.634 6.11322 13.7765 6.05927 13.9333C6.00532 14.0902 5.98788 14.2573 6.00827 14.4219C6.02866 14.5865 6.08635 14.7443 6.17693 14.8832C6.26752 15.0221 6.38863 15.1385 6.53102 15.2236L10.7813 17.7739L9.58906 18.9663C9.48757 19.0675 9.40704 19.1878 9.3521 19.3202C9.29716 19.4526 9.26888 19.5946 9.26888 19.7379C9.26888 19.8813 9.29716 20.0232 9.3521 20.1557C9.40704 20.2881 9.48757 20.4083 9.58906 20.5096L12.8585 23.7793C12.9599 23.8806 13.0801 23.961 13.2125 24.0158C13.3449 24.0707 13.4868 24.0989 13.6301 24.0989C13.7734 24.0989 13.9153 24.0707 14.0477 24.0158C14.1801 23.961 14.3004 23.8806 14.4017 23.7793C14.503 23.6779 14.5834 23.5576 14.6383 23.4252C14.6931 23.2928 14.7213 23.1509 14.7213 23.0076C14.7213 22.8643 14.6931 22.7224 14.6383 22.59C14.5834 22.4576 14.503 22.3373 14.4017 22.236L11.9017 19.7401L13.3119 18.332L19.8508 11.7926ZM26.9238 32.1518L24.8095 28.6271L29.2059 24.2327L29.9121 29.1633L26.926 32.1497L26.9238 32.1518ZM12.3725 16.1871L16.7666 11.7926L11.8363 11.0863L8.85016 14.0727L12.3725 16.1871ZM10.0402 25.9612C10.1416 25.86 10.222 25.7399 10.2769 25.6076C10.3318 25.4753 10.3601 25.3336 10.3602 25.1904C10.3603 25.0472 10.3322 24.9053 10.2775 24.773C10.2228 24.6406 10.1425 24.5204 10.0413 24.419C9.94015 24.3177 9.82 24.2373 9.68774 24.1824C9.55548 24.1275 9.41371 24.0992 9.27051 24.0991C9.12731 24.099 8.9855 24.1271 8.85316 24.1818C8.72083 24.2365 8.60056 24.3168 8.49923 24.4179L6.31959 26.5977C6.11524 26.8024 6.00055 27.0798 6.00076 27.3691C6.00096 27.6583 6.11604 27.9356 6.32068 28.1399C6.52532 28.3443 6.80275 28.459 7.09195 28.4588C7.38115 28.4586 7.65843 28.3435 7.86278 28.1388L10.0424 25.9591L10.0402 25.9612ZM13.3097 29.2309C13.4138 29.1304 13.4968 29.0101 13.5539 28.8771C13.6111 28.7442 13.6411 28.6012 13.6424 28.4564C13.6436 28.3117 13.6161 28.1682 13.5613 28.0343C13.5065 27.9003 13.4255 27.7786 13.3232 27.6763C13.2209 27.574 13.0992 27.493 12.9653 27.4382C12.8313 27.3834 12.6878 27.3559 12.5431 27.3571C12.3984 27.3584 12.2554 27.3884 12.1225 27.4456C11.9895 27.5027 11.8692 27.5857 11.7687 27.6898L7.40941 32.0494C7.20506 32.254 7.09037 32.5315 7.09058 32.8207C7.09078 33.1099 7.20586 33.3872 7.4105 33.5916C7.61514 33.7959 7.89258 33.9106 8.18178 33.9104C8.47098 33.9102 8.74825 33.7951 8.9526 33.5905L13.3119 29.2309H13.3097ZM16.5792 32.5006C16.6805 32.3994 16.7609 32.2792 16.8158 32.147C16.8707 32.0147 16.899 31.8729 16.8991 31.7297C16.8992 31.5865 16.8711 31.4447 16.8164 31.3124C16.7617 31.18 16.6815 31.0597 16.5803 30.9584C16.4791 30.8571 16.3589 30.7767 16.2267 30.7218C16.0944 30.6669 15.9526 30.6386 15.8094 30.6385C15.6662 30.6384 15.5244 30.6665 15.3921 30.7212C15.2598 30.7759 15.1395 30.8561 15.0382 30.9573L12.8585 33.1371C12.6542 33.3418 12.5395 33.6192 12.5397 33.9084C12.5399 34.1976 12.655 34.4749 12.8596 34.6793C13.0643 34.8837 13.3417 34.9984 13.6309 34.9982C13.9201 34.9979 14.1974 34.8829 14.4017 34.6782L16.5814 32.4984L16.5792 32.5006ZM25.6182 18.1009C26.3402 18.1009 27.0326 17.8141 27.5432 17.3035C28.0537 16.7929 28.3405 16.1004 28.3405 15.3784C28.3405 14.6563 28.0537 13.9638 27.5432 13.4532C27.0326 12.9426 26.3402 12.6558 25.6182 12.6558C24.8961 12.6558 24.2037 12.9426 23.6932 13.4532C23.1826 13.9638 22.8958 14.6563 22.8958 15.3784C22.8958 16.1004 23.1826 16.7929 23.6932 17.3035C24.2037 17.8141 24.8961 18.1009 25.6182 18.1009Z" fill="#46598B"/>
</svg>
