<svg width="146" height="148" viewBox="0 0 146 148" fill="none" xmlns="http://www.w3.org/2000/svg">
<g style="mix-blend-mode:overlay">
<path d="M21.9997 76.0768L19.2324 78.8442C19.1801 78.4091 19.1627 77.9565 19.1279 77.504L21.9649 74.667C21.9649 75.1543 21.9649 75.6243 21.9997 76.0942V76.0768Z" fill="url(#paint0_linear_432_1416)"/>
<path d="M74.3536 128.396H72.8742C58.4455 128.256 44.9219 122.547 34.7574 112.313C26.5423 104.029 21.3208 93.5683 19.6326 82.2377L22.2433 79.627C23.4791 91.1838 28.5439 101.888 36.846 110.242C46.1054 119.571 58.3237 124.932 71.4122 125.419L72.8916 120.076L74.3362 128.396H74.3536Z" fill="url(#paint1_linear_432_1416)"/>
<path d="M70.2288 123.383C58.6545 122.652 47.672 117.848 39.2829 109.842C30.7371 101.679 25.3589 90.6968 24.2102 78.9311L25.1849 78.8267C26.3336 90.3661 31.5725 101.122 39.9617 109.111C47.9331 116.717 58.2542 121.364 69.1845 122.322L70.2288 123.366V123.383Z" fill="url(#paint2_linear_432_1416)"/>
<path d="M125.263 71.4988L128.03 68.7314C128.083 69.1666 128.1 69.6191 128.135 70.0716L125.298 72.9086C125.298 72.4213 125.298 71.9514 125.263 71.4814V71.4988Z" fill="url(#paint3_linear_432_1416)"/>
<path d="M72.9092 19.18H74.3886C88.8173 19.3192 102.341 25.0281 112.505 35.2621C120.72 43.5469 125.942 54.0072 127.63 65.3378L125.02 67.9486C123.784 56.4091 118.719 45.6877 110.417 37.3333C101.157 28.0043 88.9391 22.6436 75.8506 22.1562L74.3712 27.4996L72.9266 19.1626L72.9092 19.18Z" fill="url(#paint4_linear_432_1416)"/>
<path d="M77.0513 24.1924C88.6255 24.9234 99.608 29.7271 107.997 37.7334C116.543 45.8963 121.921 56.8788 123.07 68.6445L122.095 68.749C120.946 57.2095 115.708 46.4533 107.318 38.4644C99.347 30.8585 89.0259 26.2113 78.0956 25.2541L77.0513 24.2098V24.1924Z" fill="url(#paint5_linear_432_1416)"/>
</g>
<g style="mix-blend-mode:overlay">
<path d="M21.9997 76.0768L19.2324 78.8442C19.1801 78.4091 19.1627 77.9565 19.1279 77.504L21.9649 74.667C21.9649 75.1543 21.9649 75.6243 21.9997 76.0942V76.0768Z" fill="url(#paint6_linear_432_1416)"/>
<path d="M74.3536 128.396H72.8742C58.4455 128.256 44.9219 122.547 34.7574 112.313C26.5423 104.029 21.3208 93.5683 19.6326 82.2377L22.2433 79.627C23.4791 91.1838 28.5439 101.888 36.846 110.242C46.1054 119.571 58.3237 124.932 71.4122 125.419L72.8916 120.076L74.3362 128.396H74.3536Z" fill="url(#paint7_linear_432_1416)"/>
<path d="M70.2288 123.383C58.6545 122.652 47.672 117.848 39.2829 109.842C30.7371 101.679 25.3589 90.6968 24.2102 78.9311L25.1849 78.8267C26.3336 90.3661 31.5725 101.122 39.9617 109.111C47.9331 116.717 58.2542 121.364 69.1845 122.322L70.2288 123.366V123.383Z" fill="url(#paint8_linear_432_1416)"/>
<path d="M125.263 71.4988L128.03 68.7314C128.083 69.1666 128.1 69.6191 128.135 70.0716L125.298 72.9086C125.298 72.4213 125.298 71.9514 125.263 71.4814V71.4988Z" fill="url(#paint9_linear_432_1416)"/>
<path d="M72.9092 19.18H74.3886C88.8173 19.3192 102.341 25.0281 112.505 35.2621C120.72 43.5469 125.942 54.0072 127.63 65.3378L125.02 67.9486C123.784 56.4091 118.719 45.6877 110.417 37.3333C101.157 28.0043 88.9391 22.6436 75.8506 22.1562L74.3712 27.4996L72.9266 19.1626L72.9092 19.18Z" fill="url(#paint10_linear_432_1416)"/>
<path d="M77.0513 24.1924C88.6255 24.9234 99.608 29.7271 107.997 37.7334C116.543 45.8963 121.921 56.8788 123.07 68.6445L122.095 68.749C120.946 57.2095 115.708 46.4533 107.318 38.4644C99.347 30.8585 89.0259 26.2113 78.0956 25.2541L77.0513 24.2098V24.1924Z" fill="url(#paint11_linear_432_1416)"/>
</g>
<g style="mix-blend-mode:overlay">
<path d="M73.6402 128.57C43.4427 128.57 18.8669 103.994 18.8669 73.7967C18.8669 43.5992 43.4427 19.0234 73.6402 19.0234C103.838 19.0234 128.414 43.5992 128.414 73.7967C128.414 103.994 103.838 128.57 73.6402 128.57ZM73.6402 19.3715C43.6341 19.3715 19.215 43.7906 19.215 73.7967C19.215 103.803 43.6341 128.222 73.6402 128.222C103.646 128.222 128.065 103.803 128.065 73.7967C128.065 43.7906 103.646 19.3715 73.6402 19.3715Z" fill="url(#paint12_linear_432_1416)"/>
</g>
<g style="mix-blend-mode:overlay">
<path d="M22.5916 72.004L19.772 71.9343L19.7894 71.5688L22.609 71.6559L22.5916 72.004Z" fill="url(#paint13_linear_432_1416)"/>
<path d="M22.783 68.9057L19.9634 68.6446L20.033 67.9136L22.8352 68.2095L22.7656 68.9057H22.783ZM23.2181 65.4769L20.4333 65.0244L20.5552 64.3108L23.3399 64.7981L23.2181 65.4769ZM23.8795 62.083L21.1295 61.439L21.3036 60.7254L24.0535 61.4042L23.8969 62.083H23.8795ZM24.7671 58.7412L22.0694 57.9232L22.2956 57.227L24.976 58.0972L24.7671 58.7586V58.7412ZM25.8811 55.4691L23.2355 54.4596L23.4966 53.7808L26.1247 54.8251L25.8811 55.4691ZM27.2212 52.284L24.6627 51.1004L24.976 50.4391L27.5171 51.6574L27.2212 52.284ZM28.7703 49.2033L26.2988 47.8457L26.6469 47.2017L29.101 48.5941L28.7703 49.2033ZM30.5282 46.2271L28.1437 44.7128L28.544 44.1037L30.8937 45.6527L30.5282 46.2271ZM32.4775 43.3727L30.1975 41.7018L30.6326 41.11L32.8778 42.8157L32.4601 43.3553L32.4775 43.3727ZM34.6183 40.6749L32.4601 38.8474L32.9301 38.2904L35.0534 40.1354L34.6009 40.6575L34.6183 40.6749ZM36.9332 38.1164L34.9142 36.1496L35.4364 35.6275L37.4205 37.629L36.9332 38.1164ZM39.4221 35.7319L37.5424 33.6259L38.0993 33.1386L39.9442 35.262L39.4221 35.7145V35.7319ZM42.0676 33.5215L40.3271 31.2937L40.9015 30.8411L42.6072 33.0864L42.0676 33.5041V33.5215ZM44.8698 31.4851L43.286 29.1528L43.8951 28.7525L45.4442 31.1196L44.8698 31.5025V31.4851ZM47.7939 29.6402L46.3666 27.2035L46.9932 26.838L48.3856 29.2921L47.7939 29.6402ZM50.8397 28.0041L49.5866 25.463L50.248 25.1497L51.4663 27.6908L50.8397 27.9867V28.0041ZM53.99 26.5769L52.9109 23.9662L53.5897 23.6877L54.6166 26.3158L53.9726 26.5769H53.99ZM57.2273 25.376L56.3223 22.6956L57.0185 22.4694L57.8713 25.1671L57.2099 25.376H57.2273ZM60.5342 24.3839L59.8207 21.6513L60.5342 21.4773L61.213 24.2273L60.5517 24.4013L60.5342 24.3839ZM63.8934 23.6355L63.3713 20.8681L64.0849 20.7463L64.5722 23.5311L63.8934 23.6529V23.6355ZM67.3048 23.1133L66.9741 20.3112L67.7051 20.2241L68.001 23.0263L67.3222 23.0959L67.3048 23.1133Z" fill="url(#paint14_linear_432_1416)"/>
<path d="M70.786 22.835L70.6467 20.0154L71.0122 19.998L71.1341 22.8176L70.786 22.835Z" fill="url(#paint15_linear_432_1416)"/>
<path d="M124.656 75.5248L124.644 75.8901L127.461 75.989L127.474 75.6237L124.656 75.5248Z" fill="url(#paint16_linear_432_1416)"/>
<path d="M79.5574 127.317L79.2441 124.514L79.9404 124.427L80.2711 127.23L79.5574 127.317ZM83.1602 126.812L82.6729 124.027L83.3517 123.905L83.8739 126.673L83.1602 126.812ZM86.7283 126.064L86.0321 123.331L86.7109 123.157L87.4244 125.889L86.7283 126.064ZM90.2266 125.071L89.3564 122.391L90.0178 122.165L90.9054 124.845L90.2266 125.071ZM93.6554 123.836L92.5937 121.208L93.2377 120.946L94.2994 123.557L93.638 123.818L93.6554 123.836ZM96.9798 122.374L95.7614 119.815L96.388 119.519L97.6412 122.043L96.9798 122.356V122.374ZM100.217 120.685L98.8247 118.231L99.4339 117.883L100.844 120.32L100.217 120.685ZM103.333 118.788L101.784 116.439L102.358 116.056L103.942 118.388L103.333 118.788ZM106.309 116.682L104.621 114.42C104.795 114.28 104.986 114.141 105.16 114.002L106.901 116.23C106.709 116.386 106.518 116.526 106.309 116.682ZM109.146 114.385L107.301 112.261L107.823 111.809L109.703 113.915L109.146 114.402V114.385ZM111.809 111.896L109.807 109.894L110.295 109.407L112.313 111.374L111.809 111.896ZM114.298 109.233L112.174 107.388L112.627 106.866L114.785 108.693L114.315 109.25L114.298 109.233ZM116.595 106.413L114.332 104.725L114.75 104.168L117.013 105.856L116.578 106.431L116.595 106.413ZM118.684 103.455L116.334 101.888C116.456 101.697 116.578 101.505 116.7 101.314L119.084 102.828C118.945 103.037 118.823 103.246 118.684 103.455ZM120.581 100.339L118.127 98.9467C118.231 98.7552 118.353 98.5463 118.457 98.3549L120.946 99.6951C120.825 99.9039 120.703 100.13 120.581 100.339ZM122.269 97.1017L119.711 95.9008L120.006 95.2742L122.565 96.4578L122.252 97.1017H122.269ZM123.731 93.76L121.103 92.7331L121.347 92.0891L123.992 93.0986L123.731 93.7774V93.76ZM124.967 90.3312L122.269 89.4784L122.478 88.817L125.176 89.635L124.967 90.3312ZM125.959 86.8154L123.209 86.154L123.366 85.4752L126.116 86.1192L125.942 86.8154H125.959ZM126.707 83.2648L123.923 82.7775L124.027 82.0987L126.812 82.5512L126.69 83.2822L126.707 83.2648ZM127.212 79.6446L124.41 79.3661L124.48 78.6699L127.299 78.931L127.23 79.6446H127.212Z" fill="url(#paint17_linear_432_1416)"/>
<path d="M76.4921 124.753L76.127 124.77L76.2588 127.587L76.6239 127.569L76.4921 124.753Z" fill="url(#paint18_linear_432_1416)"/>
</g>
<g style="mix-blend-mode:overlay">
<path d="M27.552 70.3157L24.7324 70.1069C24.9935 66.4866 25.6723 62.8838 26.7514 59.4028L29.4492 60.2383C28.4397 63.5104 27.8131 66.9043 27.552 70.3157Z" fill="url(#paint19_linear_432_1416)"/>
<path d="M30.1625 58.0976L27.4995 57.1403C29.5533 51.4489 32.5992 46.2622 36.5675 41.7021L38.7083 43.5471C34.9836 47.8461 32.1118 52.7369 30.1625 58.0976ZM40.2225 41.8762L38.1861 39.9268C42.3633 35.5582 47.2541 32.0598 52.7366 29.4839L53.9376 32.0424C48.7857 34.4617 44.1734 37.7686 40.2399 41.8762H40.2225Z" fill="url(#paint20_linear_432_1416)"/>
<path d="M56.0088 31.1202L54.9297 28.5094C58.2888 27.1345 61.822 26.125 65.4075 25.5332L65.8774 28.318C62.5008 28.8749 59.1765 29.8322 56.0088 31.1202Z" fill="url(#paint21_linear_432_1416)"/>
<path d="M120.529 88.1556L117.831 87.3201C118.841 84.048 119.467 80.654 119.728 77.2427L122.548 77.4515C122.287 81.0718 121.608 84.6746 120.529 88.1556Z" fill="url(#paint22_linear_432_1416)"/>
<path d="M94.5435 118.092L93.3425 115.534C98.4944 113.114 103.107 109.807 107.058 105.7L109.094 107.649C104.917 112.018 100.026 115.516 94.5435 118.092ZM110.713 105.874L108.589 104.029C112.314 99.73 115.186 94.8392 117.135 89.4785L119.798 90.4358C117.744 96.1272 114.698 101.314 110.73 105.874H110.713Z" fill="url(#paint23_linear_432_1416)"/>
<path d="M81.8552 122.043L81.3853 119.258C84.7618 118.701 88.0861 117.744 91.2538 116.456L92.3155 119.067C88.9564 120.442 85.4232 121.451 81.8378 122.043H81.8552Z" fill="url(#paint24_linear_432_1416)"/>
</g>
<g style="mix-blend-mode:overlay">
<path d="M27.552 70.3157L24.7324 70.1069C24.9935 66.4866 25.6723 62.8838 26.7514 59.4028L29.4492 60.2383C28.4397 63.5104 27.8131 66.9043 27.552 70.3157Z" fill="url(#paint25_linear_432_1416)"/>
<path d="M30.1625 58.0976L27.4995 57.1403C29.5533 51.4489 32.5992 46.2622 36.5675 41.7021L38.7083 43.5471C34.9836 47.8461 32.1118 52.7369 30.1625 58.0976ZM40.2225 41.8762L38.1861 39.9268C42.3633 35.5582 47.2541 32.0598 52.7366 29.4839L53.9376 32.0424C48.7857 34.4617 44.1734 37.7686 40.2399 41.8762H40.2225Z" fill="url(#paint26_linear_432_1416)"/>
<path d="M56.0088 31.1202L54.9297 28.5094C58.2888 27.1345 61.822 26.125 65.4075 25.5332L65.8774 28.318C62.5008 28.8749 59.1765 29.8322 56.0088 31.1202Z" fill="url(#paint27_linear_432_1416)"/>
<path d="M120.529 88.1556L117.831 87.3201C118.841 84.048 119.467 80.654 119.728 77.2427L122.548 77.4515C122.287 81.0718 121.608 84.6746 120.529 88.1556Z" fill="url(#paint28_linear_432_1416)"/>
<path d="M94.5435 118.092L93.3425 115.534C98.4944 113.114 103.107 109.807 107.058 105.7L109.094 107.649C104.917 112.018 100.026 115.516 94.5435 118.092ZM110.713 105.874L108.589 104.029C112.314 99.73 115.186 94.8392 117.135 89.4785L119.798 90.4358C117.744 96.1272 114.698 101.314 110.73 105.874H110.713Z" fill="url(#paint29_linear_432_1416)"/>
<path d="M81.8552 122.043L81.3853 119.258C84.7618 118.701 88.0861 117.744 91.2538 116.456L92.3155 119.067C88.9564 120.442 85.4232 121.451 81.8378 122.043H81.8552Z" fill="url(#paint30_linear_432_1416)"/>
</g>
<g style="mix-blend-mode:overlay">
<path d="M79.9406 138.091L79.6273 134.923H79.8014C80.8283 134.801 81.8551 134.679 82.8472 134.523H83.0213L83.4912 137.638L83.3172 137.673C82.2729 137.83 81.1938 137.969 80.1321 138.073H79.958L79.9406 138.091ZM80.0102 135.271L80.2539 137.725C81.2112 137.621 82.151 137.499 83.0735 137.377L82.708 134.94C81.8203 135.08 80.9153 135.184 79.9928 135.271H80.0102ZM41.5454 129.91L41.3887 129.823C34.3745 125.785 28.248 120.512 23.1658 114.176L23.0613 114.037L25.5328 112.053L25.6373 112.192C30.4584 118.214 36.2891 123.227 42.9552 127.073L43.1118 127.16L41.5279 129.91H41.5454ZM23.5661 114.089C28.5613 120.285 34.566 125.437 41.4235 129.423L42.6593 127.282C36.0628 123.453 30.3018 118.493 25.498 112.54L23.5661 114.089ZM105.822 129.841L104.238 127.091L104.395 127.004C115.447 120.599 124.41 110.678 129.649 99.0688L129.719 98.9121L132.608 100.217L132.538 100.374C127.021 112.592 117.587 123.018 105.978 129.736L105.822 129.823V129.841ZM104.708 127.213L105.944 129.353C117.379 122.687 126.673 112.418 132.138 100.392L129.893 99.3647C124.636 110.922 115.69 120.79 104.708 127.213ZM21.3382 111.74L21.2338 111.6C13.2798 100.583 9.05036 87.5641 9.03296 73.9361V73.762H12.2181V73.9361C12.2355 86.9027 16.256 99.2776 23.8271 109.755L23.9316 109.895L21.3556 111.757L21.3382 111.74ZM9.38105 74.0927C9.45067 87.5293 13.593 100.357 21.4079 111.235L23.4094 109.79C15.9079 99.3298 11.9048 87.0072 11.8526 74.0927H9.38105ZM133.722 97.5545L130.763 96.3884L130.833 96.2318C133.635 89.0957 135.062 81.542 135.062 73.7968V73.3791H138.23V73.7794C138.23 81.9423 136.733 89.879 133.791 97.3979L133.722 97.5545ZM131.215 96.197L133.513 97.102C136.402 89.6701 137.864 81.8379 137.864 73.7794V73.7272H135.393V73.7968C135.393 81.5246 133.983 89.0609 131.198 96.197H131.215ZM16.3082 51.6404L13.3494 50.4916L13.419 50.335C13.8019 49.3429 14.237 48.3334 14.6721 47.3588L14.7418 47.2021L17.6484 48.5075L17.5788 48.6641C17.1611 49.604 16.7607 50.5613 16.3952 51.4837L16.3256 51.6404H16.3082ZM13.8019 50.2828L16.0994 51.1878C16.43 50.3524 16.7781 49.4996 17.1611 48.6641L14.9158 47.6546C14.5329 48.5249 14.1674 49.4125 13.8193 50.2828H13.8019ZM123.47 37.9079L123.366 37.7686C122.774 36.968 122.148 36.15 121.504 35.332L121.399 35.1927L123.871 33.2086L123.975 33.3478C124.654 34.1832 125.298 35.0535 125.924 35.9063L126.029 36.0456L123.453 37.9079H123.47ZM121.904 35.2449C122.478 35.9585 123.035 36.6895 123.557 37.4031L125.559 35.9585C125.002 35.1927 124.428 34.4443 123.836 33.6959L121.904 35.2449ZM42.6245 20.7466L41.0232 17.9967L41.1798 17.9096C48.194 13.8369 55.8174 11.1391 63.8236 9.92078L63.9977 9.88596L64.4676 13.0363L64.2936 13.0711C56.6702 14.2372 49.4298 16.7783 42.7637 20.6596L42.607 20.7466H42.6245ZM41.5105 18.1359L42.7463 20.2767C49.3601 16.4476 56.531 13.9239 64.0673 12.7578L63.7018 10.3211C55.8522 11.5394 48.3855 14.1676 41.5105 18.1533V18.1359ZM104.325 20.5726L104.168 20.4856C94.9088 15.1771 84.344 12.3575 73.6226 12.3575C71.534 12.3575 69.4106 12.4619 67.3394 12.6707H67.1654L66.8521 9.52046H67.0262C69.2018 9.27679 71.4296 9.17236 73.64 9.17236C84.9184 9.17236 96.0402 12.1312 105.77 17.7182L105.926 17.8052L104.342 20.5552L104.325 20.5726ZM73.6226 12.0094C84.3615 12.0094 94.9262 14.8116 104.186 20.0852L105.421 17.9444C95.7791 12.4445 84.7792 9.53787 73.6226 9.53787C71.4818 9.53787 69.341 9.6423 67.2176 9.85115L67.4613 12.3052C69.4977 12.0964 71.5688 12.0094 73.6052 12.0094H73.6226Z" fill="url(#paint31_linear_432_1416)"/>
</g>
<g style="mix-blend-mode:overlay">
<path d="M58.8461 112.94L58.7243 112.888C51.3446 110.069 44.9396 105.265 40.2055 98.9816L41.3368 98.1288C45.8969 104.203 52.093 108.85 59.229 111.565L59.0898 112.262L58.8287 112.923L58.8461 112.94ZM96.3538 108.955L95.5879 107.771C96.4408 107.232 97.2762 106.64 98.0594 106.048L98.9123 107.179C98.0942 107.806 97.224 108.415 96.3538 108.972V108.955ZM38.4302 96.4231C34.0789 89.6351 31.7815 81.8203 31.7815 73.7967C31.7815 68.7144 32.7039 63.7192 34.5315 58.9329L35.8543 59.4376C34.0964 64.0673 33.2087 68.9059 33.2087 73.7967C33.2087 81.5419 35.4365 89.113 39.6311 95.6747L38.4476 96.4405L38.4302 96.4231ZM112.784 88.6083L111.461 88.1035C113.202 83.4912 114.089 78.6875 114.089 73.7967C114.089 66.0167 111.862 58.4455 107.632 51.8665L108.816 51.1006C113.184 57.8886 115.499 65.7382 115.499 73.7793C115.499 78.8441 114.577 83.8219 112.784 88.5909V88.6083ZM105.909 49.395C101.349 43.3381 95.1702 38.7083 88.0516 36.0106L88.243 35.3318L88.539 34.6878C95.9186 37.5074 102.306 42.2938 107.04 48.5595L105.909 49.4124V49.395ZM49.2909 41.5105L48.438 40.3792C49.2734 39.7526 50.1263 39.1609 50.9965 38.5865L51.7624 39.77C50.9095 40.3096 50.0741 40.9014 49.2734 41.4931L49.2909 41.5105Z" fill="url(#paint32_linear_432_1416)"/>
</g>
<g style="mix-blend-mode:overlay">
<path d="M58.8461 112.94L58.7243 112.888C51.3446 110.069 44.9396 105.265 40.2055 98.9816L41.3368 98.1288C45.8969 104.203 52.093 108.85 59.229 111.565L59.0898 112.262L58.8287 112.923L58.8461 112.94ZM96.3538 108.955L95.5879 107.771C96.4408 107.232 97.2762 106.64 98.0594 106.048L98.9123 107.179C98.0942 107.806 97.224 108.415 96.3538 108.972V108.955ZM38.4302 96.4231C34.0789 89.6351 31.7815 81.8203 31.7815 73.7967C31.7815 68.7144 32.7039 63.7192 34.5315 58.9329L35.8543 59.4376C34.0964 64.0673 33.2087 68.9059 33.2087 73.7967C33.2087 81.5419 35.4365 89.113 39.6311 95.6747L38.4476 96.4405L38.4302 96.4231ZM112.784 88.6083L111.461 88.1035C113.202 83.4912 114.089 78.6875 114.089 73.7967C114.089 66.0167 111.862 58.4455 107.632 51.8665L108.816 51.1006C113.184 57.8886 115.499 65.7382 115.499 73.7793C115.499 78.8441 114.577 83.8219 112.784 88.5909V88.6083ZM105.909 49.395C101.349 43.3381 95.1702 38.7083 88.0516 36.0106L88.243 35.3318L88.539 34.6878C95.9186 37.5074 102.306 42.2938 107.04 48.5595L105.909 49.4124V49.395ZM49.2909 41.5105L48.438 40.3792C49.2734 39.7526 50.1263 39.1609 50.9965 38.5865L51.7624 39.77C50.9095 40.3096 50.0741 40.9014 49.2734 41.4931L49.2909 41.5105Z" fill="url(#paint33_linear_432_1416)"/>
</g>
<g style="mix-blend-mode:overlay">
<path d="M43.9824 59.1938H41.946V60.3774H43.9824V59.1938Z" fill="url(#paint34_linear_432_1416)"/>
</g>
<g style="mix-blend-mode:overlay">
<path d="M47.4114 59.1938H45.375V60.3774H47.4114V59.1938Z" fill="url(#paint35_linear_432_1416)"/>
</g>
<g style="mix-blend-mode:overlay">
<path d="M47.4114 61.6479H45.375V62.8315H47.4114V61.6479Z" fill="url(#paint36_linear_432_1416)"/>
</g>
<g style="mix-blend-mode:overlay">
<path d="M44.3303 61.6479H42.2939V62.8315H44.3303V61.6479Z" fill="url(#paint37_linear_432_1416)"/>
</g>
<g style="mix-blend-mode:overlay">
<path d="M39.718 61.6479H37.6816V62.8315H39.718V61.6479Z" fill="url(#paint38_linear_432_1416)"/>
</g>
<g style="mix-blend-mode:overlay">
<path d="M50.8398 59.1938H48.8035V60.3774H50.8398V59.1938Z" fill="url(#paint39_linear_432_1416)"/>
</g>
<g style="mix-blend-mode:overlay">
<path d="M54.2683 59.1938H52.2319V60.3774H54.2683V59.1938Z" fill="url(#paint40_linear_432_1416)"/>
</g>
<g style="mix-blend-mode:overlay">
<path d="M102.236 92.2632H100.2V93.4467H102.236V92.2632Z" fill="url(#paint41_linear_432_1416)"/>
</g>
<g style="mix-blend-mode:overlay">
<path d="M105.665 92.2632H103.629V93.4467H105.665V92.2632Z" fill="url(#paint42_linear_432_1416)"/>
</g>
<g style="mix-blend-mode:overlay">
<path d="M105.665 94.7349H103.629V95.9184H105.665V94.7349Z" fill="url(#paint43_linear_432_1416)"/>
</g>
<g style="mix-blend-mode:overlay">
<path d="M102.585 94.7349H100.548V95.9184H102.585V94.7349Z" fill="url(#paint44_linear_432_1416)"/>
</g>
<g style="mix-blend-mode:overlay">
<path d="M97.9724 94.7349H95.936V95.9184H97.9724V94.7349Z" fill="url(#paint45_linear_432_1416)"/>
</g>
<g style="mix-blend-mode:overlay">
<path d="M109.094 92.2632H107.058V93.4467H109.094V92.2632Z" fill="url(#paint46_linear_432_1416)"/>
</g>
<g style="mix-blend-mode:overlay">
<path d="M112.523 92.2632H110.486V93.4467H112.523V92.2632Z" fill="url(#paint47_linear_432_1416)"/>
</g>
<g style="mix-blend-mode:overlay">
<path d="M73.6402 144.565C65.1814 144.565 56.914 143.086 49.0644 140.179L48.9078 140.127L49.9521 137.308L50.1087 137.36C57.6276 140.145 65.5469 141.554 73.6402 141.554C76.512 141.554 79.4012 141.38 82.2208 141.015H82.3948L82.7777 143.974H82.6037C79.6623 144.374 76.6512 144.548 73.6576 144.548L73.6402 144.565ZM49.3255 139.918C57.0881 142.773 65.2684 144.217 73.6402 144.217C76.5642 144.217 79.5056 144.043 82.3948 143.678L82.0989 141.363C79.3142 141.711 76.4772 141.885 73.6402 141.885C65.5643 141.885 57.6624 140.493 50.1435 137.725L49.3255 139.918ZM89.1305 142.86L88.4692 139.936L88.6258 139.901C94.996 138.456 101.123 136.107 106.831 132.887L106.971 132.8L108.45 135.41L108.311 135.497C102.358 138.857 95.9533 141.311 89.3046 142.825L89.1479 142.86H89.1305ZM88.8695 140.179L89.3916 142.459C95.9011 140.963 102.167 138.561 107.997 135.289L106.849 133.252C101.21 136.403 95.1526 138.735 88.8695 140.179ZM36.9506 134.331L36.8114 134.244C30.9807 130.694 25.707 126.325 21.1295 121.243L21.0251 121.121L23.2529 119.102L23.3574 119.224C27.7434 124.08 32.8082 128.274 38.3778 131.668L38.517 131.755L36.9506 134.314V134.331ZM21.4776 121.138C25.9855 126.099 31.1373 130.38 36.8288 133.861L38.0471 131.86C32.5471 128.483 27.5519 124.341 23.2007 119.555L21.4602 121.121L21.4776 121.138ZM119.345 127.822L117.396 125.542L117.518 125.437C125.82 118.371 132.382 109.32 136.455 99.243L136.524 99.0864L139.309 100.218L139.239 100.374C134.975 110.887 128.135 120.338 119.467 127.717L119.345 127.822ZM117.866 125.577L119.38 127.352C127.909 120.059 134.644 110.748 138.874 100.392L136.716 99.5215C132.625 109.529 126.116 118.528 117.866 125.577ZM16.9001 116.108L16.7957 115.969C10.0078 106.832 5.4825 96.0753 3.70719 84.8666V84.7099L6.64862 84.24V84.3966C8.3717 95.1355 12.6881 105.422 19.1976 114.176L19.302 114.316L16.9001 116.108ZM4.0727 84.9884C5.83059 96.0405 10.2862 106.623 16.9697 115.656L18.8495 114.263C12.3922 105.544 8.09324 95.3095 6.38755 84.6403L4.0727 85.0058V84.9884ZM141.45 94.1086L138.578 93.2557L138.63 93.0991C140.475 86.8507 141.415 80.3587 141.415 73.797V73.623H144.409V73.797C144.409 80.6546 143.434 87.4425 141.502 93.9519L141.45 94.1086ZM138.978 93.0295L141.223 93.6908C143.103 87.3032 144.06 80.672 144.078 73.9537H141.746C141.746 80.4457 140.806 86.8681 138.996 93.0295H138.978ZM5.88281 71.5692L2.88916 71.4648V71.2907C3.13283 64.4332 4.35118 57.6975 6.50939 51.2403L6.5616 51.0836L9.41601 52.0409L9.36379 52.1975C7.29261 58.3763 6.12647 64.8335 5.9002 71.3951V71.5692H5.88281ZM3.21986 71.1515L5.55211 71.2385C5.79578 64.7639 6.94451 58.3763 8.98088 52.2672L6.77045 51.5187C4.66445 57.8367 3.48093 64.4506 3.21986 71.1515ZM140.928 65.7038V65.5297C139.587 54.7386 135.637 44.2957 129.44 35.3322L129.353 35.1929L131.825 33.4872L131.912 33.6265C138.369 42.9903 142.511 53.9032 143.886 65.1816V65.3556L140.928 65.7211V65.7038ZM129.806 35.2799C135.95 44.2087 139.883 54.5994 141.206 65.3382L143.521 65.0598C142.146 53.9554 138.056 43.1992 131.72 33.9572L129.806 35.2799ZM11.6612 46.2973L8.92867 45.0789L8.99829 44.9223C13.628 34.5663 20.7988 25.3591 29.7275 18.2927L29.8668 18.1883L31.7291 20.538L31.5899 20.6424C23.0441 27.4129 16.1691 36.2372 11.7309 46.1406L11.6612 46.2973ZM9.36379 44.9049L11.4872 45.8621C15.9255 36.011 22.7482 27.2389 31.2418 20.4858L29.7972 18.6583C21.0251 25.6376 13.9587 34.723 9.36379 44.9049ZM125.594 30.2847L125.489 30.1629C121.277 25.1503 116.369 20.7991 110.904 17.1962L110.765 17.1092L112.418 14.6029L112.558 14.6899C118.249 18.4494 123.383 23.0095 127.787 28.231L127.891 28.3528L125.594 30.2847ZM111.235 17.0048C116.613 20.5728 121.451 24.8892 125.646 29.8148L127.439 28.318C123.122 23.2183 118.092 18.7453 112.54 15.0554L111.252 17.0048H111.235ZM42.3809 13.6456L41.0059 10.9827L41.1452 10.9131C47.2195 7.78018 53.6941 5.53495 60.4124 4.26439L60.5691 4.22958L61.126 7.171L60.9694 7.20582C54.547 8.42416 48.3334 10.565 42.5376 13.5586L42.3809 13.6282V13.6456ZM41.4585 11.1219L42.5376 13.1931C48.2812 10.2343 54.4077 8.12828 60.7605 6.90993L60.3254 4.61249C53.7637 5.86564 47.4109 8.05866 41.4759 11.1219H41.4585ZM99.5561 11.1567L99.3994 11.0871C91.2191 7.72796 82.5689 6.02228 73.6402 6.02228C71.569 6.02228 69.4804 6.1093 67.4266 6.30076H67.2525L66.9741 3.32452H67.1481C69.2889 3.11566 71.4646 3.01123 73.6054 3.01123C82.9344 3.01123 91.9849 4.78653 100.513 8.30233L100.67 8.37195L99.5213 11.1567H99.5561ZM73.6228 5.69159C82.5515 5.69159 91.2017 7.37987 99.3646 10.7216L100.252 8.5634C91.7935 5.11723 82.8474 3.35933 73.6402 3.35933C71.5342 3.35933 69.4282 3.44635 67.357 3.63781L67.5659 5.97007C69.5674 5.79602 71.6038 5.70899 73.6228 5.70899V5.69159Z" fill="url(#paint48_linear_432_1416)"/>
</g>
<g style="mix-blend-mode:overlay">
<path d="M47.3414 135.428C35.2798 130.276 25.0632 121.747 17.7879 110.765C10.4952 99.7475 6.63135 86.9549 6.63135 73.7794C6.63135 53.1371 16.3955 33.2955 32.7387 20.6943L32.9476 20.9728C16.6914 33.5044 6.97944 53.2415 6.97944 73.7794C6.97944 100.531 22.8701 124.602 47.4807 135.097L47.3414 135.428Z" fill="url(#paint49_linear_432_1416)"/>
</g>
<g style="mix-blend-mode:overlay">
<path d="M114.542 126.865L114.333 126.586C130.589 114.055 140.301 94.3173 140.301 73.7795C140.301 46.419 123.14 21.4081 97.6069 11.5744L97.7288 11.2437C110.382 16.117 121.138 24.628 128.849 35.8542C136.559 47.0978 140.649 60.2037 140.649 73.7795C140.649 94.4218 130.885 114.263 114.542 126.865Z" fill="url(#paint50_linear_432_1416)"/>
</g>
<g style="mix-blend-mode:overlay">
<path d="M137.83 47.5154L137.76 47.3588C127.004 21.2514 101.819 4.36863 73.5706 4.36863C72.4045 4.36863 71.2209 4.40345 70.0722 4.45566H69.8981L69.6719 0.104432H69.8459C71.0643 0.0348122 72.3174 0 73.5532 0C103.559 0 130.345 17.9271 141.763 45.6879L141.833 45.8446L137.795 47.498L137.83 47.5154ZM73.588 4.03794C101.906 4.03794 127.178 20.9207 138.021 47.0803L141.432 45.6705C130.015 18.1359 103.403 0.3481 73.588 0.3481C72.4044 0.3481 71.2209 0.382908 70.0548 0.435123L70.2462 4.12496C71.3428 4.07275 72.4741 4.03794 73.588 4.03794Z" fill="url(#paint51_linear_432_1416)"/>
<path d="M141.276 58.3762L141.241 58.2196C141.015 57.2275 140.771 56.2354 140.493 55.2781C140.232 54.3034 139.936 53.3288 139.623 52.3889L139.57 52.2323L143.713 50.8921L143.765 51.0487C144.096 52.0408 144.409 53.0851 144.687 54.1294C144.983 55.1737 145.244 56.218 145.471 57.2449L145.505 57.4015L141.259 58.3762H141.276ZM139.988 52.4411C140.284 53.3462 140.562 54.2686 140.806 55.1911C141.05 56.0962 141.293 57.036 141.52 57.9759L145.122 57.1405C144.896 56.1658 144.653 55.1737 144.374 54.199C144.096 53.2069 143.817 52.2323 143.504 51.2924L139.988 52.4237V52.4411Z" fill="url(#paint52_linear_432_1416)"/>
<path d="M58.7418 5.96974L57.8193 1.70553L57.976 1.67072C60.082 1.2182 62.2402 0.852697 64.381 0.574219H64.555L65.0946 4.87323H64.9205C62.9016 5.15171 60.8826 5.49981 58.8984 5.91753L58.7418 5.95234V5.96974ZM58.2196 1.96661L59.0029 5.56943C60.8826 5.16912 62.8145 4.83842 64.7291 4.59475L64.2766 0.93972C62.2576 1.20079 60.2386 1.54889 58.2371 1.96661H58.2196Z" fill="url(#paint53_linear_432_1416)"/>
<path d="M52.8417 7.53625L51.5537 3.37647L51.7103 3.32426C53.6075 2.73249 55.522 2.22775 57.4192 1.79262L57.5758 1.75781L58.5331 6.00462L58.3764 6.03943C56.5837 6.43974 54.7736 6.92708 52.9983 7.46663L52.8417 7.51884V7.53625ZM51.9714 3.60274L53.0679 7.11853C54.7388 6.59638 56.4445 6.14386 58.1502 5.76095L57.3495 2.15813C55.5568 2.55844 53.7641 3.04578 51.9888 3.58533L51.9714 3.60274Z" fill="url(#paint54_linear_432_1416)"/>
</g>
<g style="mix-blend-mode:overlay">
<path d="M56.0093 145.244C54.7909 144.948 53.59 144.618 52.4412 144.27C23.7579 135.654 3.32456 110.835 0.365723 81.0375L4.36885 80.6372C7.17104 108.798 26.4905 132.26 53.59 140.406C54.6865 140.736 55.8178 141.05 56.9665 141.328L56.0093 145.227V145.244Z" fill="url(#paint55_linear_432_1416)"/>
<path d="M4.02055 73.7444H0C0 72.6653 0.0174065 71.6036 0.0696213 70.5419C0.121836 69.4802 0.191461 68.4011 0.278485 67.3394L4.28162 67.6875C4.1946 68.6969 4.12498 69.7064 4.09017 70.7159C4.03795 71.7254 4.02055 72.7349 4.02055 73.7444Z" fill="url(#paint56_linear_432_1416)"/>
<path d="M69.8981 147.298C68.0531 147.211 66.1908 147.037 64.3633 146.81L64.868 142.825C66.6085 143.051 68.3664 143.19 70.1069 143.277L69.8981 147.298Z" fill="url(#paint57_linear_432_1416)"/>
<path d="M73.6051 147.385C72.6826 147.385 71.7428 147.385 70.8203 147.333L70.977 143.312C73.0133 143.382 75.0671 143.382 77.1035 143.277L77.3123 147.298C76.0766 147.367 74.8409 147.385 73.6051 147.385Z" fill="url(#paint58_linear_432_1416)"/>
</g>
<defs>
<linearGradient id="paint0_linear_432_1416" x1="19.0449" y1="78.8442" x2="21.9907" y2="78.6813" gradientUnits="userSpaceOnUse">
<stop offset="0.281267" stop-color="#1DEDE1"/>
<stop offset="1" stop-color="#6966FF"/>
</linearGradient>
<linearGradient id="paint1_linear_432_1416" x1="18.051" y1="128.396" x2="73.8989" y2="123.356" gradientUnits="userSpaceOnUse">
<stop offset="0.281267" stop-color="#1DEDE1"/>
<stop offset="1" stop-color="#6966FF"/>
</linearGradient>
<linearGradient id="paint2_linear_432_1416" x1="22.8802" y1="123.383" x2="69.9044" y2="119.478" gradientUnits="userSpaceOnUse">
<stop offset="0.281267" stop-color="#1DEDE1"/>
<stop offset="1" stop-color="#6966FF"/>
</linearGradient>
<linearGradient id="paint3_linear_432_1416" x1="125.18" y1="72.9086" x2="128.126" y2="72.7458" gradientUnits="userSpaceOnUse">
<stop offset="0.281267" stop-color="#1DEDE1"/>
<stop offset="1" stop-color="#6966FF"/>
</linearGradient>
<linearGradient id="paint4_linear_432_1416" x1="71.3276" y1="67.9486" x2="127.176" y2="62.911" gradientUnits="userSpaceOnUse">
<stop offset="0.281267" stop-color="#1DEDE1"/>
<stop offset="1" stop-color="#6966FF"/>
</linearGradient>
<linearGradient id="paint5_linear_432_1416" x1="75.7213" y1="68.749" x2="122.745" y2="64.8433" gradientUnits="userSpaceOnUse">
<stop offset="0.281267" stop-color="#1DEDE1"/>
<stop offset="1" stop-color="#6966FF"/>
</linearGradient>
<linearGradient id="paint6_linear_432_1416" x1="19.0449" y1="78.8442" x2="21.9907" y2="78.6813" gradientUnits="userSpaceOnUse">
<stop offset="0.281267" stop-color="#1DEDE1"/>
<stop offset="1" stop-color="#6966FF"/>
</linearGradient>
<linearGradient id="paint7_linear_432_1416" x1="18.051" y1="128.396" x2="73.8989" y2="123.356" gradientUnits="userSpaceOnUse">
<stop offset="0.281267" stop-color="#1DEDE1"/>
<stop offset="1" stop-color="#6966FF"/>
</linearGradient>
<linearGradient id="paint8_linear_432_1416" x1="22.8802" y1="123.383" x2="69.9044" y2="119.478" gradientUnits="userSpaceOnUse">
<stop offset="0.281267" stop-color="#1DEDE1"/>
<stop offset="1" stop-color="#6966FF"/>
</linearGradient>
<linearGradient id="paint9_linear_432_1416" x1="125.18" y1="72.9086" x2="128.126" y2="72.7458" gradientUnits="userSpaceOnUse">
<stop offset="0.281267" stop-color="#1DEDE1"/>
<stop offset="1" stop-color="#6966FF"/>
</linearGradient>
<linearGradient id="paint10_linear_432_1416" x1="71.3276" y1="67.9486" x2="127.176" y2="62.911" gradientUnits="userSpaceOnUse">
<stop offset="0.281267" stop-color="#1DEDE1"/>
<stop offset="1" stop-color="#6966FF"/>
</linearGradient>
<linearGradient id="paint11_linear_432_1416" x1="75.7213" y1="68.749" x2="122.745" y2="64.8433" gradientUnits="userSpaceOnUse">
<stop offset="0.281267" stop-color="#1DEDE1"/>
<stop offset="1" stop-color="#6966FF"/>
</linearGradient>
<linearGradient id="paint12_linear_432_1416" x1="15.7009" y1="128.57" x2="127.689" y2="119.564" gradientUnits="userSpaceOnUse">
<stop offset="0.281267" stop-color="#1DEDE1"/>
<stop offset="1" stop-color="#6966FF"/>
</linearGradient>
<linearGradient id="paint13_linear_432_1416" x1="19.69" y1="72.004" x2="21.9795" y2="70.8035" gradientUnits="userSpaceOnUse">
<stop offset="0.281267" stop-color="#1DEDE1"/>
<stop offset="1" stop-color="#6966FF"/>
</linearGradient>
<linearGradient id="paint14_linear_432_1416" x1="18.575" y1="68.9057" x2="67.6917" y2="65.0081" gradientUnits="userSpaceOnUse">
<stop offset="0.281267" stop-color="#1DEDE1"/>
<stop offset="1" stop-color="#6966FF"/>
</linearGradient>
<linearGradient id="paint15_linear_432_1416" x1="70.6326" y1="22.835" x2="71.134" y2="22.8281" gradientUnits="userSpaceOnUse">
<stop offset="0.281267" stop-color="#1DEDE1"/>
<stop offset="1" stop-color="#6966FF"/>
</linearGradient>
<linearGradient id="paint16_linear_432_1416" x1="127.461" y1="75.9996" x2="127.47" y2="75.6236" gradientUnits="userSpaceOnUse">
<stop offset="0.281267" stop-color="#1DEDE1"/>
<stop offset="1" stop-color="#6966FF"/>
</linearGradient>
<linearGradient id="paint17_linear_432_1416" x1="77.8553" y1="127.317" x2="126.989" y2="123.413" gradientUnits="userSpaceOnUse">
<stop offset="0.281267" stop-color="#1DEDE1"/>
<stop offset="1" stop-color="#6966FF"/>
</linearGradient>
<linearGradient id="paint18_linear_432_1416" x1="76.2482" y1="127.587" x2="76.6237" y2="127.566" gradientUnits="userSpaceOnUse">
<stop offset="0.281267" stop-color="#1DEDE1"/>
<stop offset="1" stop-color="#6966FF"/>
</linearGradient>
<linearGradient id="paint19_linear_432_1416" x1="24.5961" y1="70.3157" x2="29.4433" y2="70.1472" gradientUnits="userSpaceOnUse">
<stop offset="0.281267" stop-color="#1DEDE1"/>
<stop offset="1" stop-color="#6966FF"/>
</linearGradient>
<linearGradient id="paint20_linear_432_1416" x1="26.7354" y1="58.0976" x2="53.7882" y2="56.0875" gradientUnits="userSpaceOnUse">
<stop offset="0.281267" stop-color="#1DEDE1"/>
<stop offset="1" stop-color="#6966FF"/>
</linearGradient>
<linearGradient id="paint21_linear_432_1416" x1="54.6133" y1="31.1202" x2="65.6045" y2="29.3882" gradientUnits="userSpaceOnUse">
<stop offset="0.281267" stop-color="#1DEDE1"/>
<stop offset="1" stop-color="#6966FF"/>
</linearGradient>
<linearGradient id="paint22_linear_432_1416" x1="117.695" y1="88.1556" x2="122.542" y2="87.9871" gradientUnits="userSpaceOnUse">
<stop offset="0.281267" stop-color="#1DEDE1"/>
<stop offset="1" stop-color="#6966FF"/>
</linearGradient>
<linearGradient id="paint23_linear_432_1416" x1="92.5779" y1="118.092" x2="119.648" y2="116.079" gradientUnits="userSpaceOnUse">
<stop offset="0.281267" stop-color="#1DEDE1"/>
<stop offset="1" stop-color="#6966FF"/>
</linearGradient>
<linearGradient id="paint24_linear_432_1416" x1="81.0693" y1="122.043" x2="92.0439" y2="120.316" gradientUnits="userSpaceOnUse">
<stop offset="0.281267" stop-color="#1DEDE1"/>
<stop offset="1" stop-color="#6966FF"/>
</linearGradient>
<linearGradient id="paint25_linear_432_1416" x1="24.5961" y1="70.3157" x2="29.4433" y2="70.1472" gradientUnits="userSpaceOnUse">
<stop offset="0.281267" stop-color="#1DEDE1"/>
<stop offset="1" stop-color="#6966FF"/>
</linearGradient>
<linearGradient id="paint26_linear_432_1416" x1="26.7354" y1="58.0976" x2="53.7882" y2="56.0875" gradientUnits="userSpaceOnUse">
<stop offset="0.281267" stop-color="#1DEDE1"/>
<stop offset="1" stop-color="#6966FF"/>
</linearGradient>
<linearGradient id="paint27_linear_432_1416" x1="54.6133" y1="31.1202" x2="65.6045" y2="29.3882" gradientUnits="userSpaceOnUse">
<stop offset="0.281267" stop-color="#1DEDE1"/>
<stop offset="1" stop-color="#6966FF"/>
</linearGradient>
<linearGradient id="paint28_linear_432_1416" x1="117.695" y1="88.1556" x2="122.542" y2="87.9871" gradientUnits="userSpaceOnUse">
<stop offset="0.281267" stop-color="#1DEDE1"/>
<stop offset="1" stop-color="#6966FF"/>
</linearGradient>
<linearGradient id="paint29_linear_432_1416" x1="92.5779" y1="118.092" x2="119.648" y2="116.079" gradientUnits="userSpaceOnUse">
<stop offset="0.281267" stop-color="#1DEDE1"/>
<stop offset="1" stop-color="#6966FF"/>
</linearGradient>
<linearGradient id="paint30_linear_432_1416" x1="81.0693" y1="122.043" x2="92.0439" y2="120.316" gradientUnits="userSpaceOnUse">
<stop offset="0.281267" stop-color="#1DEDE1"/>
<stop offset="1" stop-color="#6966FF"/>
</linearGradient>
<linearGradient id="paint31_linear_432_1416" x1="5.29895" y1="138.091" x2="137.372" y2="127.447" gradientUnits="userSpaceOnUse">
<stop offset="0.281267" stop-color="#1DEDE1"/>
<stop offset="1" stop-color="#6966FF"/>
</linearGradient>
<linearGradient id="paint32_linear_432_1416" x1="29.3619" y1="112.94" x2="114.867" y2="105.586" gradientUnits="userSpaceOnUse">
<stop offset="0.281267" stop-color="#1DEDE1"/>
<stop offset="1" stop-color="#6966FF"/>
</linearGradient>
<linearGradient id="paint33_linear_432_1416" x1="29.3619" y1="112.94" x2="114.867" y2="105.586" gradientUnits="userSpaceOnUse">
<stop offset="0.281267" stop-color="#1DEDE1"/>
<stop offset="1" stop-color="#6966FF"/>
</linearGradient>
<linearGradient id="paint34_linear_432_1416" x1="41.8872" y1="60.3774" x2="43.9431" y2="60.0929" gradientUnits="userSpaceOnUse">
<stop offset="0.281267" stop-color="#1DEDE1"/>
<stop offset="1" stop-color="#6966FF"/>
</linearGradient>
<linearGradient id="paint35_linear_432_1416" x1="45.3161" y1="60.3774" x2="47.372" y2="60.0929" gradientUnits="userSpaceOnUse">
<stop offset="0.281267" stop-color="#1DEDE1"/>
<stop offset="1" stop-color="#6966FF"/>
</linearGradient>
<linearGradient id="paint36_linear_432_1416" x1="45.3161" y1="62.8315" x2="47.372" y2="62.547" gradientUnits="userSpaceOnUse">
<stop offset="0.281267" stop-color="#1DEDE1"/>
<stop offset="1" stop-color="#6966FF"/>
</linearGradient>
<linearGradient id="paint37_linear_432_1416" x1="42.2351" y1="62.8315" x2="44.291" y2="62.547" gradientUnits="userSpaceOnUse">
<stop offset="0.281267" stop-color="#1DEDE1"/>
<stop offset="1" stop-color="#6966FF"/>
</linearGradient>
<linearGradient id="paint38_linear_432_1416" x1="37.6228" y1="62.8315" x2="39.6787" y2="62.547" gradientUnits="userSpaceOnUse">
<stop offset="0.281267" stop-color="#1DEDE1"/>
<stop offset="1" stop-color="#6966FF"/>
</linearGradient>
<linearGradient id="paint39_linear_432_1416" x1="48.7446" y1="60.3774" x2="50.8005" y2="60.0929" gradientUnits="userSpaceOnUse">
<stop offset="0.281267" stop-color="#1DEDE1"/>
<stop offset="1" stop-color="#6966FF"/>
</linearGradient>
<linearGradient id="paint40_linear_432_1416" x1="52.1731" y1="60.3774" x2="54.2289" y2="60.0929" gradientUnits="userSpaceOnUse">
<stop offset="0.281267" stop-color="#1DEDE1"/>
<stop offset="1" stop-color="#6966FF"/>
</linearGradient>
<linearGradient id="paint41_linear_432_1416" x1="100.141" y1="93.4467" x2="102.197" y2="93.1623" gradientUnits="userSpaceOnUse">
<stop offset="0.281267" stop-color="#1DEDE1"/>
<stop offset="1" stop-color="#6966FF"/>
</linearGradient>
<linearGradient id="paint42_linear_432_1416" x1="103.57" y1="93.4467" x2="105.626" y2="93.1623" gradientUnits="userSpaceOnUse">
<stop offset="0.281267" stop-color="#1DEDE1"/>
<stop offset="1" stop-color="#6966FF"/>
</linearGradient>
<linearGradient id="paint43_linear_432_1416" x1="103.57" y1="95.9184" x2="105.626" y2="95.6339" gradientUnits="userSpaceOnUse">
<stop offset="0.281267" stop-color="#1DEDE1"/>
<stop offset="1" stop-color="#6966FF"/>
</linearGradient>
<linearGradient id="paint44_linear_432_1416" x1="100.489" y1="95.9184" x2="102.545" y2="95.6339" gradientUnits="userSpaceOnUse">
<stop offset="0.281267" stop-color="#1DEDE1"/>
<stop offset="1" stop-color="#6966FF"/>
</linearGradient>
<linearGradient id="paint45_linear_432_1416" x1="95.8772" y1="95.9184" x2="97.933" y2="95.6339" gradientUnits="userSpaceOnUse">
<stop offset="0.281267" stop-color="#1DEDE1"/>
<stop offset="1" stop-color="#6966FF"/>
</linearGradient>
<linearGradient id="paint46_linear_432_1416" x1="106.999" y1="93.4467" x2="109.055" y2="93.1623" gradientUnits="userSpaceOnUse">
<stop offset="0.281267" stop-color="#1DEDE1"/>
<stop offset="1" stop-color="#6966FF"/>
</linearGradient>
<linearGradient id="paint47_linear_432_1416" x1="110.427" y1="93.4467" x2="112.483" y2="93.1622" gradientUnits="userSpaceOnUse">
<stop offset="0.281267" stop-color="#1DEDE1"/>
<stop offset="1" stop-color="#6966FF"/>
</linearGradient>
<linearGradient id="paint48_linear_432_1416" x1="-1.20099" y1="144.565" x2="143.473" y2="132.934" gradientUnits="userSpaceOnUse">
<stop offset="0.281267" stop-color="#1DEDE1"/>
<stop offset="1" stop-color="#6966FF"/>
</linearGradient>
<linearGradient id="paint49_linear_432_1416" x1="5.45073" y1="135.428" x2="47.4463" y2="134.225" gradientUnits="userSpaceOnUse">
<stop offset="0.281267" stop-color="#1DEDE1"/>
<stop offset="1" stop-color="#6966FF"/>
</linearGradient>
<linearGradient id="paint50_linear_432_1416" x1="96.3629" y1="126.865" x2="140.61" y2="125.54" gradientUnits="userSpaceOnUse">
<stop offset="0.281267" stop-color="#1DEDE1"/>
<stop offset="1" stop-color="#6966FF"/>
</linearGradient>
<linearGradient id="paint51_linear_432_1416" x1="67.5863" y1="47.5154" x2="140.742" y2="38.581" gradientUnits="userSpaceOnUse">
<stop offset="0.281267" stop-color="#1DEDE1"/>
<stop offset="1" stop-color="#6966FF"/>
</linearGradient>
<linearGradient id="paint52_linear_432_1416" x1="139.399" y1="58.3762" x2="145.481" y2="57.9883" gradientUnits="userSpaceOnUse">
<stop offset="0.281267" stop-color="#1DEDE1"/>
<stop offset="1" stop-color="#6966FF"/>
</linearGradient>
<linearGradient id="paint53_linear_432_1416" x1="57.6091" y1="5.96974" x2="65.0076" y2="5.16748" gradientUnits="userSpaceOnUse">
<stop offset="0.281267" stop-color="#1DEDE1"/>
<stop offset="1" stop-color="#6966FF"/>
</linearGradient>
<linearGradient id="paint54_linear_432_1416" x1="51.352" y1="7.53625" x2="58.466" y2="6.84527" gradientUnits="userSpaceOnUse">
<stop offset="0.281267" stop-color="#1DEDE1"/>
<stop offset="1" stop-color="#6966FF"/>
</linearGradient>
<linearGradient id="paint55_linear_432_1416" x1="-1.27014" y1="145.244" x2="56.6789" y2="141.162" gradientUnits="userSpaceOnUse">
<stop offset="0.281267" stop-color="#1DEDE1"/>
<stop offset="1" stop-color="#6966FF"/>
</linearGradient>
<linearGradient id="paint56_linear_432_1416" x1="-0.123746" y1="73.7444" x2="4.26893" y2="73.5082" gradientUnits="userSpaceOnUse">
<stop offset="0.281267" stop-color="#1DEDE1"/>
<stop offset="1" stop-color="#6966FF"/>
</linearGradient>
<linearGradient id="paint57_linear_432_1416" x1="64.1973" y1="147.298" x2="70.0446" y2="146.694" gradientUnits="userSpaceOnUse">
<stop offset="0.281267" stop-color="#1DEDE1"/>
<stop offset="1" stop-color="#6966FF"/>
</linearGradient>
<linearGradient id="paint58_linear_432_1416" x1="70.6327" y1="147.385" x2="77.2061" y2="146.549" gradientUnits="userSpaceOnUse">
<stop offset="0.281267" stop-color="#1DEDE1"/>
<stop offset="1" stop-color="#6966FF"/>
</linearGradient>
</defs>
</svg>
