<svg width="50" height="51" viewBox="0 0 50 51" fill="none" xmlns="http://www.w3.org/2000/svg">
<g filter="url(#filter0_d_1084_846)">
<mask id="mask0_1084_846" style="mask-type:alpha" maskUnits="userSpaceOnUse" x="0" y="0" width="50" height="51">
<path d="M24.84 50.3402C38.5588 50.3402 49.68 39.2189 49.68 25.5002C49.68 11.7814 38.5588 0.660156 24.84 0.660156C11.1212 0.660156 0 11.7814 0 25.5002C0 39.2189 11.1212 50.3402 24.84 50.3402Z" fill="#C4C4C4"/>
</mask>
<g mask="url(#mask0_1084_846)">
<path d="M134.55 135.21H0V0.66011H134.55V135.21Z" fill="#6400FF"/>
</g>
<g style="mix-blend-mode:soft-light">
<path d="M24.84 48.6462C37.6233 48.6462 47.9863 38.2833 47.9863 25.4999C47.9863 12.7165 37.6233 2.35352 24.84 2.35352C12.0566 2.35352 1.6936 12.7165 1.6936 25.4999C1.6936 38.2833 12.0566 48.6462 24.84 48.6462Z" fill="url(#paint0_linear_1084_846)"/>
</g>
<g style="mix-blend-mode:multiply" opacity="0.7">
<path d="M24.84 48.6462C37.6233 48.6462 47.9863 38.2833 47.9863 25.4999C47.9863 12.7165 37.6233 2.35352 24.84 2.35352C12.0566 2.35352 1.6936 12.7165 1.6936 25.4999C1.6936 38.2833 12.0566 48.6462 24.84 48.6462Z" fill="url(#paint1_linear_1084_846)"/>
</g>
<mask id="mask1_1084_846" style="mask-type:luminance" maskUnits="userSpaceOnUse" x="3" y="4" width="44" height="43">
<path d="M46.1046 4.42383H3.57544V46.9529H46.1046V4.42383Z" fill="white"/>
</mask>
<g mask="url(#mask1_1084_846)">
<path d="M24.84 46.9529C36.5841 46.9529 46.1045 37.4325 46.1045 25.6884C46.1045 13.9443 36.5841 4.42383 24.84 4.42383C13.0959 4.42383 3.57544 13.9443 3.57544 25.6884C3.57544 37.4325 13.0959 46.9529 24.84 46.9529Z" fill="#6400FF"/>
</g>
<path d="M24.74 28.9993V24.2377L11.7061 30.9256H35.8976V17.5498L24.74 28.9993Z" fill="white"/>
<g style="mix-blend-mode:hard-light" opacity="0.9">
<path d="M24.84 50.3402C11.1213 50.3402 0 39.2189 0 25.5002C0 11.7814 11.1213 0.660156 24.84 0.660156C38.5587 0.660156 49.68 11.7814 49.68 25.5002C49.68 39.2189 38.5587 50.3402 24.84 50.3402ZM24.84 2.35468C12.0571 2.35468 1.69454 12.7172 1.69454 25.5002C1.69454 38.2831 12.0571 48.6456 24.84 48.6456C37.6229 48.6456 47.9854 38.2831 47.9854 25.5002C47.9854 12.7172 37.6229 2.35468 24.84 2.35468Z" fill="url(#paint2_radial_1084_846)"/>
</g>
<g style="mix-blend-mode:multiply" opacity="0.25">
<path d="M25.0282 46.9529C36.7723 46.9529 46.2929 37.4324 46.2929 25.6883C46.2929 19.922 43.9976 14.6918 40.2709 10.8613L10.2012 40.9311C14.0316 44.6577 19.2619 46.9529 25.0282 46.9529Z" fill="url(#paint3_radial_1084_846)"/>
</g>
<g style="mix-blend-mode:hard-light" opacity="0.7">
<path d="M25.028 4.42383C13.2839 4.42383 3.76343 13.9443 3.76343 25.6884C3.76343 31.6661 6.23004 37.0678 10.201 40.9311L40.2707 10.8614C36.4074 6.89039 31.0058 4.42383 25.028 4.42383Z" fill="url(#paint4_linear_1084_846)"/>
</g>
<g style="mix-blend-mode:overlay" opacity="0.5">
<path d="M49.6799 25.5002C49.6799 11.7814 38.5586 0.660156 24.8398 0.660156C18.7811 0.660156 13.229 2.8293 8.91772 6.43337L10.1073 7.62291V10.3515L40.2707 40.515H42.5289L43.6908 41.6769C47.4239 37.3307 49.6799 31.6789 49.6799 25.5002Z" fill="url(#paint5_radial_1084_846)"/>
</g>
</g>
<defs>
<filter id="filter0_d_1084_846" x="-80" y="-55.3398" width="209.68" height="209.68" filterUnits="userSpaceOnUse" color-interpolation-filters="sRGB">
<feFlood flood-opacity="0" result="BackgroundImageFix"/>
<feColorMatrix in="SourceAlpha" type="matrix" values="0 0 0 0 0 0 0 0 0 0 0 0 0 0 0 0 0 0 127 0" result="hardAlpha"/>
<feOffset dy="24"/>
<feGaussianBlur stdDeviation="40"/>
<feColorMatrix type="matrix" values="0 0 0 0 0 0 0 0 0 0 0 0 0 0 0 0 0 0 0.25 0"/>
<feBlend mode="normal" in2="BackgroundImageFix" result="effect1_dropShadow_1084_846"/>
<feBlend mode="normal" in="SourceGraphic" in2="effect1_dropShadow_1084_846" result="shape"/>
</filter>
<linearGradient id="paint0_linear_1084_846" x1="41.9819" y1="42.5703" x2="24.0368" y2="26.1004" gradientUnits="userSpaceOnUse">
<stop stop-color="#F5F5F5"/>
<stop offset="1" stop-color="#F5F5F5" stop-opacity="0"/>
</linearGradient>
<linearGradient id="paint1_linear_1084_846" x1="5.45721" y1="6.39941" x2="40.6668" y2="43.1027" gradientUnits="userSpaceOnUse">
<stop stop-color="#14151A"/>
<stop offset="0.0989583" stop-color="#2B2F36"/>
<stop offset="0.524632" stop-color="#B4B4B4" stop-opacity="0.536112"/>
<stop offset="1" stop-color="#F5F5F5" stop-opacity="0"/>
</linearGradient>
<radialGradient id="paint2_radial_1084_846" cx="0" cy="0" r="1" gradientUnits="userSpaceOnUse" gradientTransform="translate(28.1332 22.207) rotate(135) scale(34.8629)">
<stop stop-opacity="0"/>
<stop offset="0.405819" stop-color="#333333" stop-opacity="0.613091"/>
<stop offset="1" stop-color="white"/>
</radialGradient>
<radialGradient id="paint3_radial_1084_846" cx="0" cy="0" r="1" gradientUnits="userSpaceOnUse" gradientTransform="translate(38.9537 44.3184) rotate(-135) scale(22.0887 22.1681)">
<stop stop-color="#474D57"/>
<stop offset="0.894077" stop-color="#475557" stop-opacity="0"/>
</radialGradient>
<linearGradient id="paint4_linear_1084_846" x1="10.0675" y1="11.857" x2="26.7216" y2="28.5111" gradientUnits="userSpaceOnUse">
<stop stop-color="white"/>
<stop offset="1" stop-color="#C4C4C4" stop-opacity="0"/>
</linearGradient>
<radialGradient id="paint5_radial_1084_846" cx="0" cy="0" r="1" gradientUnits="userSpaceOnUse" gradientTransform="translate(19.5707 -1.12757) rotate(59.3041) scale(37.9695 32.015)">
<stop stop-color="white"/>
<stop offset="0.0886303" stop-color="white"/>
<stop offset="1" stop-color="white" stop-opacity="0.17"/>
</radialGradient>
</defs>
</svg>
