<svg width="55" height="41" viewBox="0 0 55 41" fill="none" xmlns="http://www.w3.org/2000/svg">
<path d="M19.1667 20.5003C19.1667 21.3844 18.8155 22.2322 18.1904 22.8573C17.5652 23.4825 16.7174 23.8337 15.8333 23.8337C14.9493 23.8337 14.1014 23.4825 13.4763 22.8573C12.8512 22.2322 12.5 21.3844 12.5 20.5003C12.5 19.6163 12.8512 18.7684 13.4763 18.1433C14.1014 17.5182 14.9493 17.167 15.8333 17.167C16.7174 17.167 17.5652 17.5182 18.1904 18.1433C18.8155 18.7684 19.1667 19.6163 19.1667 20.5003ZM30.8333 20.5003C30.8333 21.3844 30.4821 22.2322 29.857 22.8573C29.2319 23.4825 28.3841 23.8337 27.5 23.8337C26.6159 23.8337 25.7681 23.4825 25.143 22.8573C24.5179 22.2322 24.1667 21.3844 24.1667 20.5003C24.1667 19.6163 24.5179 18.7684 25.143 18.1433C25.7681 17.5182 26.6159 17.167 27.5 17.167C28.3841 17.167 29.2319 17.5182 29.857 18.1433C30.4821 18.7684 30.8333 19.6163 30.8333 20.5003ZM42.5 20.5003C42.5 21.3844 42.1488 22.2322 41.5237 22.8573C40.8986 23.4825 40.0507 23.8337 39.1667 23.8337C38.2826 23.8337 37.4348 23.4825 36.8096 22.8573C36.1845 22.2322 35.8333 21.3844 35.8333 20.5003C35.8333 19.6163 36.1845 18.7684 36.8096 18.1433C37.4348 17.5182 38.2826 17.167 39.1667 17.167C40.0507 17.167 40.8986 17.5182 41.5237 18.1433C42.1488 18.7684 42.5 19.6163 42.5 20.5003Z" fill="#29AAC7"/>
</svg>
