<svg width="32" height="32" viewBox="0 0 32 32" fill="none" xmlns="http://www.w3.org/2000/svg">
<g clip-path="url(#clip0_1052_3709)">
<path d="M10 8C12.3869 8 14.6761 8.94821 16.364 10.636C18.0518 12.3239 19 14.6131 19 17C19 19.3869 18.0518 21.6761 16.364 23.364C14.6761 25.0518 12.3869 26 10 26C7.61305 26 5.32387 25.0518 3.63604 23.364C1.94821 21.6761 1 19.3869 1 17C1 14.6131 1.94821 12.3239 3.63604 10.636C5.32387 8.94821 7.61305 8 10 8ZM23.5 9.5C25.75 9.5 27.25 12.8585 27.25 17C27.25 21.1415 25.75 24.5 23.5 24.5C21.25 24.5 19.75 21.1415 19.75 17C19.75 12.8585 21.25 9.5 23.5 9.5ZM29.5 10.25C30.07 10.25 30.568 11.4905 30.82 13.619L30.8905 14.2835L30.919 14.636L30.964 15.377L30.979 15.7655L30.997 16.577L31 17L30.997 17.423L30.979 18.2345L30.964 18.6245L30.919 19.364L30.889 19.7165L30.8215 20.381C30.568 22.511 30.0715 23.75 29.5 23.75C28.93 23.75 28.432 22.5095 28.18 20.381L28.1095 19.7165C28.0992 19.5991 28.0897 19.4816 28.081 19.364L28.036 18.623C28.0302 18.4935 28.0252 18.364 28.021 18.2345L28.003 17.423V16.577L28.021 15.7655L28.036 15.3755L28.081 14.636L28.111 14.2835L28.1785 13.619C28.432 11.489 28.9285 10.25 29.5 10.25Z" fill="#46598B"/>
</g>
<defs>
<clipPath id="clip0_1052_3709">
<rect width="32" height="32" fill="white"/>
</clipPath>
</defs>
</svg>
