<svg width="69" height="16" viewBox="0 0 69 16" fill="none" xmlns="http://www.w3.org/2000/svg">
<path fill-rule="evenodd" clip-rule="evenodd" d="M13.9026 9.20859C13.4644 9.31421 13.0017 9.37075 12.5234 9.37075C9.74771 9.37075 7.4974 7.46584 7.4974 5.11586C7.4974 4.69654 7.56903 4.2914 7.70253 3.90869H2.49474C1.69431 3.90869 1.04541 4.45805 1.04541 5.13567V13.5663C1.04541 14.2439 1.69431 14.7932 2.49474 14.7932H12.4532C13.2536 14.7932 13.9025 14.2439 13.9025 13.5663L13.9026 9.20859Z" fill="black"/>
<path d="M16.7594 4.51318C16.7594 6.183 15.1605 7.53662 13.188 7.53662C11.2156 7.53662 9.6167 6.183 9.6167 4.51318C9.6167 2.84337 11.2156 1.48975 13.188 1.48975C15.1605 1.48975 16.7594 2.84337 16.7594 4.51318Z" fill="url(#paint0_linear_627_8391)"/>
<path d="M32.0025 10.1113V14.7016H34.2542V10.1113C34.2542 7.2902 32.5249 5.44482 29.7869 5.44482C28.4539 5.44482 27.265 6.11582 26.8687 7.04603V5.55158H24.6172V14.7011H26.8687V10.1264C26.8687 8.50988 27.9315 7.35092 29.3907 7.35092C30.9758 7.35092 32.0025 8.4339 32.0025 10.1113Z" fill="black"/>
<path d="M35.7588 10.1113C35.7588 12.7648 38.0825 14.7929 41.0725 14.7929C44.0625 14.7929 46.3685 12.7647 46.3685 10.1113C46.3685 7.4732 44.0628 5.44482 41.0725 5.44482C38.0822 5.44482 35.7588 7.47303 35.7588 10.1113ZM41.0725 7.35117C42.8017 7.35117 44.1167 8.54066 44.1167 10.1113C44.1167 11.6973 42.8017 12.8868 41.0725 12.8868C39.3432 12.8868 38.0103 11.6973 38.0103 10.1113C38.0103 8.54066 39.3432 7.35117 41.0725 7.35117Z" fill="black"/>
<path d="M49.564 3.61475L49.0236 5.55145H47.4204V7.35087H49.0236V11.5599C49.0236 13.8016 50.1044 14.7013 52.6805 14.7013H53.6169V12.8104H52.8963C51.7796 12.8104 51.2751 12.3987 51.2751 11.4532V7.35105H53.6169V5.55162H51.2751V3.61491L49.564 3.61475Z" fill="black"/>
<path d="M57.4338 14.7018V5.55225H55.1821V14.7018H57.4338Z" fill="black"/>
<path d="M68.9708 14.7015V5.55198H62.7743V4.88098C62.7743 3.9355 63.2788 3.50851 64.3956 3.50851H65.1157V1.63281H64.1793C61.6034 1.63281 60.5227 2.51728 60.5227 4.77422V5.55194H58.9375V7.35136H60.5227V14.7019H62.7743V7.35136H66.7191V14.7019L68.9708 14.7015Z" fill="black"/>
<path fill-rule="evenodd" clip-rule="evenodd" d="M56.0495 1.48975C55.4131 1.48975 55.1846 1.78538 55.1846 2.20582V3.73426H56.9496C57.5628 3.73426 57.8358 3.55256 57.8358 3.04017V2.20586C57.8358 1.72628 57.4619 1.48979 56.8875 1.48979L56.0495 1.48975Z" fill="black"/>
<defs>
<linearGradient id="paint0_linear_627_8391" x1="15.3446" y1="1.96095" x2="12.7266" y2="7.89566" gradientUnits="userSpaceOnUse">
<stop stop-color="#FE7970"/>
<stop offset="1" stop-color="#FEB776"/>
</linearGradient>
</defs>
</svg>
