<svg width="70" height="19" viewBox="0 0 70 19" fill="none" xmlns="http://www.w3.org/2000/svg">
<g id="Investors4.10da1867f3bb4c45b6dd2c6ee59b4f55 1" clip-path="url(#clip0_1052_4114)">
<path id="Vector" d="M12.0741 7.0332C12.0741 8.48906 11.8829 9.93068 11.5114 11.2756C11.1399 12.6207 10.5954 13.8429 9.90891 14.8723C9.22246 15.9017 8.4075 16.7183 7.51064 17.2755C6.61373 17.8326 5.65244 18.1193 4.68164 18.1193V12.5763C5.16704 12.5763 5.64768 12.4329 6.09613 12.1543C6.54459 11.8758 6.95205 11.4675 7.2953 10.9527C7.63849 10.438 7.91078 9.82699 8.09651 9.15444C8.28225 8.48192 8.37789 7.76113 8.37789 7.0332H12.0741Z" fill="#01D5E2"/>
<path id="Vector_2" d="M0.985402 7.0332H4.68164V12.5763H0.985402V7.0332Z" fill="white"/>
<path id="Vector_3" d="M4.68169 1.48926H8.37793V7.03233H4.68169V1.48926Z" fill="white"/>
<path id="Vector_4" d="M18.3115 14.1671V5.64648H19.9349V6.86371H20.7465V8.08094H21.5582V9.29817H22.3699V5.64648H23.9932V14.1671H22.3699V11.7326H21.5582V10.5154H20.7465V9.29817H19.9349V14.1671H18.3115Z" fill="white"/>
<path id="Vector_5" d="M25.6163 14.1672V12.95H24.8047V11.7327H25.6163V10.5155H28.863V9.29829H25.6163V8.08105H29.6747V9.29829H30.4864V14.1672H25.6163ZM26.428 12.95H28.863V11.7327H26.428V12.95Z" fill="white"/>
<path id="Vector_6" d="M32.11 14.1672V12.95H31.2983V8.08105H32.9217V12.95H35.3567V8.08105H36.98V14.1672H32.11Z" fill="white"/>
<path id="Vector_7" d="M40.2268 14.1671V9.29817H38.6035V8.08094H40.2268V5.64648H41.8502V8.08094H43.4735V9.29817H41.8502V14.1671H40.2268Z" fill="white"/>
<path id="Vector_8" d="M46.72 6.86371V5.64648H48.3433V6.86371H46.72ZM45.0967 14.1671V12.9498H46.72V9.29817H45.9083V8.08094H48.3433V12.9498H49.9667V14.1671H45.0967Z" fill="white"/>
<path id="Vector_9" d="M51.5898 14.1671V12.9498H53.2132V6.86371H52.4015V5.64648H54.8365V12.9498H56.46V14.1671H51.5898Z" fill="white"/>
<path id="Vector_10" d="M58.0837 14.1672V12.95H57.272V8.08105H58.8954V12.95H61.3304V8.08105H62.9538V14.1672H58.0837Z" fill="white"/>
<path id="Vector_11" d="M63.7656 14.1672V12.95H67.8235V11.7327H64.5768V10.5155H63.7656V9.29829H64.5768V8.08105H68.6352V9.29829H65.3885V10.5155H68.6352V11.7327H69.4469V12.95H68.6352V14.1672H63.7656Z" fill="white"/>
</g>
<defs>
<clipPath id="clip0_1052_4114">
<rect width="68.75" height="17.4607" fill="white" transform="translate(0.75 0.994141)"/>
</clipPath>
</defs>
</svg>
