<svg width="41" height="40" viewBox="0 0 41 40" fill="none" xmlns="http://www.w3.org/2000/svg">
<path d="M10.128 15.5385C10.128 15.2528 10.2415 14.9789 10.4435 14.777C10.6454 14.575 10.9193 14.4615 11.205 14.4615H26.2819C26.5675 14.4615 26.8414 14.575 27.0434 14.777C27.2453 14.9789 27.3588 15.2528 27.3588 15.5385C27.3588 15.8241 27.2453 16.098 27.0434 16.3C26.8414 16.5019 26.5675 16.6154 26.2819 16.6154H11.205C10.9193 16.6154 10.6454 16.5019 10.4435 16.3C10.2415 16.098 10.128 15.8241 10.128 15.5385ZM21.9742 20.9231C21.6886 20.9231 21.4147 21.0365 21.2127 21.2385C21.0107 21.4405 20.8973 21.7144 20.8973 22C20.8973 22.2856 21.0107 22.5595 21.2127 22.7615C21.4147 22.9635 21.6886 23.0769 21.9742 23.0769H26.2819C26.5675 23.0769 26.8414 22.9635 27.0434 22.7615C27.2453 22.5595 27.3588 22.2856 27.3588 22C27.3588 21.7144 27.2453 21.4405 27.0434 21.2385C26.8414 21.0365 26.5675 20.9231 26.2819 20.9231H21.9742ZM20.8973 28.4615C20.8973 28.1759 21.0107 27.902 21.2127 27.7C21.4147 27.4981 21.6886 27.3846 21.9742 27.3846H26.2819C26.5675 27.3846 26.8414 27.4981 27.0434 27.7C27.2453 27.902 27.3588 28.1759 27.3588 28.4615C27.3588 28.7472 27.2453 29.0211 27.0434 29.223C26.8414 29.425 26.5675 29.5385 26.2819 29.5385H21.9742C21.6886 29.5385 21.4147 29.425 21.2127 29.223C21.0107 29.0211 20.8973 28.7472 20.8973 28.4615ZM11.205 20.9231C10.9193 20.9231 10.6454 21.0365 10.4435 21.2385C10.2415 21.4405 10.128 21.7144 10.128 22V28.4615C10.128 28.7472 10.2415 29.0211 10.4435 29.223C10.6454 29.425 10.9193 29.5385 11.205 29.5385H17.6665C17.9521 29.5385 18.226 29.425 18.428 29.223C18.63 29.0211 18.7434 28.7472 18.7434 28.4615V22C18.7434 21.7144 18.63 21.4405 18.428 21.2385C18.226 21.0365 17.9521 20.9231 17.6665 20.9231H11.205ZM12.2819 27.3846V23.0769H16.5896V27.3846H12.2819ZM3.6665 12.3077C3.6665 11.1652 4.12035 10.0695 4.9282 9.26169C5.73605 8.45384 6.83172 8 7.9742 8H29.5127C30.6551 8 31.7508 8.45384 32.5587 9.26169C33.3665 10.0695 33.8203 11.1652 33.8203 12.3077V14.4615C34.9628 14.4615 36.0585 14.9154 36.8663 15.7232C37.6742 16.5311 38.128 17.6268 38.128 18.7692V30.6154C38.128 32.0435 37.5607 33.4131 36.5509 34.4229C35.5411 35.4327 34.1715 36 32.7434 36H9.05112C7.62303 36 6.25343 35.4327 5.24362 34.4229C4.23381 33.4131 3.6665 32.0435 3.6665 30.6154V12.3077ZM31.6665 12.3077C31.6665 11.7365 31.4396 11.1886 31.0357 10.7847C30.6317 10.3808 30.0839 10.1538 29.5127 10.1538H7.9742C7.40296 10.1538 6.85512 10.3808 6.4512 10.7847C6.04727 11.1886 5.82035 11.7365 5.82035 12.3077V30.6154C5.82035 31.4722 6.16073 32.294 6.76662 32.8999C7.37251 33.5058 8.19427 33.8462 9.05112 33.8462H32.7434C33.6003 33.8462 34.422 33.5058 35.0279 32.8999C35.6338 32.294 35.9742 31.4722 35.9742 30.6154V18.7692C35.9742 18.198 35.7473 17.6502 35.3433 17.2462C34.9394 16.8423 34.3916 16.6154 33.8203 16.6154V30.6154C33.8203 30.901 33.7069 31.1749 33.5049 31.3769C33.303 31.5788 33.029 31.6923 32.7434 31.6923C32.4578 31.6923 32.1839 31.5788 31.9819 31.3769C31.78 31.1749 31.6665 30.901 31.6665 30.6154V12.3077Z" fill="#46598B"/>
</svg>
