<svg width="70" height="19" viewBox="0 0 70 19" fill="none" xmlns="http://www.w3.org/2000/svg">
<g clip-path="url(#clip0_627_8306)">
<path d="M12.0741 7.03271C12.0741 8.48857 11.8829 9.93019 11.5114 11.2752C11.1399 12.6202 10.5954 13.8424 9.90891 14.8718C9.22246 15.9012 8.4075 16.7178 7.51064 17.275C6.61373 17.8321 5.65244 18.1188 4.68164 18.1188V12.5758C5.16704 12.5758 5.64768 12.4324 6.09613 12.1538C6.54459 11.8753 6.95205 11.467 7.2953 10.9522C7.63849 10.4375 7.91078 9.82651 8.09651 9.15395C8.28225 8.48144 8.37789 7.76064 8.37789 7.03271H12.0741Z" fill="#01D5E2"/>
<path d="M0.985402 7.03271H4.68164V12.5758H0.985402V7.03271Z" fill="black"/>
<path d="M4.68169 1.48926H8.37793V7.03233H4.68169V1.48926Z" fill="black"/>
<path d="M18.3115 14.1676V5.64697H19.9349V6.8642H20.7465V8.08142H21.5582V9.29866H22.3699V5.64697H23.9932V14.1676H22.3699V11.7331H21.5582V10.5159H20.7465V9.29866H19.9349V14.1676H18.3115Z" fill="black"/>
<path d="M25.6163 14.1672V12.95H24.8047V11.7327H25.6163V10.5155H28.863V9.29829H25.6163V8.08105H29.6747V9.29829H30.4864V14.1672H25.6163ZM26.428 12.95H28.863V11.7327H26.428V12.95Z" fill="black"/>
<path d="M32.11 14.1672V12.95H31.2983V8.08105H32.9217V12.95H35.3567V8.08105H36.98V14.1672H32.11Z" fill="black"/>
<path d="M40.2268 14.1676V9.29866H38.6035V8.08142H40.2268V5.64697H41.8502V8.08142H43.4735V9.29866H41.8502V14.1676H40.2268Z" fill="black"/>
<path d="M46.72 6.8642V5.64697H48.3433V6.8642H46.72ZM45.0967 14.1676V12.9503H46.72V9.29866H45.9083V8.08142H48.3433V12.9503H49.9667V14.1676H45.0967Z" fill="black"/>
<path d="M51.5898 14.1676V12.9503H53.2132V6.8642H52.4015V5.64697H54.8365V12.9503H56.46V14.1676H51.5898Z" fill="black"/>
<path d="M58.0837 14.1672V12.95H57.272V8.08105H58.8954V12.95H61.3304V8.08105H62.9538V14.1672H58.0837Z" fill="black"/>
<path d="M63.7656 14.1672V12.95H67.8235V11.7327H64.5768V10.5155H63.7656V9.29829H64.5768V8.08105H68.6352V9.29829H65.3885V10.5155H68.6352V11.7327H69.4469V12.95H68.6352V14.1672H63.7656Z" fill="black"/>
</g>
<defs>
<clipPath id="clip0_627_8306">
<rect width="68.75" height="17.4607" fill="white" transform="translate(0.75 0.994141)"/>
</clipPath>
</defs>
</svg>
