<svg width="69" height="16" viewBox="0 0 69 16" fill="none" xmlns="http://www.w3.org/2000/svg">
<g id="Investors2.f155219236022b046e3fc75af25b1393 1">
<path id="Vector" fill-rule="evenodd" clip-rule="evenodd" d="M13.9026 9.2081C13.4644 9.31372 13.0017 9.37026 12.5234 9.37026C9.74771 9.37026 7.4974 7.46535 7.4974 5.11537C7.4974 4.69605 7.56903 4.29091 7.70253 3.9082H2.49474C1.69431 3.9082 1.04541 4.45756 1.04541 5.13518V13.5658C1.04541 14.2434 1.69431 14.7927 2.49474 14.7927H12.4532C13.2536 14.7927 13.9025 14.2434 13.9025 13.5658L13.9026 9.2081Z" fill="white"/>
<path id="Vector_2" d="M16.7594 4.51269C16.7594 6.18251 15.1605 7.53613 13.188 7.53613C11.2156 7.53613 9.6167 6.18251 9.6167 4.51269C9.6167 2.84288 11.2156 1.48926 13.188 1.48926C15.1605 1.48926 16.7594 2.84288 16.7594 4.51269Z" fill="url(#paint0_linear_1052_4199)"/>
<path id="Vector_3" d="M32.0025 10.1118V14.702H34.2542V10.1118C34.2542 7.29069 32.5249 5.44531 29.7869 5.44531C28.4539 5.44531 27.265 6.11631 26.8687 7.04652V5.55207H24.6172V14.7016H26.8687V10.1269C26.8687 8.51037 27.9315 7.35141 29.3907 7.35141C30.9758 7.35141 32.0025 8.43439 32.0025 10.1118Z" fill="white"/>
<path id="Vector_4" d="M35.7588 10.1118C35.7588 12.7652 38.0825 14.7933 41.0725 14.7933C44.0625 14.7933 46.3685 12.7652 46.3685 10.1118C46.3685 7.47369 44.0628 5.44531 41.0725 5.44531C38.0822 5.44531 35.7588 7.47352 35.7588 10.1118ZM41.0725 7.35166C42.8017 7.35166 44.1167 8.54115 44.1167 10.1118C44.1167 11.6978 42.8017 12.8873 41.0725 12.8873C39.3432 12.8873 38.0103 11.6978 38.0103 10.1118C38.0103 8.54115 39.3432 7.35166 41.0725 7.35166Z" fill="white"/>
<path id="Vector_5" d="M49.564 3.61426L49.0236 5.55096H47.4204V7.35039H49.0236V11.5594C49.0236 13.8011 50.1044 14.7008 52.6805 14.7008H53.6169V12.8099H52.8963C51.7796 12.8099 51.2751 12.3982 51.2751 11.4527V7.35056H53.6169V5.55113H51.2751V3.61442L49.564 3.61426Z" fill="white"/>
<path id="Vector_6" d="M57.4338 14.7013V5.55176H55.1821V14.7013H57.4338Z" fill="white"/>
<path id="Vector_7" d="M68.9708 14.7015V5.55198H62.7743V4.88098C62.7743 3.9355 63.2788 3.50851 64.3956 3.50851H65.1157V1.63281H64.1793C61.6034 1.63281 60.5227 2.51728 60.5227 4.77422V5.55194H58.9375V7.35136H60.5227V14.7019H62.7743V7.35136H66.7191V14.7019L68.9708 14.7015Z" fill="white"/>
<path id="Vector_8" fill-rule="evenodd" clip-rule="evenodd" d="M56.0495 1.48926C55.4131 1.48926 55.1846 1.78489 55.1846 2.20533V3.73377H56.9496C57.5628 3.73377 57.8358 3.55207 57.8358 3.03968V2.20537C57.8358 1.7258 57.4619 1.4893 56.8875 1.4893L56.0495 1.48926Z" fill="white"/>
</g>
<defs>
<linearGradient id="paint0_linear_1052_4199" x1="15.3446" y1="1.96046" x2="12.7266" y2="7.89517" gradientUnits="userSpaceOnUse">
<stop stop-color="#FE7970"/>
<stop offset="1" stop-color="#FEB776"/>
</linearGradient>
</defs>
</svg>
