<svg width="28" height="29" viewBox="0 0 28 29" fill="none" xmlns="http://www.w3.org/2000/svg">
<path d="M14.0156 10.7062C13.0813 10.7062 12.2063 11.0687 11.5438 11.7312C10.8844 12.3937 10.5188 13.2687 10.5188 14.203C10.5188 15.1374 10.8844 16.0124 11.5438 16.6749C12.2063 17.3343 13.0813 17.6999 14.0156 17.6999C14.95 17.6999 15.825 17.3343 16.4875 16.6749C17.1469 16.0124 17.5125 15.1374 17.5125 14.203C17.5125 13.2687 17.1469 12.3937 16.4875 11.7312C16.1639 11.4051 15.7788 11.1466 15.3544 10.9706C14.9301 10.7946 14.475 10.7047 14.0156 10.7062ZM26.9 18.0655L24.8563 16.3187C24.9531 15.7249 25.0031 15.1187 25.0031 14.5155C25.0031 13.9124 24.9531 13.303 24.8563 12.7124L26.9 10.9655C27.0544 10.8334 27.1649 10.6573 27.2168 10.4608C27.2687 10.2643 27.2596 10.0567 27.1906 9.86553L27.1625 9.78428C26.6001 8.21144 25.7573 6.75351 24.675 5.48115L24.6188 5.41553C24.4873 5.261 24.3122 5.14992 24.1164 5.09693C23.9206 5.04393 23.7133 5.05151 23.5219 5.11865L20.9844 6.02178C20.0469 5.25303 19.0031 4.64678 17.8719 4.2249L17.3813 1.57178C17.3442 1.37191 17.2473 1.18804 17.1033 1.04458C16.9593 0.901131 16.775 0.804892 16.575 0.768652L16.4906 0.753027C14.8656 0.459277 13.1531 0.459277 11.5281 0.753027L11.4438 0.768652C11.2438 0.804892 11.0595 0.901131 10.9155 1.04458C10.7715 1.18804 10.6745 1.37191 10.6375 1.57178L10.1438 4.2374C9.02323 4.66264 7.97937 5.26742 7.05314 6.02803L4.49689 5.11865C4.30553 5.05097 4.09811 5.04312 3.90219 5.09615C3.70626 5.14918 3.53111 5.26057 3.40001 5.41553L3.34376 5.48115C2.26343 6.75487 1.42086 8.21243 0.856265 9.78428L0.82814 9.86553C0.687515 10.2562 0.80314 10.6937 1.11877 10.9655L3.18751 12.7312C3.09064 13.3187 3.04376 13.9187 3.04376 14.5124C3.04376 15.1124 3.09064 15.7124 3.18751 16.2937L1.12502 18.0593C0.970627 18.1914 0.860129 18.3675 0.808215 18.564C0.756301 18.7605 0.765431 18.9681 0.83439 19.1593L0.862515 19.2405C1.42814 20.8124 2.26251 22.2655 3.35001 23.5437L3.40626 23.6093C3.53768 23.7638 3.71284 23.8749 3.90865 23.9279C4.10445 23.9809 4.31172 23.9733 4.50314 23.9062L7.05939 22.9968C7.99064 23.7624 9.02814 24.3687 10.15 24.7874L10.6438 27.453C10.6808 27.6529 10.7777 27.8368 10.9217 27.9802C11.0658 28.1237 11.25 28.2199 11.45 28.2562L11.5344 28.2718C13.1754 28.5671 14.8559 28.5671 16.4969 28.2718L16.5813 28.2562C16.7813 28.2199 16.9655 28.1237 17.1095 27.9802C17.2535 27.8368 17.3505 27.6529 17.3875 27.453L17.8781 24.7999C19.0094 24.3749 20.0531 23.7718 20.9906 23.003L23.5281 23.9062C23.7195 23.9738 23.9269 23.9817 24.1228 23.9287C24.3188 23.8756 24.4939 23.7642 24.625 23.6093L24.6813 23.5437C25.7688 22.2593 26.6031 20.8124 27.1688 19.2405L27.1969 19.1593C27.3313 18.7718 27.2156 18.3374 26.9 18.0655ZM14.0156 19.6968C10.9813 19.6968 8.52189 17.2374 8.52189 14.203C8.52189 11.1687 10.9813 8.70928 14.0156 8.70928C17.05 8.70928 19.5094 11.1687 19.5094 14.203C19.5094 17.2374 17.05 19.6968 14.0156 19.6968Z" fill="#1DEDE1"/>
</svg>
