<svg width="22" height="21" viewBox="0 0 22 21" fill="none" xmlns="http://www.w3.org/2000/svg">
<path fill-rule="evenodd" clip-rule="evenodd" d="M17.75 5.25C18.1478 5.25 18.5293 5.09197 18.8106 4.81066C19.092 4.52936 19.25 4.14783 19.25 3.75C19.25 3.35218 19.092 2.97065 18.8106 2.68934C18.5293 2.40804 18.1478 2.25 17.75 2.25C17.3522 2.25 16.9706 2.40804 16.6893 2.68934C16.408 2.97065 16.25 3.35218 16.25 3.75C16.25 4.14783 16.408 4.52936 16.6893 4.81066C16.9706 5.09197 17.3522 5.25 17.75 5.25ZM17.75 7.5C18.5171 7.49983 19.2656 7.26443 19.8947 6.82555C20.5238 6.38667 21.0032 5.76543 21.2682 5.0456C21.5332 4.32577 21.5711 3.54198 21.3768 2.79994C21.1825 2.0579 20.7652 1.39331 20.1814 0.895785C19.5976 0.398263 18.8752 0.0917468 18.1118 0.0175754C17.3483 -0.056596 16.5804 0.105145 15.9117 0.480985C15.2431 0.856826 14.7057 1.42869 14.3722 2.11944C14.0387 2.8102 13.925 3.58662 14.0465 4.344L6.94699 7.8945C6.42775 7.35733 5.7599 6.98749 5.02906 6.83242C4.29823 6.67735 3.53774 6.74411 2.8451 7.02415C2.15247 7.30418 1.55926 7.78472 1.14156 8.40415C0.723861 9.02357 0.500702 9.75365 0.500702 10.5008C0.500702 11.2479 0.723861 11.9779 1.14156 12.5974C1.55926 13.2168 2.15247 13.6973 2.8451 13.9774C3.53774 14.2574 4.29823 14.3242 5.02906 14.1691C5.7599 14.014 6.42775 13.6442 6.94699 13.107L14.0465 16.656C13.9043 17.5406 14.0836 18.4469 14.5518 19.2108C15.02 19.9747 15.7463 20.5457 16.5991 20.8204C17.4519 21.0952 18.3749 21.0555 19.201 20.7085C20.0271 20.3616 20.7016 19.7304 21.1026 18.9291C21.5035 18.1279 21.6043 17.2095 21.3867 16.3404C21.1691 15.4712 20.6475 14.7087 19.9164 14.1908C19.1852 13.673 18.2928 13.4341 17.4007 13.5173C16.5086 13.6005 15.6758 14.0004 15.053 14.6445L7.95499 11.094C8.01763 10.7005 8.01763 10.2995 7.95499 9.906L15.0545 6.3555C15.737 7.0605 16.6925 7.5 17.7515 7.5H17.75ZM19.25 17.25C19.25 17.6478 19.092 18.0294 18.8106 18.3107C18.5293 18.592 18.1478 18.75 17.75 18.75C17.3522 18.75 16.9706 18.592 16.6893 18.3107C16.408 18.0294 16.25 17.6478 16.25 17.25C16.25 16.8522 16.408 16.4706 16.6893 16.1893C16.9706 15.908 17.3522 15.75 17.75 15.75C18.1478 15.75 18.5293 15.908 18.8106 16.1893C19.092 16.4706 19.25 16.8522 19.25 17.25ZM5.74999 10.5C5.74999 10.8978 5.59195 11.2794 5.31065 11.5607C5.02934 11.842 4.64781 12 4.24999 12C3.85216 12 3.47063 11.842 3.18933 11.5607C2.90802 11.2794 2.74999 10.8978 2.74999 10.5C2.74999 10.1022 2.90802 9.72065 3.18933 9.43934C3.47063 9.15804 3.85216 9 4.24999 9C4.64781 9 5.02934 9.15804 5.31065 9.43934C5.59195 9.72065 5.74999 10.1022 5.74999 10.5Z" fill="#1DEDE1"/>
</svg>
