<svg width="41" height="40" viewBox="0 0 41 40" fill="none" xmlns="http://www.w3.org/2000/svg">
<path d="M10.5473 17.8567C10.2631 17.8567 9.99061 17.9696 9.78968 18.1705C9.58875 18.3715 9.47586 18.644 9.47586 18.9282V31.7853C9.47586 32.0695 9.58875 32.342 9.78968 32.5429C9.99061 32.7438 10.2631 32.8567 10.5473 32.8567H29.833C30.1172 32.8567 30.3897 32.7438 30.5906 32.5429C30.7916 32.342 30.9044 32.0695 30.9044 31.7853V18.9282C30.9044 18.644 30.7916 18.3715 30.5906 18.1705C30.3897 17.9696 30.1172 17.8567 29.833 17.8567H10.5473ZM10.5473 15.7139H29.833C30.6855 15.7139 31.5031 16.0525 32.1059 16.6553C32.7086 17.2581 33.0473 18.0757 33.0473 18.9282V31.7853C33.0473 32.6378 32.7086 33.4553 32.1059 34.0581C31.5031 34.6609 30.6855 34.9996 29.833 34.9996H10.5473C9.69481 34.9996 8.87725 34.6609 8.27445 34.0581C7.67165 33.4553 7.33301 32.6378 7.33301 31.7853V18.9282C7.33301 18.0757 7.67165 17.2581 8.27445 16.6553C8.87725 16.0525 9.69481 15.7139 10.5473 15.7139Z" fill="#46598B"/>
<path d="M20.1901 21.0714C20.4742 21.0714 20.7468 21.1843 20.9477 21.3852C21.1486 21.5862 21.2615 21.8587 21.2615 22.1429V28.5714C21.2615 28.8556 21.1486 29.1281 20.9477 29.329C20.7468 29.53 20.4742 29.6429 20.1901 29.6429C19.9059 29.6429 19.6334 29.53 19.4325 29.329C19.2315 29.1281 19.1187 28.8556 19.1187 28.5714V22.1429C19.1187 21.8587 19.2315 21.5862 19.4325 21.3852C19.6334 21.1843 19.9059 21.0714 20.1901 21.0714ZM26.6187 15.7143V13.5714C26.6187 11.8665 25.9414 10.2313 24.7358 9.02574C23.5302 7.82015 21.895 7.14286 20.1901 7.14286C18.4851 7.14286 16.85 7.82015 15.6444 9.02574C14.4388 10.2313 13.7615 11.8665 13.7615 13.5714V15.7143H26.6187ZM20.1901 5C22.4634 5 24.6435 5.90306 26.251 7.51051C27.8584 9.11797 28.7615 11.2981 28.7615 13.5714V17.8571H11.6187V13.5714C11.6187 11.2981 12.5217 9.11797 14.1292 7.51051C15.7366 5.90306 17.9168 5 20.1901 5Z" fill="#46598B"/>
</svg>
