<svg width="41" height="40" viewBox="0 0 41 40" fill="none" xmlns="http://www.w3.org/2000/svg">
<path d="M35.6665 7.5V23.75C35.6665 24.413 35.4031 25.0489 34.9343 25.5178C34.4654 25.9866 33.8295 26.25 33.1665 26.25H16.1837L17.8009 27.8656C17.917 27.9818 18.0091 28.1196 18.072 28.2714C18.1348 28.4231 18.1672 28.5858 18.1672 28.75C18.1672 28.9142 18.1348 29.0769 18.072 29.2286C18.0091 29.3804 17.917 29.5182 17.8009 29.6344C17.6847 29.7505 17.5469 29.8426 17.3951 29.9055C17.2434 29.9683 17.0807 30.0007 16.9165 30.0007C16.7523 30.0007 16.5896 29.9683 16.4379 29.9055C16.2861 29.8426 16.1483 29.7505 16.0321 29.6344L12.2821 25.8844C12.1659 25.7683 12.0737 25.6304 12.0108 25.4787C11.9479 25.3269 11.9155 25.1643 11.9155 25C11.9155 24.8357 11.9479 24.6731 12.0108 24.5213C12.0737 24.3696 12.1659 24.2317 12.2821 24.1156L16.0321 20.3656C16.2667 20.1311 16.5848 19.9993 16.9165 19.9993C17.2482 19.9993 17.5663 20.1311 17.8009 20.3656C18.0354 20.6002 18.1672 20.9183 18.1672 21.25C18.1672 21.5817 18.0354 21.8998 17.8009 22.1344L16.1837 23.75H33.1665V7.5H15.6665V8.75C15.6665 9.08152 15.5348 9.39946 15.3004 9.63388C15.066 9.8683 14.748 10 14.4165 10C14.085 10 13.767 9.8683 13.5326 9.63388C13.2982 9.39946 13.1665 9.08152 13.1665 8.75V7.5C13.1665 6.83696 13.4299 6.20107 13.8987 5.73223C14.3676 5.26339 15.0035 5 15.6665 5H33.1665C33.8295 5 34.4654 5.26339 34.9343 5.73223C35.4031 6.20107 35.6665 6.83696 35.6665 7.5ZM26.9165 30C26.585 30 26.267 30.1317 26.0326 30.3661C25.7982 30.6005 25.6665 30.9185 25.6665 31.25V32.5H8.1665V16.25H25.1493L23.5321 17.8656C23.2976 18.1002 23.1658 18.4183 23.1658 18.75C23.1658 19.0817 23.2976 19.3998 23.5321 19.6344C23.7667 19.8689 24.0848 20.0007 24.4165 20.0007C24.7482 20.0007 25.0663 19.8689 25.3009 19.6344L29.0509 15.8844C29.1671 15.7683 29.2593 15.6304 29.3222 15.4787C29.3851 15.3269 29.4175 15.1643 29.4175 15C29.4175 14.8357 29.3851 14.6731 29.3222 14.5213C29.2593 14.3696 29.1671 14.2317 29.0509 14.1156L25.3009 10.3656C25.0663 10.1311 24.7482 9.9993 24.4165 9.9993C24.0848 9.99931 23.7667 10.1311 23.5321 10.3656C23.2976 10.6002 23.1658 10.9183 23.1658 11.25C23.1658 11.5817 23.2976 11.8998 23.5321 12.1344L25.1493 13.75H8.1665C7.50346 13.75 6.86758 14.0134 6.39874 14.4822C5.9299 14.9511 5.6665 15.587 5.6665 16.25V32.5C5.6665 33.163 5.9299 33.7989 6.39874 34.2678C6.86758 34.7366 7.50346 35 8.1665 35H25.6665C26.3295 35 26.9654 34.7366 27.4343 34.2678C27.9031 33.7989 28.1665 33.163 28.1665 32.5V31.25C28.1665 30.9185 28.0348 30.6005 27.8004 30.3661C27.566 30.1317 27.248 30 26.9165 30Z" fill="#46598B"/>
</svg>
