<svg width="32" height="28" viewBox="0 0 32 28" fill="none" xmlns="http://www.w3.org/2000/svg">
<path d="M11.5045 5.00002C11.5045 3.80774 11.9781 2.66429 12.8212 1.82122C13.6643 0.978148 14.8077 0.504517 16 0.504517C17.1923 0.504517 18.3357 0.978148 19.1788 1.82122C20.0219 2.66429 20.4955 3.80774 20.4955 5.00002C20.4955 6.1923 20.0219 7.33574 19.1788 8.17881C18.3357 9.02188 17.1923 9.49552 16 9.49552C14.8077 9.49552 13.6643 9.02188 12.8212 8.17881C11.9781 7.33574 11.5045 6.1923 11.5045 5.00002ZM16 2.75452C15.7051 2.75452 15.4131 2.8126 15.1407 2.92544C14.8682 3.03829 14.6207 3.20369 14.4122 3.41221C14.2037 3.62072 14.0383 3.86826 13.9254 4.1407C13.8126 4.41314 13.7545 4.70513 13.7545 5.00002C13.7545 5.2949 13.8126 5.58689 13.9254 5.85933C14.0383 6.13177 14.2037 6.37931 14.4122 6.58782C14.6207 6.79634 14.8682 6.96174 15.1407 7.07459C15.4131 7.18743 15.7051 7.24552 16 7.24552C16.5955 7.24552 17.1667 7.00894 17.5878 6.58782C18.0089 6.16671 18.2455 5.59556 18.2455 5.00002C18.2455 4.40447 18.0089 3.83332 17.5878 3.41221C17.1667 2.9911 16.5955 2.75452 16 2.75452ZM22.75 6.12502C22.75 5.6818 22.8373 5.24293 23.0069 4.83346C23.1765 4.42399 23.4251 4.05193 23.7385 3.73853C24.0519 3.42513 24.424 3.17653 24.8334 3.00692C25.2429 2.83731 25.6818 2.75002 26.125 2.75002C26.5682 2.75002 27.0071 2.83731 27.4166 3.00692C27.826 3.17653 28.1981 3.42513 28.5115 3.73853C28.8249 4.05193 29.0735 4.42399 29.2431 4.83346C29.4127 5.24293 29.5 5.6818 29.5 6.12502C29.5 7.02012 29.1444 7.87857 28.5115 8.5115C27.8786 9.14444 27.0201 9.50002 26.125 9.50002C25.2299 9.50002 24.3714 9.14444 23.7385 8.5115C23.1056 7.87857 22.75 7.02012 22.75 6.12502ZM26.125 5.00002C25.8266 5.00002 25.5405 5.11854 25.3295 5.32952C25.1185 5.5405 25 5.82665 25 6.12502C25 6.42338 25.1185 6.70953 25.3295 6.92051C25.5405 7.13149 25.8266 7.25002 26.125 7.25002C26.4234 7.25002 26.7095 7.13149 26.9205 6.92051C27.1315 6.70953 27.25 6.42338 27.25 6.12502C27.25 5.82665 27.1315 5.5405 26.9205 5.32952C26.7095 5.11854 26.4234 5.00002 26.125 5.00002ZM5.875 2.75002C4.9799 2.75002 4.12145 3.1056 3.48851 3.73853C2.85558 4.37147 2.5 5.22991 2.5 6.12502C2.5 7.02012 2.85558 7.87857 3.48851 8.5115C4.12145 9.14444 4.9799 9.50002 5.875 9.50002C6.77011 9.50002 7.62855 9.14444 8.26149 8.5115C8.89442 7.87857 9.25 7.02012 9.25 6.12502C9.25 5.22991 8.89442 4.37147 8.26149 3.73853C7.62855 3.1056 6.77011 2.75002 5.875 2.75002ZM4.75 6.12502C4.75 5.82665 4.86853 5.5405 5.07951 5.32952C5.29048 5.11854 5.57663 5.00002 5.875 5.00002C6.17337 5.00002 6.45952 5.11854 6.6705 5.32952C6.88147 5.5405 7 5.82665 7 6.12502C7 6.42338 6.88147 6.70953 6.6705 6.92051C6.45952 7.13149 6.17337 7.25002 5.875 7.25002C5.57663 7.25002 5.29048 7.13149 5.07951 6.92051C4.86853 6.70953 4.75 6.42338 4.75 6.12502ZM7.603 11.75C7.20701 12.4337 6.99897 13.21 7 14H2.5V19.625C2.49982 20.1847 2.63881 20.7356 2.90448 21.2282C3.17014 21.7208 3.55413 22.1396 4.02187 22.4468C4.48962 22.7541 5.02645 22.9403 5.58402 22.9885C6.14159 23.0368 6.70242 22.9456 7.216 22.7233C7.3825 23.468 7.6435 24.179 7.981 24.8428C7.12705 25.1876 6.20149 25.3174 5.28563 25.2209C4.36976 25.1244 3.49159 24.8045 2.72825 24.2893C1.9649 23.7742 1.33972 23.0794 0.907614 22.2661C0.475509 21.4529 0.249694 20.546 0.25 19.625V14C0.25 13.4033 0.487053 12.831 0.90901 12.409C1.33097 11.9871 1.90326 11.75 2.5 11.75H7.603ZM24.019 24.8428C24.873 25.1876 25.7985 25.3174 26.7144 25.2209C27.6302 25.1244 28.5084 24.8045 29.2718 24.2893C30.0351 23.7742 30.6603 23.0794 31.0924 22.2661C31.5245 21.4529 31.7503 20.546 31.75 19.625V14C31.75 13.4033 31.5129 12.831 31.091 12.409C30.669 11.9871 30.0967 11.75 29.5 11.75H24.397C24.7795 12.4115 25 13.1788 25 14H29.5V19.625C29.5002 20.1847 29.3612 20.7356 29.0955 21.2282C28.8299 21.7208 28.4459 22.1396 27.9781 22.4468C27.5104 22.7541 26.9736 22.9403 26.416 22.9885C25.8584 23.0368 25.2976 22.9456 24.784 22.7233C24.6153 23.468 24.3565 24.179 24.019 24.8428ZM11.5 11.7478C10.9033 11.7478 10.331 11.9848 9.90901 12.4068C9.48705 12.8287 9.25 13.401 9.25 13.9978V20.75C9.25 22.5402 9.96116 24.2571 11.227 25.523C12.4929 26.7889 14.2098 27.5 16 27.5C17.7902 27.5 19.5071 26.7889 20.773 25.523C22.0388 24.2571 22.75 22.5402 22.75 20.75V14C22.75 13.4033 22.5129 12.831 22.091 12.409C21.669 11.9871 21.0967 11.75 20.5 11.75H11.5V11.7478ZM11.5 13.9978H20.5V20.75C20.5 21.9435 20.0259 23.0881 19.182 23.932C18.3381 24.7759 17.1935 25.25 16 25.25C14.8065 25.25 13.6619 24.7759 12.818 23.932C11.9741 23.0881 11.5 21.9435 11.5 20.75V14V13.9978Z" fill="#1DEDE1"/>
</svg>
