<svg width="31" height="26" viewBox="0 0 31 26" fill="none" xmlns="http://www.w3.org/2000/svg">
  <path
    d="M28.0429 0.429285C28.0429 0.429285 30.8402 -0.661541 30.6061 1.9874C30.5291 3.07823 29.83 6.89648 29.2856 11.0258L27.4208 23.2589C27.4208 23.2589 27.2653 25.051 25.8663 25.3627C24.468 25.6738 22.3699 24.2719 21.9811 23.9602C21.67 23.7261 16.1532 20.2197 14.2106 18.506C13.6663 18.038 13.0442 17.1034 14.2884 16.0126L22.4469 8.22059C23.3793 7.286 24.3118 5.10435 20.4265 7.7533L9.54709 15.1551C9.54709 15.1551 8.30362 15.9348 5.97293 15.2336L0.921291 13.6747C0.921291 13.6747 -0.943553 12.5061 2.24252 11.3375C10.0137 7.67553 19.5719 3.93577 28.0414 0.429285H28.0429Z"
    fill="white" />
</svg>