<svg width="32" height="32" viewBox="0 0 32 32" fill="none" xmlns="http://www.w3.org/2000/svg">
<path d="M29.9466 7.99967C28.9199 8.46634 27.8132 8.77301 26.6666 8.91967C27.8399 8.21301 28.7466 7.09301 29.1732 5.74634C28.0666 6.41301 26.8399 6.87967 25.5466 7.14634C24.4932 5.99967 23.0132 5.33301 21.3332 5.33301C18.1999 5.33301 15.6399 7.89301 15.6399 11.053C15.6399 11.5063 15.6932 11.9463 15.7866 12.3597C11.0399 12.1197 6.81322 9.83967 3.99989 6.38634C3.50656 7.22634 3.22656 8.21301 3.22656 9.25301C3.22656 11.2397 4.22656 12.9997 5.77322 13.9997C4.82656 13.9997 3.94656 13.733 3.17322 13.333V13.373C3.17322 16.1463 5.14656 18.4663 7.75989 18.9863C6.92086 19.216 6.04002 19.2479 5.18656 19.0797C5.5487 20.2163 6.25794 21.2109 7.21458 21.9236C8.17122 22.6363 9.32715 23.0313 10.5199 23.053C8.49806 24.6536 5.99188 25.5188 3.41322 25.5063C2.95989 25.5063 2.50656 25.4797 2.05322 25.4263C4.58656 27.053 7.59989 27.9997 10.8266 27.9997C21.3332 27.9997 27.1066 19.2797 27.1066 11.7197C27.1066 11.4663 27.1066 11.2263 27.0932 10.973C28.2132 10.173 29.1732 9.15967 29.9466 7.99967Z" fill="#46598B"/>
</svg>
