<svg width="31" height="26" viewBox="0 0 31 26" fill="none" xmlns="http://www.w3.org/2000/svg">
<path d="M30.7822 3.80683C29.6734 4.31084 28.4782 4.64205 27.2398 4.80045C28.507 4.03723 29.4862 2.8276 29.947 1.37317C28.7518 2.09319 27.427 2.5972 26.0301 2.8852C24.8925 1.64677 23.2941 0.926758 21.4796 0.926758C18.0955 0.926758 15.3307 3.69162 15.3307 7.1045C15.3307 7.59411 15.3883 8.06933 15.4891 8.51574C10.3626 8.25653 5.79766 5.79407 2.75919 2.06438C2.22638 2.97161 1.92397 4.03723 1.92397 5.16046C1.92397 7.30611 3.00399 9.20695 4.67443 10.287C3.65201 10.287 2.70159 9.99897 1.86637 9.56696V9.61016C1.86637 12.6054 3.99762 15.1111 6.82008 15.6727C5.91391 15.9207 4.96258 15.9552 4.04082 15.7735C4.43194 17.0011 5.19794 18.0753 6.23113 18.845C7.26433 19.6147 8.51277 20.0413 9.80095 20.0648C7.61733 21.7935 4.91059 22.7279 2.12557 22.7145C1.63596 22.7145 1.14635 22.6857 0.656738 22.6281C3.3928 24.3849 6.64728 25.4073 10.1322 25.4073C21.4796 25.4073 27.715 15.9895 27.715 7.82452C27.715 7.55091 27.715 7.29171 27.7006 7.0181C28.9102 6.15408 29.947 5.05966 30.7822 3.80683Z" fill="white"/>
</svg>
