<svg width="45" height="45" viewBox="0 0 45 45" fill="none" xmlns="http://www.w3.org/2000/svg">
<circle cx="22.5" cy="22.0049" r="22" fill="#50AF95"/>
<path fill-rule="evenodd" clip-rule="evenodd" d="M25.7468 23.4437C25.5934 23.4553 24.8007 23.5028 23.0326 23.5028C21.6263 23.5028 20.6278 23.4604 20.2775 23.4437C14.8427 23.2034 10.7861 22.2524 10.7861 21.1137C10.7861 19.9751 14.8427 19.0253 20.2775 18.7812V22.4965C20.6329 22.5222 21.6506 22.5826 23.0569 22.5826C24.7445 22.5826 25.5895 22.512 25.7417 22.4978V18.7837C31.1649 19.0266 35.2126 19.9776 35.2126 21.1137C35.2126 22.2498 31.1662 23.2008 25.7417 23.4424L25.7468 23.4437ZM25.7468 18.3995V15.0748H33.3153V10.0049H12.709V15.0748H20.2762V18.3982C14.1255 18.6822 9.5 19.907 9.5 21.3746C9.5 22.8422 14.1255 24.0657 20.2762 24.351V35.0049H25.7455V24.3471C31.8822 24.0631 36.5 22.8397 36.5 21.3733C36.5 19.907 31.886 18.6835 25.7455 18.3982L25.7468 18.3995Z" fill="white"/>
</svg>
