<svg width="45" height="45" viewBox="0 0 45 45" fill="none" xmlns="http://www.w3.org/2000/svg">
<g clip-path="url(#clip0_937_4099)">
<path d="M22.5 44.0049C34.6503 44.0049 44.5 34.1551 44.5 22.0049C44.5 9.85462 34.6503 0.00488281 22.5 0.00488281C10.3497 0.00488281 0.5 9.85462 0.5 22.0049C0.5 34.1551 10.3497 44.0049 22.5 44.0049Z" fill="#F3BA2F"/>
<path d="M17.1595 19.8104L22.5 14.4699L27.8433 19.8131L30.9508 16.7056L22.5 8.25488L14.052 16.7029L17.1595 19.8104ZM8.75 22.0049L11.8575 18.8974L14.965 22.0049L11.8575 25.1124L8.75 22.0049ZM17.1595 24.1994L22.5 29.5399L27.8433 24.1966L30.9508 27.3028L22.5 35.7549L14.052 27.3069L14.0479 27.3028L17.1595 24.1994ZM30.035 22.0049L33.1425 18.8974L36.25 22.0049L33.1425 25.1124L30.035 22.0049ZM25.6515 22.0021H25.6543V22.0049L22.5 25.1591L19.3499 22.0104L19.3444 22.0049L19.3499 22.0008L19.9012 21.448L20.1694 21.1799L22.5 18.8506L25.6529 22.0035L25.6515 22.0021Z" fill="white"/>
</g>
<defs>
<clipPath id="clip0_937_4099">
<rect width="44" height="44" fill="white" transform="translate(0.5 0.00488281)"/>
</clipPath>
</defs>
</svg>
