<svg width="69" height="19" viewBox="0 0 69 19" fill="none" xmlns="http://www.w3.org/2000/svg">
<g clip-path="url(#clip0_1052_4101)">
<path d="M4.94607 1.58306C4.12741 1.9593 3.68776 3.08798 3.67261 4.77111C3.67261 5.66219 4.15773 6.63246 4.68834 6.81068C5.37055 7.0483 12.223 7.93937 13.2842 7.93937C14.7244 7.93937 15.3763 5.91961 14.3606 4.63251C14.0574 4.25627 13.3448 3.97905 9.1758 2.61274C5.55248 1.40485 5.40087 1.38505 4.94607 1.58306ZM7.47786 3.42461C9.19095 3.95925 11.3134 4.67211 12.8446 5.20675C13.8451 5.56318 14.0574 5.8602 13.6936 6.43445L13.5419 6.67207L13.0568 6.63246C9.43348 6.27604 5.08251 5.62259 4.91575 5.40477C4.52158 4.92953 4.71866 3.16719 5.18863 2.90977C5.40088 2.75135 5.30991 2.73156 7.47786 3.42461Z" fill="#59D89D"/>
<path d="M4.94607 1.58306C4.12741 1.9593 3.68776 3.08798 3.67261 4.77111C3.67261 5.66219 4.15773 6.63246 4.68834 6.81068C5.37055 7.0483 12.223 7.93937 13.2842 7.93937C14.7244 7.93937 15.3763 5.91961 14.3606 4.63251C14.0574 4.25627 13.3448 3.97905 9.1758 2.61274C5.55248 1.40485 5.40087 1.38505 4.94607 1.58306ZM7.47786 3.42461C9.19095 3.95925 11.3134 4.67211 12.8446 5.20675C13.8451 5.56318 14.0574 5.8602 13.6936 6.43445L13.5419 6.67207L13.0568 6.63246C9.43348 6.27604 5.08251 5.62259 4.91575 5.40477C4.52158 4.92953 4.71866 3.16719 5.18863 2.90977C5.40088 2.75135 5.30991 2.73156 7.47786 3.42461Z" fill="#59D89D"/>
<path d="M4.94607 1.58306C4.12741 1.9593 3.68776 3.08798 3.67261 4.77111C3.67261 5.66219 4.15773 6.63246 4.68834 6.81068C5.37055 7.0483 12.223 7.93937 13.2842 7.93937C14.7244 7.93937 15.3763 5.91961 14.3606 4.63251C14.0574 4.25627 13.3448 3.97905 9.1758 2.61274C5.55248 1.40485 5.40087 1.38505 4.94607 1.58306ZM7.47786 3.42461C9.19095 3.95925 11.3134 4.67211 12.8446 5.20675C13.8451 5.56318 14.0574 5.8602 13.6936 6.43445L13.5419 6.67207L13.0568 6.63246C9.43348 6.27604 5.08251 5.62259 4.91575 5.40477C4.52158 4.92953 4.71866 3.16719 5.18863 2.90977C5.40088 2.75135 5.30991 2.73156 7.47786 3.42461Z" fill="#59D89D"/>
<path d="M1.98988 7.93999C0.777056 8.13801 -0.0567577 10.1974 0.489012 11.6033C0.731579 12.237 4.77937 17.4447 5.29482 17.7814C5.76479 18.0982 5.97703 18.118 9.96418 18.118C14.7397 18.118 14.4061 18.217 15.4068 16.5141C17.3927 13.128 17.6504 12.3954 17.2866 11.128C16.8469 9.60331 16.574 9.4845 12.7992 9.04888C9.43359 8.67265 3.44527 7.99939 3.03594 7.95979C2.77822 7.93999 2.52049 7.90039 2.45985 7.90039C2.39921 7.90039 2.18697 7.90039 1.98988 7.93999ZM4.76421 9.50429C5.88607 9.6231 7.14441 9.76171 7.58402 9.80137C11.6773 10.2172 15.6796 10.7518 15.9676 10.93C16.3164 11.1478 16.4983 12.0587 16.3012 12.5933C16.0132 13.3458 14.1484 16.5339 13.9058 16.6923C13.7088 16.8111 7.73566 16.8903 6.56831 16.7715L5.77995 16.6923L5.37063 16.1774C5.15838 15.8804 4.24876 14.7715 3.36947 13.6825C1.51991 11.3855 1.33799 11.1083 1.33799 10.6726C1.33799 9.72213 1.7928 9.16769 2.47501 9.24689C2.62661 9.2667 3.65751 9.36568 4.76421 9.50429Z" fill="#59D89D"/>
<path d="M1.98988 7.93999C0.777056 8.13801 -0.0567577 10.1974 0.489012 11.6033C0.731579 12.237 4.77937 17.4447 5.29482 17.7814C5.76479 18.0982 5.97703 18.118 9.96418 18.118C14.7397 18.118 14.4061 18.217 15.4068 16.5141C17.3927 13.128 17.6504 12.3954 17.2866 11.128C16.8469 9.60331 16.574 9.4845 12.7992 9.04888C9.43359 8.67265 3.44527 7.99939 3.03594 7.95979C2.77822 7.93999 2.52049 7.90039 2.45985 7.90039C2.39921 7.90039 2.18697 7.90039 1.98988 7.93999ZM4.76421 9.50429C5.88607 9.6231 7.14441 9.76171 7.58402 9.80137C11.6773 10.2172 15.6796 10.7518 15.9676 10.93C16.3164 11.1478 16.4983 12.0587 16.3012 12.5933C16.0132 13.3458 14.1484 16.5339 13.9058 16.6923C13.7088 16.8111 7.73566 16.8903 6.56831 16.7715L5.77995 16.6923L5.37063 16.1774C5.15838 15.8804 4.24876 14.7715 3.36947 13.6825C1.51991 11.3855 1.33799 11.1083 1.33799 10.6726C1.33799 9.72213 1.7928 9.16769 2.47501 9.24689C2.62661 9.2667 3.65751 9.36568 4.76421 9.50429Z" fill="#59D89D"/>
<path d="M1.98988 7.93999C0.777056 8.13801 -0.0567577 10.1974 0.489012 11.6033C0.731579 12.237 4.77937 17.4447 5.29482 17.7814C5.76479 18.0982 5.97703 18.118 9.96418 18.118C14.7397 18.118 14.4061 18.217 15.4068 16.5141C17.3927 13.128 17.6504 12.3954 17.2866 11.128C16.8469 9.60331 16.574 9.4845 12.7992 9.04888C9.43359 8.67265 3.44527 7.99939 3.03594 7.95979C2.77822 7.93999 2.52049 7.90039 2.45985 7.90039C2.39921 7.90039 2.18697 7.90039 1.98988 7.93999ZM4.76421 9.50429C5.88607 9.6231 7.14441 9.76171 7.58402 9.80137C11.6773 10.2172 15.6796 10.7518 15.9676 10.93C16.3164 11.1478 16.4983 12.0587 16.3012 12.5933C16.0132 13.3458 14.1484 16.5339 13.9058 16.6923C13.7088 16.8111 7.73566 16.8903 6.56831 16.7715L5.77995 16.6923L5.37063 16.1774C5.15838 15.8804 4.24876 14.7715 3.36947 13.6825C1.51991 11.3855 1.33799 11.1083 1.33799 10.6726C1.33799 9.72213 1.7928 9.16769 2.47501 9.24689C2.62661 9.2667 3.65751 9.36568 4.76421 9.50429Z" fill="#59D89D"/>
<path d="M22.062 12.7713L24.9425 7.68228H22.1833V6.27637H26.5343V7.40506L23.7145 12.4544H26.6253V13.8604H22.0772V12.7713H22.062Z" fill="white"/>
<path d="M31.4005 11.5627H28.1865C28.323 12.2359 28.702 12.7508 29.4297 12.7508C29.8996 12.7508 30.4454 12.5131 30.8093 12.1963L31.2489 13.2062C30.8396 13.6023 30.1725 13.9785 29.3842 13.9785C27.7772 13.9785 27.0647 12.5528 27.0647 11.0478C27.0647 9.3845 27.9591 8.11719 29.2932 8.11719C30.5061 8.11719 31.4308 9.14688 31.4308 10.929C31.446 11.1469 31.4308 11.3646 31.4005 11.5627ZM28.1865 10.4934H30.3544C30.2483 9.78052 29.8542 9.32505 29.2932 9.32505C28.7323 9.32505 28.323 9.76074 28.1865 10.4934Z" fill="white"/>
<path d="M36.7522 11.0684C36.7522 12.7317 35.8274 13.999 34.6146 13.999C34.0082 13.999 33.5837 13.6426 33.2805 13.1674V13.8604H32.2041V6.05859H33.3108V8.91002C33.6141 8.45458 34.0234 8.11796 34.6146 8.11796C35.8274 8.11796 36.7522 9.38524 36.7522 11.0684ZM35.6152 11.0486C35.6152 10.1575 35.1452 9.44469 34.4327 9.44469C33.7202 9.44469 33.2502 10.1773 33.2502 11.0486C33.2502 11.9397 33.7202 12.6526 34.4327 12.6526C35.1452 12.6723 35.6152 11.9397 35.6152 11.0486Z" fill="white"/>
<path d="M41.6339 11.5627H38.4199C38.5564 12.2359 38.9354 12.7508 39.6631 12.7508C40.1331 12.7508 40.6788 12.5131 41.0427 12.1963L41.4824 13.2062C41.073 13.6023 40.406 13.9785 39.6176 13.9785C38.0106 13.9785 37.2981 12.5528 37.2981 11.0478C37.2981 9.3845 38.1925 8.11719 39.5267 8.11719C40.7395 8.11719 41.6642 9.14688 41.6642 10.929C41.6794 11.1469 41.6642 11.3646 41.6339 11.5627ZM38.4351 10.4934H40.6031C40.4969 9.78052 40.1027 9.32505 39.5418 9.32505C38.9809 9.32505 38.5564 9.76074 38.4351 10.4934Z" fill="white"/>
<path d="M42.21 11.0478C42.21 9.34492 43.1499 8.11719 44.5143 8.11719C45.3633 8.11719 46.1516 8.65183 46.5155 9.6815L45.621 10.3152C45.3784 9.80031 44.9843 9.46374 44.5294 9.46374C43.8321 9.46374 43.3166 10.1568 43.3166 11.0478C43.3166 11.9587 43.8321 12.6517 44.5143 12.6517C44.9691 12.6517 45.424 12.2954 45.6058 11.8201L46.5003 12.5131C46.1365 13.4042 45.3784 13.9983 44.484 13.9983C43.1499 13.9785 42.21 12.7508 42.21 11.0478Z" fill="white"/>
<path fill-rule="evenodd" clip-rule="evenodd" d="M50.2251 14.1237H54.3635V12.7069H51.4091V6.30803H50.2251V14.1237ZM56.7186 8.11201C55.7553 8.22454 55.0598 8.97385 54.9339 10.0263C54.929 10.0675 54.9249 10.109 54.9218 10.151C55.0059 9.03338 55.7176 8.22896 56.7186 8.11201ZM56.9576 9.14579C56.9653 9.14579 56.9729 9.14587 56.9805 9.146C57.5293 9.15587 57.8514 9.52095 57.8596 10.0754C57.852 10.495 57.4342 10.5545 56.8483 10.6379M56.3007 14.1105C55.3961 14.0365 54.8147 13.4133 54.8225 12.4101C54.8308 11.0698 55.8487 10.7888 56.701 10.6591C56.7506 10.6517 56.7993 10.6448 56.8467 10.6381L56.8483 10.6379M56.4859 14.1179C57.2307 14.1179 57.7106 13.7504 57.9672 13.1344C57.9453 13.1869 57.9217 13.2377 57.8966 13.2865C57.6268 13.8105 57.1671 14.1179 56.4859 14.1179ZM57.5566 9.49692C57.6866 9.6337 57.7599 9.82934 57.764 10.075C57.7622 10.1534 57.7412 10.2076 57.7037 10.2524C57.6623 10.3019 57.5961 10.3448 57.4992 10.3811C57.333 10.4432 57.1095 10.4751 56.8396 10.5136C56.7913 10.5205 56.7415 10.5276 56.6903 10.5351C56.2638 10.6 55.7796 10.7045 55.4 10.9708C55.2087 11.105 55.0407 11.2824 54.92 11.5204C54.7989 11.7593 54.7292 12.0522 54.727 12.4089C54.7226 12.9817 54.899 13.4462 55.2141 13.764C55.5264 14.0789 55.967 14.2426 56.4859 14.2426C57.1581 14.2426 57.6367 13.9512 57.9318 13.437C57.981 13.6452 58.0758 13.813 58.214 13.9306C58.3676 14.0612 58.5675 14.1237 58.803 14.1237H59.3619V12.8799H59.0264C58.964 12.8799 58.9378 12.8614 58.9273 12.849C58.9186 12.8386 58.9068 12.8156 58.9068 12.756V10.1618C58.9068 9.5207 58.7344 8.96884 58.4 8.57856C58.0668 8.18956 57.5826 7.9726 56.9741 7.9726C55.8056 7.9726 54.9238 8.84728 54.8268 10.1388L54.8165 10.2757H55.9907L56.0013 10.1667C56.0514 9.65232 56.4113 9.27051 56.9576 9.27051C57.224 9.27051 57.424 9.35757 57.5566 9.49692ZM56.1435 11.8476C56.3092 11.7468 56.5434 11.7022 56.8201 11.6584C57.0501 11.6209 57.2797 11.582 57.4726 11.5084C57.5782 11.4681 57.6784 11.4153 57.7641 11.3418V11.848C57.7641 12.1926 57.6518 12.4735 57.4636 12.6709C57.2737 12.8701 57.0023 12.988 56.6845 12.988C56.4092 12.988 56.2121 12.9172 56.0865 12.8024C55.9655 12.692 55.9028 12.5339 55.9028 12.3236C55.9028 12.1938 55.9268 12.1001 55.9651 12.0286C56.004 11.956 56.0627 11.8967 56.1435 11.8476ZM60.9039 9.016C61.1512 8.57392 61.5265 8.25897 61.9775 8.14461C61.5812 8.2451 61.2433 8.50057 60.9993 8.86107C60.9657 8.91077 60.9339 8.96245 60.9039 9.016ZM60.8046 12.9831C60.8287 13.0471 60.8552 13.109 60.884 13.1687C61.1439 13.707 61.5878 14.0631 62.1192 14.1438C61.5289 14.0542 61.0465 13.6247 60.8046 12.9831ZM60.7985 14.1237L60.8671 13.3579C61.1924 13.9388 61.7311 14.2859 62.352 14.2859C62.9636 14.2859 63.4867 13.9563 63.8553 13.3893C64.2232 12.8238 64.4339 12.0289 64.4339 11.1022C64.4339 10.1912 64.2232 9.40953 63.8559 8.85358C63.4882 8.29637 62.9673 7.9726 62.3603 7.9726C61.8128 7.9726 61.3354 8.23843 60.9993 8.67891V5.76758H59.8318V14.1237H60.7985ZM67.1731 10.584L66.6441 10.3573C66.6123 10.3432 66.5811 10.3295 66.5499 10.3161C66.4194 10.2595 66.2959 10.2061 66.196 10.1298C66.0788 10.0401 66.0139 9.93402 66.0139 9.77272C66.0139 9.61757 66.0617 9.499 66.1521 9.41485C66.2456 9.32705 66.3933 9.27051 66.597 9.27051C66.8357 9.27051 67.0286 9.34227 67.1648 9.47755C67.2992 9.61058 67.3896 9.81479 67.4125 10.1094L67.4207 10.2217H68.5411L68.529 10.0825C68.4685 9.40679 68.2559 8.87551 67.9185 8.51429C67.5818 8.15409 67.1305 7.9726 66.6053 7.9726C66.0655 7.9726 65.6301 8.14463 65.3277 8.46223C65.0234 8.78231 64.863 9.24081 64.863 9.78352C64.863 10.3531 65.0349 10.7347 65.3054 11.0101C65.5683 11.2781 65.9235 11.4432 66.2857 11.599L66.865 11.8477L66.9414 11.8798C67.1018 11.9475 67.2266 11.9999 67.3176 12.0751C67.3673 12.116 67.4016 12.16 67.4246 12.2111C67.4468 12.2619 67.4615 12.328 67.4615 12.4209C67.4615 12.6053 67.408 12.7386 67.3074 12.8309C67.2018 12.9278 67.0337 12.988 66.7956 12.988C66.5404 12.988 66.3252 12.9107 66.1731 12.7714C66.0235 12.6345 65.9286 12.4336 65.9146 12.1636L65.9082 12.0476H64.7745L64.7802 12.1798C64.8108 12.8383 65.0145 13.3704 65.3735 13.7354C65.7306 14.098 66.2316 14.2859 66.8453 14.2859C67.3966 14.2859 67.8415 14.12 68.1515 13.8026C68.4647 13.4822 68.629 13.0175 68.629 12.4533C68.629 11.9061 68.4876 11.5268 68.2254 11.2391C67.9707 10.9598 67.6066 10.7727 67.1731 10.584ZM66.7861 8.10501C66.7269 8.09989 66.667 8.09732 66.6053 8.09732L66.7861 8.10501ZM67.0681 13.0827C67.0121 13.0964 66.951 13.1055 66.886 13.1098C66.8567 13.1117 66.8268 13.1127 66.7956 13.1127C66.7282 13.1127 66.6632 13.1076 66.6008 13.0976C66.1622 13.0271 65.8478 12.7114 65.8191 12.1723H64.8757C64.8776 12.2145 64.8802 12.256 64.884 12.297C64.9623 13.2407 65.4302 13.869 66.2093 14.0813C66.4022 14.1341 66.6148 14.1612 66.8453 14.1612M62.1369 12.9555C61.4882 12.9555 60.9993 12.2062 60.9993 11.0698C60.9993 10.0062 61.4832 9.30294 62.1369 9.30294C62.4634 9.30294 62.7363 9.48262 62.9297 9.79325C63.1241 10.1059 63.2413 10.5573 63.2413 11.1022C63.2413 11.6642 63.1238 12.1296 62.9288 12.4517C62.7352 12.7715 62.4623 12.9555 62.1369 12.9555Z" fill="white"/>
</g>
<defs>
<clipPath id="clip0_1052_4101">
<rect width="68.75" height="17.4607" fill="white" transform="translate(0 0.994141)"/>
</clipPath>
</defs>
</svg>
